<?xml version="1.0" encoding="utf-8"?>
<!-- Generator: Adobe Illustrator 22.0.1, SVG Export Plug-In . SVG Version: 6.00 Build 0)  -->
<svg version="1.1" id="Layer_1" xmlns="http://www.w3.org/2000/svg" xmlns:xlink="http://www.w3.org/1999/xlink" x="0px" y="0px"
	 viewBox="0 0 566.9 288.6" style="enable-background:new 0 0 566.9 288.6;" xml:space="preserve">
<style type="text/css">
	.st0{fill:#034EA2;}
	.st1{fill:#FDB913;}
	.st2{fill:url(#SVGID_1_);}
</style>
<g>
	<path class="st0" d="M162.6,115.3c6-23.8-8.4-53.9-70.6-55.5c-38.2-1-67.5,4.2-67.5,4.2L0,238.6c0,0,28.6,4.4,61.1,4.4
		c41.7,0,86.8-6.4,99.7-47.7c4.6-14.8,2.3-30.8-9.4-41.1c-8-7.1-16.8-9.2-16.8-9.2S157.1,137.3,162.6,115.3z M75,198.9
		c-4.6,0-11.7-0.4-11.7-0.4l5-35.9c0,0,6.2-0.7,12.3-0.7c15.9,0,25.7,5.9,26.2,16.5C106.9,191.2,95.9,198.9,75,198.9z M105.9,122.2
		c-6,6.1-16.9,6.7-22.4,6.7c-4.4,0-10.3-0.4-10.3-0.4L77.8,95c0,0,6.2-0.3,10.2-0.3c14.3,0,21.7,5.4,22.8,14.1
		C111.4,113.6,109,119,105.9,122.2z"/>
	<g>
		<path class="st0" d="M306.8,64.8c-7.6,25.6-37,42.7-67,43.1l-6.8,48.4c1.7,0.1,3.7,0.2,5.7,0.2l1,0
			c60.2-0.8,113.6-39.6,121.1-91.7H306.8z"/>
		<polygon class="st0" points="191.6,64.8 167.4,237.3 218.3,237.3 242.5,64.8 		"/>
		<path class="st0" d="M318.8,134.9c-14.5,10.2-31.8,17.7-50.5,21.7c2.4,2.9,6.1,8.1,7.8,12.7c3.8,9.9,4.3,15.8,2.1,32.5l-4.9,35.4
			h54.9c1.8-12.2,4.9-37.4,5.7-45.5c1.2-11.3,2.1-24.2-4.8-39.2C326.6,147,321.6,138.2,318.8,134.9z"/>
	</g>
	<path class="st1" d="M513,103.9c4.3-28.6-12.6-50.4-69.2-52.2c-40.8-1.3-72.6,11.6-79.7,46.7c-4.3,21.4,4.7,37.1,23.5,45.8
		c-21.4,7.4-36.6,21.9-41.3,46.7c-7.4,38.7,23.6,60.3,73.8,60.3c50.6,0,82.3-19.8,87.2-54c3.3-22.7-4.9-42.6-31-52.6
		C497.1,136.6,510.2,122.6,513,103.9z M425.1,105.4c1.3-11.3,6.7-20.1,15.8-20.1c8.5,0,12,9,10.8,20.3s-7.2,20.3-15.5,20.3
		C428.2,125.9,423.9,116.7,425.1,105.4z M442.2,186.7c-1.5,14.2-8.5,25.5-18.4,25.5c-9.4,0-14.5-11.6-13.1-25.8
		c1.5-14.2,7.9-25.3,18.7-25.3C439.5,161.2,443.6,172.6,442.2,186.7z"/>
	<path class="st0" d="M516,64.4c19.6,21.9,31.5,50.2,31.5,81.2c0,69.2-59.1,125.3-132,125.3c-30.5,0-58.6-9.9-81-26.4
		c24.2,27,60.2,44.2,100.5,44.2c72.9,0,132-56.1,132-125.3C566.9,123.1,547,87.3,516,64.4z"/>
	<linearGradient id="SVGID_1_" gradientUnits="userSpaceOnUse" x1="395.2104" y1="29.2965" x2="513.6542" y2="29.2965">
		<stop  offset="0" style="stop-color:#FFCB05"/>
		<stop  offset="1" style="stop-color:#F7941D"/>
	</linearGradient>
	<path class="st2" d="M474,21.3L452,0l-25.1,20.1L402,7.9l-6.8,35.8C407.8,40,421.1,38,435,38c26.8,0,51.7,7.6,72.5,20.6l6.2-49
		L474,21.3z"/>
</g>
</svg>
