<?xml version="1.0" encoding="utf-8"?>
<!-- Generator: Adobe Illustrator 22.0.1, SVG Export Plug-In . SVG Version: 6.00 Build 0)  -->
<svg version="1.1" id="Layer_1" xmlns="http://www.w3.org/2000/svg" xmlns:xlink="http://www.w3.org/1999/xlink" x="0px" y="0px"
	 viewBox="0 0 566.9 345.6" style="enable-background:new 0 0 566.9 345.6;" xml:space="preserve">
<style type="text/css">
	.st0{fill:#685CA8;}
	.st1{fill:#FFFFFF;}
	.st2{fill:#C8BADB;}
	.st3{opacity:0.6;}
	.st4{fill:none;}
	.st5{fill:#CDC0DF;}
	.st6{fill:#8C7FBC;}
	.st7{fill:#CBC1DF;}
	.st8{fill:#53AE94;}
	.st9{fill:#F7941F;}
	.st10{fill:#F1F0F0;}
	.st11{fill:#1C2143;}
	.st12{fill:#32A6DE;}
	.st13{fill:#F3BA2C;}
</style>
<g>
	<g>
		<g>
			<path class="st0" d="M564.5,101.8c-11,43.9-55.4,70.7-99.4,59.7c-43.9-11-70.7-55.5-59.7-99.4c10.9-43.9,55.4-70.7,99.4-59.7
				C548.7,13.4,575.4,57.9,564.5,101.8z"/>
			<g>
				<g>
					<path class="st1" d="M484.9,14.5l-41.4,68.8l41.4,24.5V14.5"/>
					<path class="st2" d="M484.9,14.5v93.3l41.4-24.5L484.9,14.5"/>
					<g class="st3">
						<g>
							<defs>
								<rect id="SVGID_1_" x="443.5" y="64.4" width="82.9" height="43.3"/>
							</defs>
							<clipPath id="SVGID_2_">
								<use xlink:href="#SVGID_1_"  style="overflow:visible;"/>
							</clipPath>
						</g>
					</g>
					<polyline class="st4" points="484.9,14.5 484.9,107.8 443.5,107.8 443.5,14.5 					"/>
					<polyline class="st4" points="526.4,14.5 526.4,107.8 484.9,107.8 484.9,14.5 					"/>
					<polyline class="st4" points="443.5,149.5 443.5,91.1 484.9,91.1 484.9,149.5 					"/>
					<path class="st1" d="M484.9,115.6l-41.4-24.5l41.4,58.4"/>
					<polyline class="st4" points="484.9,149.5 484.9,91.1 526.4,91.1 526.4,149.5 					"/>
					<path class="st5" d="M484.9,149.5l41.5-58.4l-41.5,24.5"/>
				</g>
				<polygon class="st6" points="484.9,107.8 526.4,83.3 484.9,64.4 				"/>
				<polygon class="st7" points="484.9,64.4 484.9,107.8 443.5,83.3 				"/>
			</g>
		</g>
		<g>
			<circle class="st8" cx="283.5" cy="82" r="82"/>
			<g>
				<path class="st1" d="M294.7,89.9L294.7,89.9c-0.6,0-3.9,0.2-11.1,0.2c-5.8,0-9.8-0.2-11.3-0.2v0c-22.2-1-38.8-4.8-38.8-9.5
					c0-4.6,16.6-8.5,38.8-9.5v15.1c1.4,0.1,5.6,0.4,11.4,0.4c6.9,0,10.3-0.3,11-0.4V71c22.2,1,38.7,4.9,38.7,9.5
					C333.3,85.1,316.8,89,294.7,89.9 M294.7,69.4V55.9h30.9V35.3h-84.2v20.6h30.9v13.5c-25.1,1.2-44,6.1-44,12.1
					c0,6,18.9,10.9,44,12.1v43.3h22.3V93.6c25.1-1.2,43.9-6.1,43.9-12.1C338.6,75.6,319.7,70.6,294.7,69.4"/>
			</g>
		</g>
		<g>
			<path class="st9" d="M161.5,101.8c-11,43.9-55.4,70.7-99.4,59.7c-43.9-11-70.6-55.4-59.7-99.4C13.4,18.2,57.9-8.5,101.8,2.5
				C145.7,13.4,172.5,57.9,161.5,101.8z"/>
			<path class="st1" d="M123.5,70.8c1.8-12-7.3-18.4-19.8-22.7l4-16.2l-9.9-2.5L94,45.2c-2.6-0.6-5.3-1.3-7.9-1.9l4-15.9L80.2,25
				l-4,16.2c-2.2-0.5-4.3-1-6.3-1.5l0-0.1l-13.6-3.4l-2.6,10.5c0,0,7.3,1.7,7.2,1.8c4,1,4.7,3.6,4.6,5.7l-4.6,18.5
				c0.3,0.1,0.6,0.2,1,0.3c-0.3-0.1-0.7-0.2-1-0.3l-6.5,25.9c-0.5,1.2-1.7,3-4.5,2.3c0.1,0.1-7.2-1.8-7.2-1.8l-4.9,11.3l12.9,3.2
				c2.4,0.6,4.7,1.2,7,1.8l-4.1,16.4l9.9,2.5l4-16.2c2.7,0.7,5.3,1.4,7.9,2l-4,16.2l9.9,2.5l4.1-16.4c16.8,3.2,29.5,1.9,34.8-13.3
				c4.3-12.3-0.2-19.3-9.1-24C117.4,83.8,122.2,79.6,123.5,70.8z M101,102.5c-3.1,12.3-23.7,5.6-30.4,4L76,84.7
				C82.7,86.4,104.2,89.7,101,102.5z M104,70.6c-2.8,11.2-20,5.5-25.6,4.1L83.4,55C89,56.4,106.9,59,104,70.6z"/>
		</g>
	</g>
	<g>
		<g id="_1851889811152">
			<circle class="st10" cx="182" cy="263.6" r="82"/>
			<g>
				<path class="st11" d="M178.7,195.2c2,0.4,6.1,6,7.3,7.7c11.6,17.9,14.2,36.6,2.1,54.3c-7,10.1-16.5,20.1-21.1,31.6
					c-4.6,11.3-2.3,22.4,3.2,33.1c1.3,2.6,2.9,5.1,4.1,7.6c0.3,0.7,0.7,1.4,0.3,2.1c-0.7,0.6-1.8,0.3-2.6,0.2
					c-20.4-4.2-35.4-26.6-34.4-46.9c0.4-8.8,3.7-17.4,8.7-24.6c6-8.9,14.9-15.6,21.1-24.7c5.7-8.2,9-17.7,10.4-27.5
					C178.3,203.8,178.5,199.5,178.7,195.2z"/>
				<path class="st12" d="M208.3,250.2c0-0.1,0-0.1,0.1-0.2c0.1,0,0.1,0,0.2,0c0.6,0.3,1.1,0.8,1.6,1.2c13.7,12.1,20,30.9,14.6,48.6
					c-1.9,6.4-5.5,12.2-10.1,17c-3.8,4-6.8,5.8-11.5,8.6c-2,1.1-3.8,2.3-5.1,3.7c-0.8,0.8-1.5,1.9-2.2,2.9
					c-2.5-0.7-8.7-10.4-9.8-12.9c-4.7-10.2-2.6-21,2-30.9c4.4-9.5,11.1-17.2,15.9-26.5C205.7,258.1,207.6,254.3,208.3,250.2z"/>
			</g>
		</g>
		<g>
			<circle class="st13" cx="384.9" cy="263.6" r="82"/>
			<path class="st1" d="M365,255.4l19.9-19.9l19.9,19.9l11.6-11.6l-31.5-31.5l-31.5,31.5L365,255.4z M333.7,263.6l11.6-11.6
				l11.6,11.6l-11.6,11.6L333.7,263.6z M365,271.8l19.9,19.9l19.9-19.9l11.6,11.6l-31.5,31.5l-31.5-31.5l0,0L365,271.8z M413,263.6
				l11.6-11.6l11.6,11.6l-11.6,11.6L413,263.6z M396.7,263.6L396.7,263.6L396.7,263.6l-11.7,11.8l-11.7-11.7l0,0l0,0l2.1-2.1l1-1
				l8.7-8.7L396.7,263.6L396.7,263.6z"/>
		</g>
	</g>
</g>
</svg>
