<?xml version="1.0" encoding="utf-8"?>
<!-- Generator: Adobe Illustrator 22.0.1, SVG Export Plug-In . SVG Version: 6.00 Build 0)  -->
<svg version="1.1" id="Layer_1" xmlns="http://www.w3.org/2000/svg" xmlns:xlink="http://www.w3.org/1999/xlink" x="0px" y="0px"
	 viewBox="0 0 566.9 110.3" style="enable-background:new 0 0 566.9 110.3;" xml:space="preserve">
<style type="text/css">
	.st0{fill:url(#SVGID_1_);}
	.st1{fill:url(#SVGID_2_);}
</style>
<g>
	<g>
		<path d="M92.1,10h63.5v14.5h-47.1v21h31.2v14.2h-31.2v23.5H157v14.5H92.1V10z"/>
		<path d="M152.5,35.2h16.7L184,78.6l13.6-43.4H214l-22.7,62.1h-15L152.5,35.2z"/>
		<path d="M211.5,66.4c0-19,13-32.3,32-32.3c18.7,0,31.7,13.3,31.7,32.3c0,18.7-13.3,32-32.3,32C224.5,98.7,211.5,85.4,211.5,66.4z
			 M258.8,66.9v-0.6c0-11.9-5.7-19-15.3-19s-15.3,7.1-15.3,19v0.6c0,11.6,5.7,18.4,15,18.4C252.9,85.4,258.8,78.6,258.8,66.9z"/>
		<path d="M282.9,8.8h16.4v88.7h-16.4V8.8z"/>
		<path d="M308.7,72.6V35.2h16.4v36.3c0,8.2,4,13,11.3,13c8.5,0,12.2-7.4,12.2-17.9V35.2h16.4v62.1h-16.4v-8.8
			c-3.4,6.5-9.1,9.9-17,9.9C317.5,98.7,308.7,88.5,308.7,72.6z"/>
		<path d="M379.8,80.8V48.5h-8.8v-13h8.8V23.6l15.9-9.1v20.7h12.2v13h-12.5v31.2c0,3.1,1.4,4.3,4.5,4.5h7.4v13.6h-12.8
			C382.7,96.7,380.1,91.3,379.8,80.8z"/>
		<path d="M415.6,10.3h17v15.9h-17V10.3z M415.8,35.2h16.4v62.1h-16.4V35.2z"/>
		<path d="M439.7,66.4c0-19,13-32.3,32-32.3c18.7,0,31.7,13.3,31.7,32.3c0,18.7-13.3,32-32.3,32C452.4,98.7,439.7,85.4,439.7,66.4z
			 M487,66.9v-0.6c0-11.9-5.7-19-15.3-19c-9.6,0-15.3,7.1-15.3,19v0.6c0,11.6,5.7,18.4,15,18.4C481,85.4,487,78.6,487,66.9z"/>
		<path d="M510.8,35.2h16.4v10.2c3.4-7.4,9.4-11.3,18.1-11.3c13.6,0,21.5,9.1,21.5,26.1v37.4h-16.4V61c0-8.8-3.4-13-11.1-13
			c-7.7,0-12.5,6.2-12.5,17.9v31.7h-16.4L510.8,35.2L510.8,35.2z"/>
	</g>
	<path d="M68.9,108.9c-2.8,0-5.1-2.3-5.1-5.1s2.3-5.1,5.1-5.1c2.8,0,5.1,2.3,5.1,5.1C74,106.6,71.7,108.9,68.9,108.9 M68.9,97.3
		c-3.4,0-6.2,2.8-6.2,6.5c0,3.7,2.8,6.5,6.2,6.5c3.4,0,6.5-2.8,6.5-6.5C75.4,100.1,72.6,97.3,68.9,97.3"/>
	<g>
		<path d="M58.7,50.5c5.1,0.3,10.8,0,16.7-0.6c-0.9-12.5-4.8-22.7-11.1-30.6c0.3,2.3,0.6,4.5,0.6,6.8C64.9,34.9,62.6,43.4,58.7,50.5
			z"/>
		<path d="M56.4,54.2c-9.1,13.6-24.7,22.7-42.2,22.7c-1.1,0-2.6,0-3.7-0.3C6,83.4,3.1,91,0,98.4c31.5,16.7,72.3-0.9,75.4-43.9
			C68.3,53.9,62.1,53.9,56.4,54.2z"/>
		
			<radialGradient id="SVGID_1_" cx="1369.8691" cy="418.6768" r="43.0339" fx="1326.9318" fy="421.556" gradientTransform="matrix(-0.8331 -0.5531 -0.4978 0.7498 1382.0861 469.0827)" gradientUnits="userSpaceOnUse">
			<stop  offset="0.1698" style="stop-color:#ECECEC"/>
			<stop  offset="0.2146" style="stop-color:#D6D6D6"/>
			<stop  offset="0.3543" style="stop-color:#969696"/>
			<stop  offset="0.4875" style="stop-color:#606060"/>
			<stop  offset="0.6108" style="stop-color:#373737"/>
			<stop  offset="0.722" style="stop-color:#191919"/>
			<stop  offset="0.8171" style="stop-color:#060606"/>
			<stop  offset="0.8851" style="stop-color:#000000"/>
		</radialGradient>
		<path class="st0" d="M0,6.3c8.8,19.8,15.3,42.8,58.7,44.2c4-7.4,6.2-15.6,6.2-24.4c0-2.3-0.3-4.5-0.6-6.8C49.6-0.2,22.4-5.6,0,6.3
			z"/>
		
			<radialGradient id="SVGID_2_" cx="1208.7889" cy="356.5655" r="18.0933" fx="1198.8643" fy="356.7761" gradientTransform="matrix(-0.4226 -0.9063 -2.3873 1.1132 1395.6104 764.0168)" gradientUnits="userSpaceOnUse">
			<stop  offset="0.1155" style="stop-color:#ECECEC"/>
			<stop  offset="0.1694" style="stop-color:#E1E1E1"/>
			<stop  offset="0.2654" style="stop-color:#C2C2C2"/>
			<stop  offset="0.3924" style="stop-color:#909090"/>
			<stop  offset="0.5455" style="stop-color:#4C4C4C"/>
			<stop  offset="0.6987" style="stop-color:#000000"/>
		</radialGradient>
		<path class="st1" d="M56.4,54.2C30.3,55.3,18.1,65,10.5,76.6c1.1,0,2.6,0.3,3.7,0.3C32,76.9,47.3,67.8,56.4,54.2z"/>
	</g>
	<g>
		<path d="M66.6,102.7h-0.9v-0.6h2.8v0.6h-0.9v2.8h-0.9C66.6,105.5,66.6,102.7,66.6,102.7z"/>
		<path d="M68.6,102.1h1.1l0.6,2.3l0.6-2.3H72v3.4h-0.9v-2.6l-0.3,2.6h-0.6l-0.9-2.6v2.6h-0.6v-3.4H68.6z"/>
	</g>
</g>
</svg>
