<?xml version="1.0" encoding="utf-8"?>
<!-- Generator: Adobe Illustrator 22.0.1, SVG Export Plug-In . SVG Version: 6.00 Build 0)  -->
<svg version="1.1" id="Layer_1" xmlns="http://www.w3.org/2000/svg" xmlns:xlink="http://www.w3.org/1999/xlink" x="0px" y="0px"
	 viewBox="0 0 566.9 95.4" style="enable-background:new 0 0 566.9 95.4;" xml:space="preserve">
<style type="text/css">
	.st0{fill:url(#SVGID_1_);}
	.st1{fill:url(#SVGID_2_);}
	.st2{fill:#FFFFFF;}
	.st3{fill:url(#SVGID_3_);}
	.st4{fill:url(#SVGID_4_);}
	.st5{fill:url(#SVGID_5_);}
	.st6{fill:url(#SVGID_6_);}
	.st7{fill:url(#SVGID_7_);}
	.st8{fill:url(#SVGID_8_);}
</style>
<g>
	<linearGradient id="SVGID_1_" gradientUnits="userSpaceOnUse" x1="341.8766" y1="19.9196" x2="341.8766" y2="106.7124">
		<stop  offset="0" style="stop-color:#E2202B"/>
		<stop  offset="0.1292" style="stop-color:#C8293C"/>
		<stop  offset="1" style="stop-color:#1B67AB"/>
	</linearGradient>
	<path class="st0" d="M380.2,0.6c0,0,7.6,4.8,5.5,13.1s-9.7,8.3-9.7,8.3h-9.7c0,0-11.1-2.8-23.5-2.8h-0.7h-0.7
		c-12.4,0-23.5,2.8-23.5,2.8h-9.7c0,0-7.6,0-9.7-8.3c-2.1-8.3,5.5-13.1,5.5-13.1c-3.5,0-18.7,6.9-16.6,22.8
		c2.1,13.1,11.8,17.3,15.2,18c-0.7,0.7-0.7,2.1-0.7,3.5v6.9c0,3.5,2.8,6.2,6.2,6.2h2.8c0.7,1.4,1.4,2.1,2.8,2.1h0.7v8.3
		c0,8.3,6.2,14.5,14.5,14.5h9h9.7h9c7.6,0,13.8-6.2,14.5-13.8c2.8-4.1,2.8-9.7,2.8-10.4l0,0c0,0,0,0,0-0.7h1.4
		c3.5,0,6.2-2.8,6.2-6.2v-6.9c0-1.4,0-2.1-0.7-3.5c3.5-0.7,13.8-4.8,15.2-18C398.8,7.5,383.6,0.6,380.2,0.6z M380.2,0.6
		c0,0,7.6,4.8,5.5,13.1s-9.7,8.3-9.7,8.3h-9.7c0,0-11.1-2.8-23.5-2.8h-0.7h-0.7c-12.4,0-23.5,2.8-23.5,2.8h-9.7c0,0-7.6,0-9.7-8.3
		c-2.1-8.3,5.5-13.1,5.5-13.1c-3.5,0-18.7,6.9-16.6,22.8c2.1,13.1,11.8,17.3,15.2,18c-0.7,0.7-0.7,2.1-0.7,3.5v6.9
		c0,3.5,2.8,6.2,6.2,6.2h2.8c0.7,1.4,1.4,2.1,2.8,2.1h0.7v8.3c0,8.3,6.2,14.5,14.5,14.5h9h9.7h9c7.6,0,13.8-6.2,14.5-13.8
		c2.8-4.1,2.8-9.7,2.8-10.4l0,0c0,0,0,0,0-0.7h1.4c3.5,0,6.2-2.8,6.2-6.2v-6.9c0-1.4,0-2.1-0.7-3.5c3.5-0.7,13.8-4.8,15.2-18
		C398.8,7.5,383.6,0.6,380.2,0.6z"/>
	<linearGradient id="SVGID_2_" gradientUnits="userSpaceOnUse" x1="47.6939" y1="10.3639" x2="47.6939" y2="104.0273">
		<stop  offset="0" style="stop-color:#E2202B"/>
		<stop  offset="0.1292" style="stop-color:#C8293C"/>
		<stop  offset="1" style="stop-color:#1B67AB"/>
	</linearGradient>
	<path class="st1" d="M71.9,0H23.5C10.4,0,0,10.4,0,23.5v48.4C0,85,10.4,95.4,23.5,95.4h48.4C85,95.4,95.4,85,95.4,71.9V23.5
		C95.4,10.4,84.3,0,71.9,0z"/>
	<g>
		<path class="st2" d="M18.7,60.8c0,2.1-1.4,3.5-3.5,3.5s-3.5-1.4-3.5-3.5V35.3c0-2.1,1.4-3.5,3.5-3.5s3.5,1.4,3.5,3.5V60.8z"/>
		<path class="st2" d="M60.1,63.6c-1.4,1.4-3.5,1.4-4.8,0l-20-20v17.3c0,2.1-1.4,3.5-3.5,3.5s-3.5-1.4-3.5-3.5V35.3
			c0-2.1,1.4-3.5,3.5-3.5c1.4,0,2.1,0.7,2.8,1.4l0,0l25.6,25.6C61.5,60.1,61.5,62.2,60.1,63.6z"/>
		<path class="st2" d="M82.9,63.6c-1.4,1.4-3.5,1.4-4.8,0L52.5,38c-1.4-1.4-1.4-3.5,0-4.8c1.4-1.4,3.5-1.4,4.8,0l25.6,25.6
			C84.3,60.1,84.3,62.2,82.9,63.6z"/>
	</g>
	<linearGradient id="SVGID_3_" gradientUnits="userSpaceOnUse" x1="146.5378" y1="20.7613" x2="146.5378" y2="93.9153">
		<stop  offset="0" style="stop-color:#E2202B"/>
		<stop  offset="0.1292" style="stop-color:#C8293C"/>
		<stop  offset="1" style="stop-color:#1B67AB"/>
	</linearGradient>
	<polygon class="st3" points="172.8,62.9 172.8,78.1 120.3,78.1 120.3,19.4 172.8,19.4 172.8,36.6 143.8,36.6 143.8,43.5 
		172.8,43.5 172.8,56.7 143.8,56.7 143.8,62.9 	"/>
	<linearGradient id="SVGID_4_" gradientUnits="userSpaceOnUse" x1="207.546" y1="20.7613" x2="207.546" y2="93.9153">
		<stop  offset="0" style="stop-color:#E2202B"/>
		<stop  offset="0.1292" style="stop-color:#C8293C"/>
		<stop  offset="1" style="stop-color:#1B67AB"/>
	</linearGradient>
	<path class="st4" d="M232.9,20.7V38c0,0-7.6-2.1-16.6-2.1s-11.8,0.7-11.8,4.1c0,3.5,3.5,3.5,12.4,3.5c9,0,13.8,1.4,16.6,7.6
		c2.8,6.2,2.1,18.7-4.8,22.8s-11.8,4.8-21.4,4.8c-9.7,0-24.9-2.1-24.9-2.1V62.2c0,0,9,1.4,16.6,1.4c7.6,0,11.1,0,11.1-3.5
		c0-3.5-4.1-3.5-4.1-3.5s-8.3,0-13.8-0.7c-6.2,0-11.1-6.9-11.8-11.8c-0.7-4.8-1.4-14.5,4.1-20.7c6.2-6.2,18.7-5.5,27.6-5.5
		C221.2,18,232.9,20.7,232.9,20.7z"/>
	<linearGradient id="SVGID_5_" gradientUnits="userSpaceOnUse" x1="477.9758" y1="20.7613" x2="477.9758" y2="93.9153">
		<stop  offset="0" style="stop-color:#E2202B"/>
		<stop  offset="0.1292" style="stop-color:#C8293C"/>
		<stop  offset="1" style="stop-color:#1B67AB"/>
	</linearGradient>
	<polygon class="st5" points="506.7,39.4 490.8,39.4 490.8,77.4 465.9,77.4 465.9,39.4 449.3,39.4 449.3,19.4 465.2,19.4 
		490.8,19.4 506.7,19.4 	"/>
	<linearGradient id="SVGID_6_" gradientUnits="userSpaceOnUse" x1="539.3297" y1="20.7613" x2="539.3297" y2="93.9153">
		<stop  offset="0" style="stop-color:#E2202B"/>
		<stop  offset="0.1292" style="stop-color:#C8293C"/>
		<stop  offset="1" style="stop-color:#1B67AB"/>
	</linearGradient>
	<path class="st6" d="M564.7,20.7V38c0,0-7.6-2.1-16.6-2.1s-11.8,0.7-11.8,4.1c0,3.5,3.5,3.5,12.4,3.5c9,0,13.8,1.4,16.6,7.6
		s2.1,18.7-4.8,22.8s-11.8,4.8-21.4,4.8c-9.7,0-24.9-2.1-24.9-2.1V62.2c0,0,9,1.4,16.6,1.4c7.6,0,11.1,0,11.1-3.5
		c0-3.5-4.1-3.5-4.1-3.5s-8.3,0-13.8-0.7c-6.2,0-11.1-6.9-11.8-11.8c-0.7-4.8-1.4-14.5,4.1-20.7C522.6,17.3,535,18,544,18
		C553,18.7,564.7,20.7,564.7,20.7z"/>
	<path d="M360.1,40.8c0.7,0.7,1.4,2.1,1.4,3.5c0,2.8-2.8,5.5-5.5,5.5c-1.4,0-2.8-0.7-4.1-1.4L360.1,40.8z"/>
	<path d="M325.6,40.8l7.6,7.6c-0.7,0.7-2.1,1.4-4.1,1.4c-2.8,0-5.5-2.1-5.5-5.5C323.5,43.5,324.2,42.2,325.6,40.8z"/>
	<path d="M311,56L311,56c-2.8,0-4.8-2.1-4.8-4.1v-6.2c0-2.8,2.1-4.1,4.1-4.1h0.7V56z"/>
	<path d="M314.5,57.4C314.5,58.1,313.8,58.1,314.5,57.4c-1.4,0.7-1.4,0-1.4,0V40.8c0-0.7,0.7-0.7,0.7-0.7c0.7,0,0.7,0.7,0.7,0.7
		L314.5,57.4z"/>
	<path class="st2" d="M360.1,40.8c0.7,0.7,1.4,2.1,1.4,3.5c0,2.8-2.8,5.5-5.5,5.5c-1.4,0-2.8-0.7-4.1-1.4L360.1,40.8z"/>
	<path class="st2" d="M325.6,40.8l7.6,7.6c-0.7,0.7-2.1,1.4-4.1,1.4c-2.8,0-5.5-2.1-5.5-5.5C323.5,43.5,324.2,42.2,325.6,40.8z"/>
	<path class="st2" d="M311,56L311,56c-2.8,0-4.8-2.1-4.8-4.1v-6.2c0-2.8,2.1-4.1,4.1-4.1h0.7V56z"/>
	<path class="st2" d="M371.2,65.7v-5.5h0.7h0.7C371.9,61.5,371.9,63.6,371.2,65.7z"/>
	<path class="st2" d="M379.5,51.8c0,2.8-2.1,4.1-4.1,4.1h-0.7V40.8h0.7c2.8,0,4.1,2.1,4.1,4.1V51.8z"/>
	<path class="st2" d="M371.2,65.7v-5.5h0.7h0.7C372.3,61.8,371.9,63.6,371.2,65.7z"/>
	<path class="st2" d="M379.5,51.8c0,2.8-2.1,4.1-4.1,4.1h-0.7V40.8h0.7c2.8,0,4.1,2.1,4.1,4.1V51.8z"/>
	<path class="st2" d="M314.5,40.8c0,0,0-0.7-0.7-0.7c0,0-0.7,0-0.7,0.7v16.6c0,0,0,0,0,0c0,0,0,0,0,0c0,0.4,0.3,0.7,0.7,0.7
		c0.4,0,0.7-0.3,0.7-0.7C314.5,57.4,314.5,40.8,314.5,40.8z"/>
	<path class="st2" d="M372.6,40.8c0,0,0-0.7-0.7-0.7c0,0-0.7,0-0.7,0.7v16.6c0,0,0,0,0,0c0,0,0,0,0,0c0,0.4,0.3,0.7,0.7,0.7
		c0.4,0,0.7-0.3,0.7-0.7C372.6,57.4,372.6,40.8,372.6,40.8z"/>
	<linearGradient id="SVGID_7_" gradientUnits="userSpaceOnUse" x1="270.976" y1="20.7613" x2="270.976" y2="93.9153">
		<stop  offset="0" style="stop-color:#E2202B"/>
		<stop  offset="0.1292" style="stop-color:#C8293C"/>
		<stop  offset="1" style="stop-color:#1B67AB"/>
	</linearGradient>
	<path class="st7" d="M299,51.8v-6.9c0-0.5,0-0.9,0-1.4c-5.5-2.3-12.7-8-14.5-19.5c-0.2-1.2-0.2-2.3-0.2-3.4c0-0.4,0.1-0.8,0.1-1.2
		h-17.7h-10.4h-13.8v58.1h23.5V61.5h19.4c6.5,0,10.5-3.1,13.9-7.5C299.2,53.3,299,52.6,299,51.8z M274.4,47.7h-8.3V35.3h8.3
		c2.8,0.7,5.5,2.8,5.5,6.9C279.9,45.6,277.2,47.7,274.4,47.7z"/>
	<linearGradient id="SVGID_8_" gradientUnits="userSpaceOnUse" x1="417.4944" y1="20.7613" x2="417.4944" y2="93.9153">
		<stop  offset="0" style="stop-color:#E2202B"/>
		<stop  offset="0.1292" style="stop-color:#C8293C"/>
		<stop  offset="1" style="stop-color:#1B67AB"/>
	</linearGradient>
	<path class="st8" d="M426.5,53.2h1.4c9,0,15.9-6.9,15.9-15.9v-2.1c0-9-6.9-15.9-15.9-15.9h-22.8h-5.6c0,0.1,0,0.2,0,0.3
		c0,1.4-0.1,2.8-0.4,4.3c-0.2,1.6-0.5,3.1-0.9,4.6c-1.6,6.2-5,9.8-8.2,11.9c-1.6,1.2-3.3,2.2-4.9,2.8v3.1v4.1v2.8
		c0,2.8-1.4,4.8-4.1,6.2v18h23.5V61.5l49.8,31.8L426.5,53.2z M414,47h-8.3V35.3h8.3c2.8,0,5.5,2.8,5.5,6.2
		C419.6,44.9,416.8,47,414,47z"/>
	<path class="st2" d="M342.2,60.1c-10.4,0-19.4,2.1-26.3,5.5v2.1c0,7.6,6.2,13.1,13.1,13.1h26.3c6.2,0,11.1-4.1,12.4-9
		c-2.1,0.7-3.5,1.4-5.5,1.4c0,0.7-1.4,1.4-2.1,1.4H358c-0.7,0-2.1-0.7-2.1-2.1c0-0.7,0.7-2.1,2.1-2.1h2.1c0.7,0,2.1,0.7,2.1,1.4
		c2.1,0,4.1-0.7,5.5-2.1l0.7-0.7c0,0,0-0.7,0-1.4v-2.1C361.5,62.1,352.5,60.1,342.2,60.1z M336,72.8c-1.2,0-2.2-1-2.2-2.2
		c0-1.2,1-2.2,2.2-2.2c1.2,0,2.2,1,2.2,2.2C338.2,71.8,337.2,72.8,336,72.8z M349.1,72.8c-1.2,0-2.2-1-2.2-2.2c0-1.2,1-2.2,2.2-2.2
		c1.2,0,2.2,1,2.2,2.2C351.2,71.8,350.3,72.8,349.1,72.8z"/>
</g>
</svg>
