<?xml version="1.0" encoding="utf-8"?>
<!-- Generator: Adobe Illustrator 22.0.1, SVG Export Plug-In . SVG Version: 6.00 Build 0)  -->
<svg version="1.1" id="Layer_1" xmlns="http://www.w3.org/2000/svg" xmlns:xlink="http://www.w3.org/1999/xlink" x="0px" y="0px"
	 viewBox="0 0 100 100" style="enable-background:new 0 0 100 100;" xml:space="preserve">
<style type="text/css">
	.st0{fill:#FF0000;}
</style>
<g>
	<path class="st0" d="M48.714,79.722C32.881,79.722,20,66.841,20,51.008c0-15.833,12.881-28.714,28.714-28.714
		c2.74,0,5.45,0.386,8.055,1.146c0.885,0.258,1.393,1.184,1.135,2.069c-0.258,0.885-1.184,1.393-2.069,1.135
		c-2.302-0.672-4.698-1.012-7.121-1.012c-13.992,0-25.377,11.384-25.377,25.377c0,13.993,11.384,25.377,25.377,25.377
		c13.993,0,25.377-11.384,25.377-25.377c0-2.121-0.262-4.228-0.778-6.263c-0.227-0.893,0.314-1.801,1.207-2.028
		c0.892-0.228,1.801,0.313,2.028,1.207c0.585,2.303,0.881,4.687,0.881,7.084C77.428,66.841,64.547,79.722,48.714,79.722z"/>
	<path class="st0" d="M70.545,39.189c-0.921,0-1.669-0.747-1.669-1.669V21.947c0-0.921,0.747-1.669,1.669-1.669
		s1.669,0.747,1.669,1.669V37.52C72.213,38.442,71.466,39.189,70.545,39.189z"/>
	<path class="st0" d="M78.331,31.402H62.758c-0.921,0-1.669-0.747-1.669-1.669c0-0.921,0.747-1.669,1.669-1.669h15.573
		c0.921,0,1.669,0.747,1.669,1.669C80,30.655,79.253,31.402,78.331,31.402z"/>
	<g>
		<path d="M37.304,61.184V46.266c-2.776,2.131-4.646,3.196-5.606,3.196c-0.459,0-0.866-0.183-1.222-0.549s-0.533-0.79-0.533-1.271
			c0-0.558,0.175-0.967,0.525-1.229c0.35-0.262,0.967-0.601,1.853-1.017c1.322-0.623,2.379-1.278,3.172-1.967
			c0.792-0.688,1.494-1.459,2.106-2.311c0.611-0.853,1.011-1.377,1.196-1.574c0.186-0.197,0.535-0.295,1.05-0.295
			c0.579,0,1.043,0.224,1.394,0.672c0.35,0.448,0.524,1.065,0.524,1.853v18.771c0,2.196-0.749,3.295-2.246,3.295
			c-0.667,0-1.202-0.225-1.606-0.673C37.506,62.72,37.304,62.059,37.304,61.184z"/>
		<path d="M47.339,45.496c0-1.093,0.298-2.123,0.894-3.09c0.595-0.967,1.47-1.74,2.623-2.32c1.152-0.579,2.5-0.869,4.041-0.869
			c1.301,0,2.443,0.169,3.426,0.508c0.984,0.339,1.803,0.806,2.459,1.401c0.656,0.596,1.143,1.268,1.459,2.017
			s0.477,1.544,0.477,2.385c0,1.071-0.277,2.027-0.828,2.869c-0.553,0.842-1.375,1.53-2.467,2.065
			c0.928,0.361,1.699,0.834,2.311,1.419c0.611,0.584,1.074,1.262,1.385,2.032c0.313,0.771,0.467,1.626,0.467,2.565
			c0,1.378-0.332,2.626-1,3.746c-0.666,1.12-1.645,1.998-2.934,2.631c-1.289,0.634-2.809,0.951-4.557,0.951
			c-1.814,0-3.367-0.317-4.657-0.951c-1.289-0.633-2.262-1.505-2.918-2.614c-0.655-1.109-0.983-2.353-0.983-3.729
			c0-2.94,1.388-4.956,4.164-6.05C48.459,49.414,47.339,47.758,47.339,45.496z M59.094,56.348c0-0.853-0.176-1.596-0.525-2.229
			s-0.842-1.12-1.475-1.459c-0.635-0.339-1.346-0.509-2.131-0.509c-1.115,0-2.051,0.372-2.805,1.115s-1.131,1.781-1.131,3.115
			c0,0.853,0.178,1.604,0.533,2.254s0.838,1.153,1.451,1.508c0.611,0.355,1.295,0.533,2.049,0.533c0.766,0,1.453-0.181,2.064-0.541
			c0.613-0.36,1.094-0.869,1.443-1.524C58.918,57.955,59.094,57.201,59.094,56.348z M54.994,42.348
			c-1.027,0-1.855,0.319-2.482,0.959c-0.629,0.639-0.943,1.461-0.943,2.467c0,0.929,0.322,1.703,0.967,2.32
			c0.645,0.618,1.477,0.926,2.492,0.926c0.514,0,0.98-0.082,1.402-0.246c0.42-0.164,0.781-0.391,1.082-0.68s0.531-0.634,0.695-1.033
			s0.246-0.839,0.246-1.32c0-0.645-0.145-1.224-0.434-1.737s-0.697-0.918-1.221-1.213C56.273,42.496,55.672,42.348,54.994,42.348z"
			/>
	</g>
</g>
</svg>
