<?xml version="1.0" encoding="utf-8"?>
<!-- Generator: Adobe Illustrator 22.0.1, SVG Export Plug-In . SVG Version: 6.00 Build 0)  -->
<svg version="1.1" id="Layer_1" xmlns="http://www.w3.org/2000/svg" xmlns:xlink="http://www.w3.org/1999/xlink" x="0px" y="0px"
	 viewBox="0 0 100 100" style="enable-background:new 0 0 100 100;" xml:space="preserve">
<style type="text/css">
	.st0{fill:none;stroke:#757575;stroke-width:3;stroke-miterlimit:10;}
	.st1{fill:#757575;}
</style>
<g>
	<circle class="st0" cx="50" cy="50" r="30"/>
	<g>
		<path class="st1" d="M32.3,44.2l-3.9,3.2l-2-2.3l6.2-5h3.1v19.8h-3.4V44.2z"/>
		<path class="st1" d="M54.4,45c0,2.3-1.3,3.9-3.1,4.5v0.1c2.1,0.5,3.7,2.4,3.7,4.8c0,3.9-3.1,6.1-6.9,6.1c-3.8,0-6.9-2.2-6.9-6.1
			c0-2.6,1.8-4.3,3.7-4.8v-0.1c-1.8-0.6-3.1-2-3.1-4.3c0-3.4,2.8-5.5,6.3-5.5C51.6,39.6,54.4,41.6,54.4,45z M44.7,54.3
			c0,2.1,1.5,3.3,3.4,3.3c1.9,0,3.4-1.2,3.4-3.3c0-2-1.5-3.4-3.4-3.4C46.2,50.9,44.7,52.3,44.7,54.3z M45.3,45.2
			c0,1.6,1.1,2.9,2.9,2.9c1.6,0,2.9-1.3,2.9-2.9c0-1.7-1.4-2.8-2.9-2.8C46.5,42.4,45.3,43.4,45.3,45.2z"/>
		<path class="st1" d="M64.6,50v-6.2h2.9V50h6.2v2.9h-6.2V59h-2.9v-6.2h-6.2V50H64.6z"/>
	</g>
</g>
</svg>
