<?xml version="1.0" encoding="utf-8"?>
<!-- Generator: Adobe Illustrator 22.0.1, SVG Export Plug-In . SVG Version: 6.00 Build 0)  -->
<svg version="1.1" id="Layer_1" xmlns="http://www.w3.org/2000/svg" xmlns:xlink="http://www.w3.org/1999/xlink" x="0px" y="0px"
	 viewBox="0 0 105 100" style="enable-background:new 0 0 105 100;" xml:space="preserve">
<style type="text/css">
	.st0{fill:#004A98;}
</style>
<g>
	<path class="st0" d="M52,56.7c-2.6-0.1-4.5-1.4-4.5-2.6c0-0.6,0.5-1.5,1.2-1.5c0.8,0,1.4,1.4,3.3,1.6V50c-1.9-0.7-4.1-1.6-4.1-4.3
		c0-2.7,2-3.9,4.1-4.1V41c0-0.3,0.3-0.5,0.7-0.5c0.4,0,0.7,0.3,0.7,0.5v0.6c1.4,0,3.6,0.4,3.6,1.7c0,0.5-0.3,1.5-1.1,1.5
		c-0.6,0-1.1-0.7-2.5-0.8v3.7c1.9,0.7,4,1.7,4,4.5c0,2.6-1.6,4.1-4,4.5v0.7c0,0.3-0.4,0.5-0.7,0.5c-0.4,0-0.7-0.3-0.7-0.5V56.7z
		 M52.2,47.2V44c-1.1,0.2-1.7,0.7-1.7,1.5C50.5,46.4,51.2,46.8,52.2,47.2 M53.3,50.5v3.7c0.9-0.2,1.6-0.7,1.6-1.7
		C54.9,51.4,54.2,50.9,53.3,50.5"/>
	<path class="st0" d="M26.4,80c-0.8,0-1.5-0.7-1.5-1.5V35.9h-3.6c-0.5,0-0.9-0.2-1.2-0.6c-0.3-0.4-0.4-0.9-0.3-1.3l3.5-12.8
		c0.2-0.7,0.8-1.1,1.5-1.1h55.5c0.7,0,1.3,0.5,1.5,1.1L85.2,34c0.1,0.4,0,0.9-0.3,1.3c-0.3,0.4-0.7,0.6-1.2,0.6h-3.6v42.6
		c0,0.8-0.7,1.5-1.5,1.5H26.4z M68.7,77h8.4V35.9h-8.4V77z M59,60.2c0.8,0,1.5,0.7,1.5,1.5V77h5.2V42.2l-13.2-5.4l-13.2,5.4V77h5.2
		V61.7c0-0.8,0.7-1.5,1.5-1.5H59z M27.9,77h8.4l0-35.4l0-0.1l0-0.2l0-5.4h-8.4V77z M47.5,76.5h10V63.2h-10V76.5z M52.5,33.7
		c0.2,0,0.4,0,0.6,0.1L65.7,39v-7.9l-13.2-7.2l-13.2,7.2V39l12.7-5.2C52.1,33.8,52.3,33.7,52.5,33.7z M58.7,23.8l9.3,5
		c0.5,0.3,0.8,0.8,0.8,1.3v2.7h13L79.1,23H58.9L58.7,23.8z M23.3,32.8h13v-2.7c0-0.6,0.3-1.1,0.8-1.3l9.3-5L46.1,23H25.9L23.3,32.8z
		"/>
</g>
</svg>
