<?xml version="1.0" encoding="utf-8"?>
<!-- Generator: Adobe Illustrator 22.0.1, SVG Export Plug-In . SVG Version: 6.00 Build 0)  -->
<svg version="1.1" id="Layer_1" xmlns="http://www.w3.org/2000/svg" xmlns:xlink="http://www.w3.org/1999/xlink" x="0px" y="0px"
	 viewBox="0 0 100 100" style="enable-background:new 0 0 100 100;" xml:space="preserve">
<style type="text/css">
	.st0{fill:#F7931A;}
	.st1{fill:#FFFFFF;}
</style>
<g>
	<path class="st0" d="M79.102,57.257C75.095,73.332,58.815,83.112,42.74,79.106c-16.068-4.008-25.851-20.288-21.841-36.36
		c4.005-16.077,20.285-25.858,36.355-21.851C73.328,24.902,83.109,41.184,79.102,57.257z"/>
	<path class="st1" d="M65.204,45.912c0.656-4.383-2.681-6.74-7.245-8.312l1.481-5.937l-3.614-0.901l-1.442,5.781
		c-0.95-0.237-1.926-0.46-2.894-0.681l1.451-5.82l-3.612-0.901l-1.481,5.936c-0.787-0.179-1.559-0.356-2.308-0.542l0.004-0.019
		l-4.984-1.245l-0.962,3.86c0,0,2.682,0.614,2.625,0.652c1.465,0.365,1.729,1.334,1.685,2.102l-1.687,6.764
		c0.102,0.026,0.232,0.064,0.376,0.121c-0.121-0.03-0.249-0.063-0.382-0.095l-2.363,9.476c-0.179,0.444-0.633,1.111-1.656,0.858
		c0.035,0.052-2.628-0.656-2.628-0.656l-1.795,4.139l4.704,1.173c0.875,0.219,1.732,0.448,2.577,0.665l-1.496,6.006l3.61,0.901
		l1.481-5.943c0.986,0.268,1.943,0.515,2.88,0.749l-1.476,5.913l3.614,0.901l1.496-5.994c6.163,1.166,10.798,0.696,12.748-4.878
		c1.572-4.488-0.078-7.077-3.321-8.766C62.952,50.675,64.73,49.121,65.204,45.912z M56.947,57.492
		c-1.117,4.488-8.674,2.063-11.125,1.454l1.985-7.957C50.257,51.6,58.114,52.812,56.947,57.492z M58.065,45.848
		c-1.019,4.083-7.31,2.009-9.349,1.5l1.799-7.217C52.555,40.639,59.126,41.589,58.065,45.848z"/>
</g>
</svg>
