<?xml version="1.0" encoding="utf-8"?>
<!-- Generator: Adobe Illustrator 22.0.1, SVG Export Plug-In . SVG Version: 6.00 Build 0)  -->
<svg version="1.1" id="Layer_1" xmlns="http://www.w3.org/2000/svg" xmlns:xlink="http://www.w3.org/1999/xlink" x="0px" y="0px"
	 viewBox="0 0 311 100" style="enable-background:new 0 0 311 100;" xml:space="preserve">
<style type="text/css">
	.st0{fill:#E30613;}
	.st1{fill:#0064B0;}
	.st2{fill:#9F9F9F;}
</style>
<g>
	<path class="st0" d="M228.8,34.5C228.9,34.5,228.9,34.5,228.8,34.5L228.8,34.5L228.8,34.5L228.8,34.5z M252.4,40.5L252.4,40.5
		c-0.3-1.4-0.9-2.6-1.8-3.7l0,0c-1.2-1.4-2.8-2.3-4.8-2.8c-1.9-0.5-4.6-0.7-8.3-0.7c-4.1,0-6.7,0.5-8.6,1.2c-0.8,0.3-1.7,1-2.4,1.6
		v-1.4h-5.3v27.7h5.3V44.8c0-4.6,4.7-6.4,9.4-6.4h2.3c4.7,0,9.4,1.8,9.4,6.4v17.6h5.2V47.3C252.9,43.8,252.7,41.7,252.4,40.5
		L252.4,40.5z"/>
	<path class="st0" d="M163,33.2h5.3c0.1-2.8,0.2-5.5,0.5-6.8c0.2-1.2,0.8-2.3,1.6-3.1c0.9-1.1,2.2-1.9,3.9-2.5
		c1.6-0.4,4.3-0.8,7.9-0.9l5,0l-4.8,4.7c-0.2,0-1.9,0-2,0c-7,0-6.5,4.5-6.5,8.5h12.4l-5,5.1h-7.5l0,24.1h-5.3V38.3H163V33.2
		L163,33.2z"/>
	<polygon class="st0" points="157.7,24.1 157.7,29.5 163,29.5 163,24.1 157.7,24.1 	"/>
	<path class="st1" d="M169.5,72.7c0.4-0.7,1.4-1.1,2.9-1.1c0.8,0,1.4,0.1,1.9,0.3c0.5,0.2,0.8,0.5,1,0.8c0.5-0.7,1.5-1.1,3.2-1.1
		c0.7,0,1.2,0.1,1.6,0.2c0.4,0.1,0.8,0.3,1,0.5c0.2,0.2,0.4,0.4,0.5,0.7c0.1,0.3,0.1,0.6,0.1,0.9v4.4h-1.4V74c0-0.4-0.1-0.8-0.2-1
		c-0.1-0.2-0.3-0.4-0.6-0.5c-0.3-0.1-0.7-0.1-1.2-0.1c-0.6,0-1,0-1.4,0.1c-0.4,0.1-0.7,0.2-1,0.5c-0.3,0.3-0.4,0.6-0.4,1.1v4.2h-1.3
		v-4.4c0-0.4-0.1-0.7-0.2-0.9c-0.1-0.2-0.3-0.4-0.6-0.4c-0.3-0.1-0.7-0.1-1.3-0.1c-0.8,0-1.5,0.1-2,0.4c-0.5,0.3-0.7,0.8-0.7,1.5
		v3.9h-1.4v-6.6h1.4L169.5,72.7L169.5,72.7L169.5,72.7z"/>
	<path class="st1" d="M189.7,71.7c0.5,0.1,1,0.2,1.3,0.5c0.4,0.3,0.6,0.6,0.7,1.1c0.1,0.5,0.1,1.1,0.1,1.8c0,0.7-0.1,1.2-0.2,1.7
		c-0.1,0.5-0.4,0.8-0.8,1.1c-0.3,0.2-0.8,0.3-1.3,0.4c-0.5,0.1-1.2,0.1-2,0.1c-0.8,0-1.5-0.1-2-0.2c-0.5-0.1-1-0.3-1.2-0.6
		c-0.4-0.4-0.6-1.2-0.6-2.4c0-0.7,0-1.3,0.1-1.8c0.1-0.5,0.2-0.8,0.5-1.1c0.3-0.3,0.7-0.5,1.2-0.6c0.5-0.1,1.1-0.2,1.9-0.2
		C188.5,71.6,189.2,71.6,189.7,71.7L189.7,71.7z M187.4,72.4L187.4,72.4c-0.8,0-1.4,0.1-1.7,0.4c-0.2,0.2-0.3,0.4-0.4,0.7
		c-0.1,0.3-0.1,0.7-0.1,1.2c0,0.1,0,0.2,0,0.3c0,0.2,0,0.3,0,0.4c0,0.5,0.1,0.8,0.1,1.1c0.1,0.3,0.2,0.5,0.3,0.7
		c0.2,0.2,0.5,0.3,0.9,0.4c0.4,0.1,0.9,0.1,1.4,0.1c0.5,0,0.9,0,1.3-0.1c0.4,0,0.6-0.2,0.8-0.3c0.3-0.3,0.5-0.9,0.5-1.8v-0.5
		c0-0.5,0-1-0.1-1.4c-0.1-0.4-0.2-0.6-0.4-0.8c-0.2-0.2-0.5-0.3-0.8-0.3c-0.4-0.1-0.8-0.1-1.4-0.1H187.4L187.4,72.4z"/>
	<polygon class="st1" points="188.6,78.9 188.6,80 187.2,80 187.2,78.9 188.6,78.9 	"/>
	<path class="st1" d="M195.3,69.4v1.1h-1.4v-1.1H195.3L195.3,69.4z M195.3,71.6L195.3,71.6v6.6h-1.4v-6.6H195.3L195.3,71.6z"/>
	<polygon class="st1" points="202.5,68.8 202.5,78.3 201.1,78.3 201.1,68.8 202.5,68.8 	"/>
	<path class="st1" d="M210.9,77.4c-0.2,0.4-0.6,0.6-1.1,0.7c-0.5,0.1-1.1,0.2-1.8,0.2c-1.1,0-1.9-0.2-2.4-0.5
		c-0.5-0.4-0.8-0.9-0.8-1.7v-4.5h1.4V76c0,0.4,0,0.7,0.1,0.8c0.1,0.2,0.2,0.3,0.3,0.4c0.3,0.2,0.8,0.3,1.7,0.3c0.4,0,0.7,0,0.9-0.1
		c0.2,0,0.5-0.1,0.7-0.1c0.2-0.1,0.4-0.2,0.6-0.3c0.3-0.2,0.5-0.7,0.5-1.4v-4h1.4v6.6H211L210.9,77.4L210.9,77.4L210.9,77.4z"/>
	<polygon class="st1" points="209.3,69 210.2,69.2 208.6,71.4 208,71.2 209.3,69 	"/>
	<path class="st1" d="M220.8,73.7c0-0.2,0-0.4-0.1-0.6c-0.1-0.2-0.2-0.4-0.3-0.4c-0.3-0.2-0.9-0.3-1.8-0.3h-0.3
		c-0.5,0-0.9,0-1.1,0.1c-0.3,0.1-0.5,0.2-0.7,0.3c-0.2,0.1-0.3,0.3-0.4,0.6c-0.1,0.3-0.1,0.6-0.1,1c0,0.1,0,0.3,0,0.5
		c0,0.3,0,0.6,0,0.8c0,0.4,0.1,0.7,0.2,1c0.1,0.2,0.2,0.4,0.4,0.6c0.3,0.2,1,0.3,2.1,0.3c0.6,0,1.1,0,1.3-0.1c0.3,0,0.5-0.1,0.7-0.2
		c0.3-0.2,0.4-0.5,0.4-1.1v-0.2h1.3v0.3c0,0.7-0.2,1.3-0.7,1.6c-0.6,0.4-1.6,0.6-3.2,0.6c-0.6,0-1,0-1.3-0.1c-0.3,0-0.7-0.1-1-0.2
		c-0.3-0.1-0.6-0.2-0.8-0.4c-0.4-0.3-0.6-0.6-0.7-0.9c-0.1-0.4-0.2-0.9-0.2-1.8c0-0.6,0-1,0.1-1.3c0-0.3,0.1-0.6,0.2-0.8
		c0.1-0.2,0.3-0.4,0.5-0.6c0.3-0.2,0.6-0.4,0.9-0.5c0.4-0.1,0.7-0.2,1.1-0.2c0.4,0,0.8,0,1.3,0c0.6,0,1.1,0,1.6,0.1
		c0.5,0.1,0.8,0.2,1.1,0.3c0.4,0.2,0.6,0.5,0.7,0.8c0.1,0.3,0.2,0.7,0.2,1h-1.4V73.7L220.8,73.7z"/>
	<polygon class="st1" points="231,75.3 226.5,75.3 226.5,74.3 231,74.3 231,75.3 	"/>
	<path class="st1" d="M237,72.7c0.4-0.7,1.4-1.1,2.9-1.1c0.8,0,1.4,0.1,1.9,0.3c0.5,0.2,0.8,0.5,1,0.8c0.5-0.7,1.5-1.1,3.2-1.1
		c0.7,0,1.2,0.1,1.6,0.2c0.4,0.1,0.8,0.3,1,0.5c0.2,0.2,0.4,0.4,0.5,0.7c0.1,0.3,0.1,0.6,0.1,0.9v4.4h-1.4V74c0-0.4-0.1-0.8-0.2-1
		c-0.1-0.2-0.3-0.4-0.6-0.5c-0.3-0.1-0.7-0.1-1.2-0.1c-0.6,0-1,0-1.4,0.1c-0.4,0.1-0.7,0.2-1,0.5c-0.3,0.3-0.4,0.6-0.4,1.1v4.2h-1.3
		v-4.4c0-0.4-0.1-0.7-0.2-0.9c-0.1-0.2-0.3-0.4-0.6-0.4c-0.3-0.1-0.7-0.1-1.3-0.1c-0.8,0-1.5,0.1-2,0.4c-0.5,0.3-0.7,0.8-0.7,1.5
		v3.9h-1.4v-6.6h1.4L237,72.7L237,72.7L237,72.7z"/>
	<path class="st1" d="M257.2,71.7c0.5,0.1,1,0.2,1.3,0.5c0.4,0.3,0.6,0.6,0.7,1.1c0.1,0.5,0.1,1.1,0.1,1.8c0,0.7,0,1.2-0.2,1.7
		c-0.1,0.5-0.4,0.8-0.8,1.1c-0.3,0.2-0.8,0.3-1.3,0.4c-0.5,0.1-1.2,0.1-2,0.1c-0.8,0-1.5-0.1-2-0.2c-0.5-0.1-1-0.3-1.2-0.6
		c-0.4-0.4-0.6-1.2-0.6-2.4c0-0.7,0-1.3,0.1-1.8c0.1-0.5,0.2-0.8,0.5-1.1c0.3-0.3,0.7-0.5,1.2-0.6c0.5-0.1,1.1-0.2,1.9-0.2
		C256,71.6,256.7,71.6,257.2,71.7L257.2,71.7z M254.9,72.4L254.9,72.4c-0.8,0-1.4,0.1-1.7,0.4c-0.2,0.2-0.3,0.4-0.4,0.7
		c-0.1,0.3-0.1,0.7-0.1,1.2c0,0.1,0,0.2,0,0.3c0,0.2,0,0.3,0,0.4c0,0.5,0.1,0.8,0.1,1.1c0.1,0.3,0.2,0.5,0.3,0.7
		c0.2,0.2,0.5,0.3,0.9,0.4c0.4,0.1,0.9,0.1,1.4,0.1c0.5,0,0.9,0,1.3-0.1c0.4,0,0.6-0.2,0.8-0.3c0.3-0.3,0.5-0.9,0.5-1.8v-0.5
		c0-0.5,0-1-0.1-1.4c0-0.4-0.2-0.6-0.4-0.8c-0.2-0.2-0.5-0.3-0.8-0.3c-0.4-0.1-0.8-0.1-1.4-0.1H254.9L254.9,72.4z"/>
	<polygon class="st1" points="256.1,78.9 256.1,80 254.7,80 254.7,78.9 256.1,78.9 	"/>
	<path class="st1" d="M262.8,69.4v1.1h-1.4v-1.1H262.8L262.8,69.4z M262.8,71.6L262.8,71.6v6.6h-1.4v-6.6H262.8L262.8,71.6z"/>
	<path class="st1" d="M270,72.4c0.1-0.2,0.3-0.4,0.6-0.5c0.3-0.1,0.6-0.2,0.9-0.3c0.3,0,0.7-0.1,1.1-0.1c0.9,0,1.6,0.1,2.1,0.2
		c0.5,0.2,0.9,0.4,1.1,0.7c0.2,0.3,0.3,0.7,0.3,1.3v4.5H275v-4.5c0-0.4-0.1-0.7-0.2-0.9c-0.2-0.2-0.4-0.3-0.7-0.4
		c-0.3-0.1-0.7-0.1-1.3-0.1c-0.5,0-1,0-1.3,0.1c-0.3,0.1-0.6,0.2-0.9,0.3c-0.4,0.3-0.6,0.8-0.6,1.5v3.9h-1.3v-6.6h1.3L270,72.4
		L270,72.4L270,72.4z"/>
	<path class="st1" d="M282.2,71.6c0.9,0,1.6,0,2.1,0.1c0.5,0.1,1,0.2,1.3,0.5c0.4,0.3,0.6,0.6,0.7,1.1c0.7,0,0.6-1,0.6-1.2h1.1
		c-0.1,1.5-0.9,1.9-1.6,1.9c0,0.4,0,0.6,0,1c0,0.7-0.1,1.2-0.2,1.7c-0.1,0.5-0.4,0.8-0.8,1.1c-0.3,0.2-0.8,0.3-1.3,0.4
		c-0.5,0.1-1.2,0.1-2,0.1c-0.8,0-1.5-0.1-2-0.2c-0.5-0.1-1-0.3-1.2-0.6c-0.4-0.4-0.6-1.2-0.6-2.4c0-0.7,0-1.3,0.1-1.8
		c0.1-0.5,0.2-0.8,0.5-1.1c0.3-0.3,0.7-0.5,1.2-0.6C280.8,71.6,281.4,71.6,282.2,71.6L282.2,71.6L282.2,71.6z M282,72.4L282,72.4
		c-0.8,0-1.4,0.1-1.7,0.4c-0.2,0.2-0.3,0.4-0.4,0.7c-0.1,0.3-0.1,0.7-0.1,1.2c0,0.1,0,0.2,0,0.3c0,0.2,0,0.3,0,0.4
		c0,0.5,0.1,0.8,0.1,1.1c0.1,0.3,0.2,0.5,0.3,0.7c0.2,0.2,0.5,0.3,0.9,0.4c0.4,0.1,0.9,0.1,1.4,0.1c0.5,0,0.9,0,1.3-0.1
		c0.4,0,0.6-0.2,0.8-0.3c0.3-0.3,0.5-0.9,0.5-1.8v-0.5c0-0.5,0-1-0.1-1.4c0-0.4-0.2-0.6-0.4-0.8c-0.2-0.2-0.5-0.3-0.8-0.3
		c-0.4-0.1-0.8-0.1-1.4-0.1H282L282,72.4z"/>
	<path class="st1" d="M289.9,69.4v1.1h-1.4v-1.1H289.9L289.9,69.4z M289.9,71.6L289.9,71.6v6.6h-1.4v-6.6H289.9L289.9,71.6z"/>
	<path class="st1" d="M116.8,47.8c0,3.3-0.4,6-1.1,8c-0.8,2.1-3.4,6.9-16.2,6.9c-12.8,0-15.4-4.8-16.2-6.9c-0.8-2-1.1-4.7-1.1-8
		c0-3.3,0.4-6,1.1-8c0.8-2.1,3.4-6.9,16.2-6.9c12.8,0,15.4,4.8,16.2,6.9C116.4,41.8,116.8,44.5,116.8,47.8L116.8,47.8z M110.1,41.5
		L110.1,41.5c-0.5-1.2-1.3-2-2.7-2.4c-1.4-0.4-3.8-0.7-8-0.8c-4.2,0.1-6.6,0.3-8,0.8c-1.3,0.5-2.2,1.2-2.7,2.4
		c-0.4,0.9-0.8,3.2-0.8,6.4c0,3.2,0.4,5.5,0.8,6.4c0.5,1.2,1.3,2,2.7,2.4c1.4,0.4,3.8,0.7,8,0.8c4.2-0.1,6.6-0.3,8-0.8
		c1.3-0.5,2.2-1.2,2.7-2.4c0.4-0.9,0.8-3.2,0.8-6.4C110.9,44.6,110.5,42.4,110.1,41.5L110.1,41.5z"/>
	<path class="st0" d="M217.3,47.8c0,3.3-0.4,6-1.1,8c-0.8,2.1-3.4,6.9-16.2,6.9c-12.8,0-15.4-4.8-16.2-6.9c-0.8-2-1.1-4.7-1.1-8
		c0-3.3,0.4-6,1.1-8c0.8-2.1,3.4-6.9,16.2-6.9c12.8,0,15.4,4.8,16.2,6.9C216.9,41.8,217.3,44.5,217.3,47.8L217.3,47.8z M210.6,41.5
		L210.6,41.5c-0.5-1.2-1.3-2-2.7-2.4c-1.4-0.4-3.8-0.7-8-0.8c-4.2,0.1-6.6,0.3-8,0.8c-1.3,0.5-2.2,1.2-2.7,2.4
		c-0.4,0.9-0.8,3.2-0.8,6.4c0,3.2,0.4,5.5,0.8,6.4c0.5,1.2,1.3,2,2.7,2.4c1.4,0.4,3.8,0.7,8,0.8c4.2-0.1,6.6-0.3,8-0.8
		c1.3-0.5,2.2-1.2,2.7-2.4c0.4-0.9,0.8-3.2,0.8-6.4C211.4,44.6,211,42.4,210.6,41.5L210.6,41.5z"/>
	<polygon class="st2" points="114.8,60.3 114.8,60.3 114.8,60.3 114.8,60.3 	"/>
	<path class="st1" d="M54,34.3C54,34.3,54,34.3,54,34.3L54,34.3L54,34.3L54,34.3z M54,34.3L54,34.3L54,34.3L54,34.3
		C54,34.3,54,34.3,54,34.3L54,34.3z M77.9,40.4L77.9,40.4c-0.3-1.4-0.9-2.6-1.9-3.7l0,0c-1.2-1.4-2.8-2.3-4.8-2.8
		c-1.9-0.5-4.6-0.7-8.3-0.7c-4.1,0-6.9,0.3-8.8,1l0,0c0,0,0,0,0,0c-1.6,0.6-2.9,1.6-3.8,3c-1.1-1.5-2.5-2.5-4.2-3.1
		c-2-0.7-5.6-1-10.2-1c-3.4,0-5.8,0.2-7.2,0.7l0,0c-1.1,0.4-2.1,1.1-3.1,2.1c0-0.9,0-1.4,0-1.4h-5.3v27.7h5.3V44.7
		c0-4.6,4.7-6.4,9.4-6.4h2.4c4.7,0,9.4,1.8,9.4,6.4v17.6h5.3V44.7c0-4.6,4.6-6.4,9.3-6.4h2.4c4.7,0,9.4,1.8,9.4,6.4v17.6h5.3V47.2
		C78.3,43.8,78.1,41.7,77.9,40.4L77.9,40.4z"/>
	<path class="st0" d="M288.2,49.9h2.7c0-0.6,0.1-1.3,0.1-2c0-3.3-0.4-6-1.1-8c-0.8-2.1-3.4-6.9-16.2-6.9c-12.8,0-15.4,4.8-16.2,6.9
		c-0.8,2-1.1,4.7-1.1,8c0,3.3,0.4,6,1.1,8c0.8,2.1,3.4,6.9,16.2,6.9c12.8,0,15.4-4.8,16.2-6.9c0.1-0.2,0.1-0.4,0.2-0.6h-6.4
		c-0.5,0.6-1.2,1-2,1.3c-1.4,0.4-3.8,0.7-8,0.8c-4.2-0.1-6.6-0.3-8-0.8c-1.3-0.5-2.2-1.2-2.7-2.4c-0.3-0.7-0.6-2.2-0.8-4.3
		L288.2,49.9L288.2,49.9L288.2,49.9z M265.6,39L265.6,39c1.4-0.4,3.8-0.7,8-0.8c4.2,0.1,6.6,0.3,8,0.8c1.3,0.5,2.2,1.2,2.7,2.4
		c0.3,0.6,0.5,1.8,0.7,3.4h-22.7c0.2-1.6,0.4-2.8,0.7-3.4C263.4,40.3,264.3,39.5,265.6,39L265.6,39z"/>
	<polygon class="st1" points="157.7,33.2 157.7,62.3 163,62.3 163,33.2 157.7,33.2 	"/>
	<path class="st1" d="M152.8,39.8c-0.8-2.1-3.4-6.9-16.2-6.9c-4.9,0-8.3,0.7-10.7,1.7V20h-5.3v42.4h5.3v-1.3c2.4,1,5.8,1.7,10.7,1.7
		c12.8,0,15.4-4.8,16.2-6.9c0.8-2,1.1-4.7,1.1-8C153.9,44.5,153.5,41.8,152.8,39.8L152.8,39.8z M147.2,54.2L147.2,54.2
		c-0.5,1.2-1.3,2-2.7,2.4c-1.4,0.4-3.8,0.7-8,0.8c-4.2-0.1-5.9-0.3-7.2-0.8c-1.3-0.5-2.2-1.2-2.7-2.4c-0.3-0.7-0.7-2.3-0.8-4.5V46
		c0.1-2.2,0.5-3.8,0.8-4.5c0.5-1.2,1.3-2,2.7-2.4c1.4-0.4,3-0.7,7.2-0.8c4.2,0.1,6.6,0.3,8,0.8c1.3,0.5,2.2,1.2,2.7,2.4
		c0.4,0.9,0.8,3.2,0.8,6.4C148.1,51.1,147.6,53.3,147.2,54.2L147.2,54.2z"/>
</g>
</svg>
