<?xml version="1.0" encoding="utf-8"?>
<!-- Generator: Adobe Illustrator 22.0.1, SVG Export Plug-In . SVG Version: 6.00 Build 0)  -->
<svg version="1.1" id="Layer_1" xmlns="http://www.w3.org/2000/svg" xmlns:xlink="http://www.w3.org/1999/xlink" x="0px" y="0px"
	 viewBox="0 0 100 107" style="enable-background:new 0 0 100 107;" xml:space="preserve">
<style type="text/css">
	.st0{fill:#231F20;}
</style>
<g>
	<g>
		<path d="M29.403,82.018c-0.13,2.935-2.091,4.844-4.714,4.844c-1.376,0-2.558-0.532-3.493-1.584c-0.779-0.87-1.195-2-1.195-3.273
			c0-1.286,0.493-2.468,1.442-3.402c0.896-0.897,2-1.338,3.351-1.338c1.883,0,3.338,0.923,4.052,2.519h-1.649
			c-0.611-0.779-1.468-1.181-2.507-1.181c-0.87,0-1.675,0.337-2.286,0.96c-0.649,0.662-1.013,1.572-1.013,2.455
			c0,0.974,0.337,1.857,0.935,2.481c0.636,0.662,1.506,1.039,2.364,1.039c1.39,0,2.48-0.741,3.182-2.221h-4.182v-1.299H29.403z"/>
		<path d="M30.84,86.68h-1.416l3.61-9.234h1.299l3.61,9.234h-1.467l-1.013-2.688h-3.584L30.84,86.68z M33.684,79.187l-1.325,3.506
			h2.624L33.684,79.187z"/>
		<path d="M38.448,86.68v-9.234h1.987l2.675,7.143l2.675-7.143h1.961v9.234h-1.26l0.091-8.013l-3,8.013h-0.948l-2.987-8.013
			l0.091,8.013H38.448z"/>
		<path d="M53.625,86.862c-1.364,0-2.52-0.506-3.429-1.467c-0.87-0.922-1.312-2.065-1.312-3.428c0-1.273,0.481-2.442,1.403-3.338
			c0.909-0.897,2.052-1.364,3.364-1.364c2.156,0,3.999,1.416,4.597,3.688h-2.442c-0.493-0.909-1.234-1.39-2.143-1.39
			c-1.377,0-2.455,1.065-2.455,2.416c0,1.467,1.143,2.597,2.416,2.597c0.87,0,1.636-0.468,2.13-1.325h2.455
			C57.599,85.498,55.846,86.862,53.625,86.862z"/>
		<path d="M60.492,86.68h-2.468l3.545-9.234h1.844l3.545,9.234h-2.494l-0.455-1.338h-3.051L60.492,86.68z M62.491,80.472
			l-0.922,2.961h1.832L62.491,80.472z"/>
		<path d="M67.137,86.68v-9.234h3.065c0.974,0,1.715,0.065,2.338,0.506c0.818,0.571,1.247,1.441,1.247,2.584
			c0,1.494-0.779,2.611-2.091,2.974l2.26,3.169h-2.793l-1.766-2.974v2.974H67.137z M69.839,81.706c1.117,0,1.662-0.286,1.662-1.117
			c0-0.767-0.48-1.077-1.48-1.077h-0.624v2.195H69.839z"/>
		<path d="M74.979,86.68v-9.234h5.013v2.039h-2.753v1.493h2.753v2.052h-2.753v1.611h2.753v2.039H74.979z"/>
	</g>
	<g>
		<path class="st0" d="M78.356,52.084c-0.248-0.14-0.521-0.234-0.814-0.275c-0.069-0.012-0.137-0.014-0.207-0.021
			c-0.037-0.002-0.073-0.011-0.111-0.011h-0.105c-0.093-0.002-0.186-0.007-0.278,0H58.785c-1.278,0-2.314,1.036-2.314,2.313
			c0,1.278,1.036,2.314,2.314,2.314H65.8c0.231,0.002,0.419,0.19,0.419,0.422c0,0.134-0.071,0.244-0.169,0.321
			c-3.846,2.054-8.794,3.3-14.207,3.3c-1.317,0-2.605-0.077-3.859-0.218v5.252c1.092,0.08,2.201,0.125,3.327,0.125
			c7.534,0,14.387-1.842,19.524-4.851l0.001,0.007c0.064-0.033,0.135-0.053,0.212-0.053c0.251,0,0.455,0.204,0.455,0.455
			c0,0.046-0.008,0.09-0.022,0.133l-1.07,2.906c-0.563,1.529,0.219,3.224,1.748,3.788c0.336,0.125,0.681,0.183,1.02,0.183
			c1.201,0,2.328-0.738,2.768-1.931l3.872-10.51C80.344,54.306,79.688,52.745,78.356,52.084z"/>
		<path class="st0" d="M51.843,32.238c5.456,0,10.45,1.256,14.309,3.339c0,0,2.451,1.764,3.617,0.071
			c1.338-1.943-1.334-3.152-1.334-3.152c-4.789-2.252-10.713-3.584-17.125-3.583c-1.126,0-2.234,0.045-3.327,0.125v3.418
			C49.238,32.316,50.526,32.238,51.843,32.238z"/>
		<g>
			<path d="M24.117,20.138c-2.253,0-4.08,1.827-4.08,4.08v44.518c0,2.254,1.827,4.08,4.08,4.08h23.867v-7.334
				C33.624,64.432,22.47,56.676,22.47,47.26c0-9.417,11.154-17.172,25.514-18.222v-8.9H24.117z"/>
			<path d="M29.698,46.343c0,6.95,7.897,12.722,18.287,13.886V32.456C37.594,33.62,29.698,39.392,29.698,46.343z"/>
		</g>
	</g>
</g>
</svg>
