<?xml version="1.0" encoding="utf-8"?>
<!-- Generator: Adobe Illustrator 22.0.1, SVG Export Plug-In . SVG Version: 6.00 Build 0)  -->
<svg version="1.1" id="Layer_1" xmlns="http://www.w3.org/2000/svg" xmlns:xlink="http://www.w3.org/1999/xlink" x="0px" y="0px"
	 viewBox="0 0 128 100" style="enable-background:new 0 0 128 100;" xml:space="preserve">
<style type="text/css">
	.st0{fill:#231F20;}
</style>
<g>
	<g>
		<path class="st0" d="M28.781,50.225h6.079v8.72h-1.994v-2.715c-0.548,0.896-0.797,1.22-1.296,1.644
			c-1.146,0.997-2.541,1.52-4.036,1.52c-4.086,0-7.275-3.987-7.275-9.118c0-5.182,3.164-9.219,7.226-9.219
			c1.669,0,3.637,0.474,5.232,3.04V41.38h1.843v5.581h-1.918c-0.249-0.972-0.548-1.594-0.997-2.142
			C30.65,43.597,29.305,42.9,27.91,42.9c-2.168,0-5.282,1.844-5.282,7.275c0,4.211,2.267,7.35,5.306,7.35
			c2.218,0,4.31-1.819,4.808-4.161c0.075-0.348,0.099-0.697,0.125-1.42h-4.086V50.225L28.781,50.225z"/>
		<path class="st0" d="M49.834,58.945h-3.787v-2.367c-1.071,1.67-2.516,2.617-4.484,2.617c-2.491,0-4.31-1.719-4.31-4.036
			c0-2.541,2.242-3.813,7.524-4.311c0.175-0.025,0.723-0.074,1.246-0.125v-1.37c0-1.519-1.171-2.467-3.015-2.467
			c-1.944,0-2.815,0.648-3.214,2.367h-2.018c0.299-1.345,0.698-2.043,1.495-2.74c0.898-0.747,2.143-1.146,3.587-1.146
			c2.741,0,5.083,1.271,5.083,4.633v7.375h1.893V58.945L49.834,58.945z M46.022,52.093l-1.221,0.15
			c-4.086,0.498-5.456,1.246-5.456,2.94c0,1.395,1.221,2.541,2.765,2.541c2.367,0,3.912-2.242,3.912-3.463V52.093L46.022,52.093z"/>
		<path class="st0" d="M55.377,48.056c0.598-0.921,1.794-2.765,4.235-2.765c1.769,0,2.79,0.923,3.114,2.79
			c0.523-0.896,0.772-1.22,1.271-1.644c0.872-0.773,1.818-1.147,2.865-1.147c2.043,0,3.239,1.321,3.239,3.637v8.447h1.844v1.569
			h-3.762v-9.318c0-1.869-0.623-2.716-1.919-2.716c-2.317,0-3.537,2.79-3.537,3.688v6.777h1.918v1.569h-3.837v-9.618
			c0-1.669-0.623-2.416-1.919-2.416c-2.068,0-3.537,2.566-3.537,3.787v6.677h1.893v1.569H51.49v-1.569h1.944V47.11H51.49v-1.594
			h3.887V48.056L55.377,48.056z"/>
		<path class="st0" d="M73.938,40.607h3.737v7.749c0.498-0.947,2.043-2.965,4.385-2.965c3.015,0,5.307,3.065,5.307,7.001
			c0,3.662-2.441,6.726-5.356,6.726c-2.367,0-3.513-1.569-4.335-2.69v2.516h-3.812v-1.569h1.894V42.178h-1.819V40.607L73.938,40.607
			z M77.675,53.289c0,2.217,1.794,4.186,3.837,4.186c2.292,0,3.762-2.068,3.762-5.281c0-3.09-1.469-5.208-3.687-5.208
			c-1.944,0-3.912,2.168-3.912,4.061V53.289L77.675,53.289z"/>
		<polygon class="st0" points="88.884,40.607 92.696,40.607 92.696,57.375 94.49,57.375 94.49,58.945 88.86,58.945 88.86,57.375 
			90.778,57.375 90.778,42.178 88.884,42.178 88.884,40.607 		"/>
		<path class="st0" d="M107.441,55.257c-0.274,0.922-0.573,1.47-1.071,2.042c-1.071,1.247-2.541,1.919-4.211,1.919
			c-3.637,0-6.178-2.84-6.178-6.926c0-3.936,2.541-6.951,5.855-6.951c3.339,0,5.905,2.592,5.905,7.275h-9.692
			c0.174,1.968,0.623,3.065,1.545,3.961c0.698,0.673,1.52,0.997,2.516,0.997c1.545,0,2.491-0.698,3.164-2.317H107.441
			L107.441,55.257z M105.522,51.146c-0.15-1.669-0.524-2.59-1.296-3.338c-0.598-0.548-1.346-0.823-2.218-0.823
			c-1.619,0-2.965,1.096-3.562,2.866c-0.1,0.323-0.225,0.822-0.274,1.295H105.522L105.522,51.146z"/>
	</g>
	<g>
		<path class="st0" d="M26.489,62.137h4.21l4.833,14.699h1.321v2.865h-4.036l-1.146-3.812h-6.179l-1.146,3.812h-4.086v-2.865h1.346
			L26.489,62.137L26.489,62.137z M28.607,65.425l-2.342,7.774h4.634L28.607,65.425L28.607,65.425z"/>
		<polygon class="st0" points="36.754,66.372 42.086,66.372 42.086,68.963 40.74,68.963 42.584,76.811 44.776,66.372 48.215,66.372 
			50.432,76.686 52.201,68.963 50.905,68.963 50.905,66.372 56.262,66.372 56.262,68.963 55.116,68.963 52.25,79.701 48.713,79.701 
			46.495,70.433 44.403,79.701 40.815,79.701 37.875,68.963 36.754,68.963 36.754,66.372 		"/>
		<path class="st0" d="M68.868,77.11h1.146v2.592h-4.136v-1.569c-1.37,1.37-2.392,1.843-4.036,1.843
			c-2.666,0-4.709-1.794-4.709-4.16c0-3.912,4.41-4.336,8.67-4.734c-0.025-2.043-0.523-2.566-2.467-2.566
			c-1.37,0-2.317,0.773-2.392,2.018l-3.239-0.1c0.174-2.666,2.317-4.385,5.481-4.385c3.687,0,5.68,1.67,5.68,4.709V77.11
			L68.868,77.11z M65.754,73.398c-3.139,0.299-5.182,0.573-5.182,2.417c0,1.096,0.872,1.818,2.192,1.818
			c1.694,0,2.99-1.271,2.99-2.939V73.398L65.754,73.398z"/>
		<path class="st0" d="M76.891,68.44c0.872-1.694,1.844-2.392,3.338-2.392c0.449,0,0.847,0.05,1.495,0.175v3.114
			c-0.598-0.124-1.071-0.175-1.62-0.175c-1.744,0-3.214,1.245-3.214,2.766v5.182h1.595v2.592h-6.154V77.11h1.295v-8.146h-1.271
			v-2.591h4.535V68.44L76.891,68.44z"/>
		<path class="st0" d="M95.128,75.316C94.53,78.206,92.113,80,88.874,80c-3.737,0-6.478-2.914-6.478-7.001
			c0-4.036,2.766-7.025,6.503-7.025c2.117,0,3.986,0.997,5.132,2.716c1.221,1.868,1.271,3.636,1.321,4.982h-9.617
			c0.324,3.463,2.591,3.637,3.214,3.637c1.321,0,2.193-0.623,2.716-1.993H95.128L95.128,75.316z M91.714,71.379
			c-0.224-1.694-1.246-2.615-2.815-2.615c-1.445,0-2.566,0.972-2.99,2.615H91.714L91.714,71.379z"/>
	</g>
	<g>
		<path class="st0" d="M20.311,20h6.702c2.99,0,4.111,0.099,4.958,0.474c1.171,0.498,2.691,1.918,2.691,4.235
			c0,1.769-0.573,2.641-2.267,3.562c1.993,0.823,2.915,2.068,2.915,4.385c0,2.941-2.268,4.908-5.656,4.908h-9.393v-2.865h1.37
			V22.865h-1.321V20L20.311,20z M25.219,22.865v4.26h3.463c1.495,0,2.517-0.921,2.517-2.242c0-1.171-1.146-2.018-2.766-2.018H25.219
			L25.219,22.865z M25.219,29.891v4.809h3.687c1.569,0,2.79-1.021,2.79-2.367c0-1.47-1.246-2.442-3.14-2.442H25.219L25.219,29.891z"
			/>
		<path class="st0" d="M50.016,33.18c-0.598,2.89-3.015,4.684-6.253,4.684c-3.737,0-6.478-2.914-6.478-7.001
			c0-4.036,2.766-7.025,6.503-7.025c2.117,0,3.985,0.997,5.132,2.716c1.22,1.868,1.27,3.636,1.32,4.982h-9.617
			c0.324,3.463,2.591,3.637,3.213,3.637c1.321,0,2.193-0.623,2.716-1.993H50.016L50.016,33.18z M46.602,29.243
			c-0.224-1.694-1.245-2.615-2.815-2.615c-1.446,0-2.566,0.972-2.99,2.615H46.602L46.602,29.243z"/>
	</g>
</g>
</svg>
