<?xml version="1.0" encoding="utf-8"?>
<!-- Generator: Adobe Illustrator 22.0.1, SVG Export Plug-In . SVG Version: 6.00 Build 0)  -->
<svg version="1.1" id="Layer_1" xmlns="http://www.w3.org/2000/svg" xmlns:xlink="http://www.w3.org/1999/xlink" x="0px" y="0px"
	 viewBox="0 0 386 100" style="enable-background:new 0 0 386 100;" xml:space="preserve">
<style type="text/css">
	.st0{fill:#F36D27;}
	.st1{fill:url(#SVGID_1_);}
	.st2{fill:url(#SVGID_2_);}
	.st3{fill:url(#SVGID_3_);}
	.st4{fill:url(#SVGID_4_);}
	.st5{fill:url(#SVGID_5_);}
	.st6{fill:url(#SVGID_6_);}
	.st7{fill:url(#SVGID_7_);}
	.st8{fill:url(#SVGID_8_);}
	.st9{fill:url(#SVGID_9_);}
	.st10{fill:url(#SVGID_10_);}
	.st11{fill:url(#SVGID_11_);}
	.st12{fill:url(#SVGID_12_);}
</style>
<g>
	<g>
		<path class="st0" d="M105,27.8h19.4v6.6H118V63h-6.8V34.4H105V27.8z"/>
		<path class="st0" d="M127.1,27h6.5v12.7c1.3-1.1,2.6-1.9,3.9-2.5c1.3-0.6,2.6-0.8,3.9-0.8c2.6,0,4.8,0.9,6.5,2.7
			c1.5,1.5,2.3,3.8,2.3,6.8V63h-6.4V51.6c0-3-0.1-5.1-0.4-6.1c-0.3-1.1-0.8-1.9-1.5-2.4s-1.6-0.8-2.6-0.8c-1.3,0-2.5,0.4-3.4,1.3
			c-0.9,0.9-1.6,2.1-2,3.6c-0.2,0.8-0.3,2.6-0.3,5.4V63h-6.5V27z"/>
		<path class="st0" d="M153.7,37h5.6v3.3c0.6-1.3,1.4-2.3,2.4-2.9c1-0.7,2.1-1,3.3-1c0.8,0,1.7,0.2,2.7,0.7l-2,5.6
			c-0.8-0.4-1.4-0.6-1.9-0.6c-1,0-1.9,0.6-2.5,1.9c-0.7,1.2-1,3.7-1,7.3l0,1.3V63h-6.5V37z"/>
		<path class="st0" d="M195.7,51.9h-21c0.3,1.8,1.1,3.3,2.4,4.4c1.3,1.1,3,1.6,5,1.6c2.4,0,4.5-0.9,6.3-2.6L194,58
			c-1.4,1.9-3,3.4-4.9,4.3c-1.9,0.9-4.2,1.4-6.8,1.4c-4.1,0-7.4-1.3-10-3.9c-2.6-2.6-3.9-5.8-3.9-9.7c0-4,1.3-7.3,3.8-9.9
			c2.6-2.6,5.8-3.9,9.6-3.9c4.1,0,7.4,1.3,10,3.9c2.6,2.6,3.9,6.1,3.9,10.4L195.7,51.9z M189.2,46.8c-0.4-1.5-1.3-2.6-2.6-3.5
			c-1.3-0.9-2.7-1.4-4.4-1.4c-1.8,0-3.4,0.5-4.8,1.5c-0.9,0.6-1.7,1.8-2.4,3.4H189.2z"/>
		<path class="st0" d="M219,37h6.5v26H219v-2.8c-1.3,1.2-2.6,2.1-3.8,2.6c-1.3,0.5-2.7,0.8-4.2,0.8c-3.4,0-6.3-1.3-8.7-3.9
			c-2.5-2.6-3.7-5.8-3.7-9.7c0-4,1.2-7.3,3.6-9.9c2.4-2.6,5.3-3.9,8.6-3.9c1.6,0,3,0.3,4.4,0.9c1.4,0.6,2.6,1.5,3.8,2.7V37z
			 M212.1,42.4c-2,0-3.7,0.7-5,2.1c-1.3,1.4-2,3.3-2,5.5c0,2.2,0.7,4.1,2,5.5c1.4,1.5,3,2.2,5,2.2c2.1,0,3.8-0.7,5.1-2.1
			c1.4-1.4,2-3.3,2-5.6c0-2.3-0.7-4.1-2-5.5C215.9,43.1,214.2,42.4,212.1,42.4z"/>
		<path class="st0" d="M231.7,27.4h6.5V37h3.9v5.6h-3.9V63h-6.5V42.6h-3.3V37h3.3V27.4z"/>
		<path d="M252.2,27.8h6.5l8.2,24.5l8.2-24.5h6.5l5.9,35.2H281l-3.8-22.2L269.8,63h-5.9l-7.4-22.2L252.6,63h-6.5L252.2,27.8z"/>
		<path d="M315.8,51.9h-21c0.3,1.8,1.1,3.3,2.4,4.4c1.3,1.1,3,1.6,5,1.6c2.4,0,4.5-0.9,6.3-2.6L314,58c-1.4,1.9-3,3.4-4.9,4.3
			c-1.9,0.9-4.2,1.4-6.8,1.4c-4.1,0-7.4-1.3-10-3.9c-2.6-2.6-3.9-5.8-3.9-9.7c0-4,1.3-7.3,3.8-9.9c2.6-2.6,5.8-3.9,9.6-3.9
			c4.1,0,7.4,1.3,10,3.9c2.6,2.6,3.9,6.1,3.9,10.4L315.8,51.9z M309.2,46.8c-0.4-1.5-1.3-2.6-2.6-3.5c-1.3-0.9-2.7-1.4-4.4-1.4
			c-1.8,0-3.4,0.5-4.8,1.5c-0.9,0.6-1.7,1.8-2.4,3.4H309.2z"/>
		<path d="M320.6,27.4h6.5V37h3.9v5.6h-3.9V63h-6.5V42.6h-3.3V37h3.3V27.4z"/>
		<path d="M333,37h5.6v3.3c0.6-1.3,1.4-2.3,2.4-2.9c1-0.7,2.1-1,3.3-1c0.8,0,1.7,0.2,2.7,0.7l-2,5.6c-0.8-0.4-1.4-0.6-1.9-0.6
			c-1,0-1.9,0.6-2.5,1.9c-0.7,1.2-1,3.7-1,7.3l0,1.3V63H333V37z"/>
		<path d="M352.7,26.3c1.1,0,2.1,0.4,2.9,1.2c0.8,0.8,1.2,1.8,1.2,3c0,1.2-0.4,2.2-1.2,3c-0.8,0.8-1.8,1.2-2.9,1.2
			c-1.2,0-2.2-0.4-3-1.3c-0.8-0.8-1.2-1.9-1.2-3c0-1.1,0.4-2.1,1.2-2.9C350.6,26.7,351.6,26.3,352.7,26.3z M349.5,37h6.5v26h-6.5V37
			z"/>
		<path d="M359.6,37h7.6l5.1,7.1l5.1-7.1h7.5L376,49.2L386,63h-7.6l-6.2-8.5l-6.2,8.5h-7.5l9.9-13.7L359.6,37z"/>
	</g>
	<g>
		
			<linearGradient id="SVGID_1_" gradientUnits="userSpaceOnUse" x1="-365.5362" y1="-463.2589" x2="-304.6066" y2="-519.8695" gradientTransform="matrix(0.7071 0.7071 -0.7071 0.7071 -66.5159 622.2793)">
			<stop  offset="0" style="stop-color:#EAC41D"/>
			<stop  offset="1" style="stop-color:#F36D27"/>
		</linearGradient>
		<path class="st1" d="M31.6,21.4c-1.2-1.2-3.2-1.2-4.4,0L0.9,47.7c-1.2,1.2-1.2,3.2,0,4.4c1.2,1.2,3.2,1.2,4.4,0l26.3-26.3
			C32.8,24.6,32.8,22.6,31.6,21.4z"/>
		
			<linearGradient id="SVGID_2_" gradientUnits="userSpaceOnUse" x1="-348.3342" y1="-444.7445" x2="-287.4046" y2="-501.355" gradientTransform="matrix(0.7071 0.7071 -0.7071 0.7071 -66.5159 622.2793)">
			<stop  offset="0" style="stop-color:#EAC41D"/>
			<stop  offset="1" style="stop-color:#F36D27"/>
		</linearGradient>
		<path class="st2" d="M63.5,46c-1.2-1.2-3.2-1.2-4.4,0l-30,30c-1.2,1.2-1.2,3.2,0,4.4c1.2,1.2,3.2,1.2,4.4,0l30-30
			C64.7,49.1,64.7,47.2,63.5,46z"/>
		
			<linearGradient id="SVGID_3_" gradientUnits="userSpaceOnUse" x1="-365.8422" y1="-463.5882" x2="-304.9125" y2="-520.1988" gradientTransform="matrix(0.7071 0.7071 -0.7071 0.7071 -66.5159 622.2793)">
			<stop  offset="0" style="stop-color:#EAC41D"/>
			<stop  offset="1" style="stop-color:#F36D27"/>
		</linearGradient>
		<path class="st3" d="M70.9,19.7c-1.2-1.2-3.2-1.2-4.4,0L35,51.2c-1.2,1.2-1.2,3.2,0,4.4c1.2,1.2,3.2,1.2,4.4,0l31.5-31.5
			C72.1,22.9,72.1,20.9,70.9,19.7z"/>
		
			<linearGradient id="SVGID_4_" gradientUnits="userSpaceOnUse" x1="-357.8245" y1="-454.9588" x2="-296.8949" y2="-511.5694" gradientTransform="matrix(0.7071 0.7071 -0.7071 0.7071 -66.5159 622.2793)">
			<stop  offset="0" style="stop-color:#EAC41D"/>
			<stop  offset="1" style="stop-color:#F36D27"/>
		</linearGradient>
		<path class="st4" d="M89.7,38.6c-1.2-1.2-3.2-1.2-4.4,0L66.2,57.7c-1.2,1.2-1.2,3.2,0,4.4c1.2,1.2,3.2,1.2,4.4,0L89.7,43
			C90.9,41.7,90.9,39.8,89.7,38.6z"/>
		
			<linearGradient id="SVGID_5_" gradientUnits="userSpaceOnUse" x1="-376.6404" y1="-475.2103" x2="-315.7108" y2="-531.8209" gradientTransform="matrix(0.7071 0.7071 -0.7071 0.7071 -66.5159 622.2793)">
			<stop  offset="0" style="stop-color:#EAC41D"/>
			<stop  offset="1" style="stop-color:#F36D27"/>
		</linearGradient>
		<path class="st5" d="M61.5,10.3c-1.2-1.2-3.2-1.2-4.4,0L38.8,28.6c-1.2,1.2-1.2,3.2,0,4.4c1.2,1.2,3.2,1.2,4.4,0l18.3-18.3
			C62.7,13.5,62.7,11.5,61.5,10.3z"/>
		
			<linearGradient id="SVGID_6_" gradientUnits="userSpaceOnUse" x1="-355.8884" y1="-452.8749" x2="-294.9587" y2="-509.4855" gradientTransform="matrix(0.7071 0.7071 -0.7071 0.7071 -66.5159 622.2793)">
			<stop  offset="0" style="stop-color:#EAC41D"/>
			<stop  offset="1" style="stop-color:#F36D27"/>
		</linearGradient>
		<path class="st6" d="M99.1,47.9c-1.2-1.2-3.2-1.2-4.4,0l-7.3,7.3c-1.2,1.2-1.2,3.2,0,4.4c1.2,1.2,3.2,1.2,4.4,0l7.3-7.3
			C100.3,51.1,100.3,49.1,99.1,47.9z"/>
		
			<linearGradient id="SVGID_7_" gradientUnits="userSpaceOnUse" x1="-337.9271" y1="-433.5433" x2="-276.9974" y2="-490.1539" gradientTransform="matrix(0.7071 0.7071 -0.7071 0.7071 -66.5159 622.2793)">
			<stop  offset="0" style="stop-color:#EAC41D"/>
			<stop  offset="1" style="stop-color:#F36D27"/>
		</linearGradient>
		<path class="st7" d="M83.2,67.2L83.2,67.2L83.2,67.2c0-0.2,0-0.2,0-0.3l0-5.5c0-1.7-1.4-3.1-3.1-3.1c-1.7,0-3.1,1.4-3.1,3.1l0,4.4
			L47.9,94.7c-1.2,1.2-1.2,3.2,0,4.4c1.2,1.2,3.2,1.2,4.4,0l30-30C82.8,68.6,83.1,67.9,83.2,67.2z"/>
		
			<linearGradient id="SVGID_8_" gradientUnits="userSpaceOnUse" x1="-339.8824" y1="-435.6479" x2="-278.9528" y2="-492.2585" gradientTransform="matrix(0.7071 0.7071 -0.7071 0.7071 -66.5159 622.2793)">
			<stop  offset="0" style="stop-color:#EAC41D"/>
			<stop  offset="1" style="stop-color:#F36D27"/>
		</linearGradient>
		<path class="st8" d="M62,68.7v-5c0-1.7-1.4-3.1-3.1-3.1c-1.7,0-3.1,1.4-3.1,3.1l0,4.4L38.5,85.4c-1.2,1.2-1.2,3.2,0,4.4
			c1.2,1.2,3.2,1.2,4.4,0l18.3-18.3C61.9,70.7,62.2,69.7,62,68.7z"/>
		
			<linearGradient id="SVGID_9_" gradientUnits="userSpaceOnUse" x1="-358.7176" y1="-455.9201" x2="-297.788" y2="-512.5306" gradientTransform="matrix(0.7071 0.7071 -0.7071 0.7071 -66.5159 622.2793)">
			<stop  offset="0" style="stop-color:#EAC41D"/>
			<stop  offset="1" style="stop-color:#F36D27"/>
		</linearGradient>
		<path class="st9" d="M34.6,39.6l0-5c0-1.7-1.4-3.1-3.1-3.1c-1.7,0-3.1,1.4-3.1,3.1l0,4.4L10.3,57.1c-1.2,1.2-1.2,3.2,0,4.4
			c1.2,1.2,3.2,1.2,4.4,0l19.1-19.1C34.5,41.6,34.8,40.6,34.6,39.6z"/>
		
			<linearGradient id="SVGID_10_" gradientUnits="userSpaceOnUse" x1="-383.4592" y1="-482.5493" x2="-322.5296" y2="-539.1599" gradientTransform="matrix(0.7071 0.7071 -0.7071 0.7071 -66.5159 622.2793)">
			<stop  offset="0" style="stop-color:#EAC41D"/>
			<stop  offset="1" style="stop-color:#F36D27"/>
		</linearGradient>
		<path class="st10" d="M41.9,19.8l0-4.4L52.1,5.3c1.2-1.2,1.2-3.2,0-4.4s-3.2-1.2-4.4,0L36.6,12c-0.8,0.8-1,1.8-0.8,2.8l0,5
			c0,1.7,1.4,3.1,3.1,3.1C40.5,22.8,41.9,21.5,41.9,19.8z"/>
		
			<linearGradient id="SVGID_11_" gradientUnits="userSpaceOnUse" x1="-366.2188" y1="-463.9935" x2="-305.2891" y2="-520.6041" gradientTransform="matrix(0.7071 0.7071 -0.7071 0.7071 -66.5159 622.2793)">
			<stop  offset="0" style="stop-color:#EAC41D"/>
			<stop  offset="1" style="stop-color:#F36D27"/>
		</linearGradient>
		<path class="st11" d="M73.8,44.4l0-4.4l6.5-6.5c1.2-1.2,1.2-3.2,0-4.4c-1.2-1.2-3.2-1.2-4.4,0l-7.5,7.5c-0.8,0.8-1,1.8-0.8,2.8
			l0,5c0,1.7,1.4,3.1,3.1,3.1C72.4,47.5,73.8,46.1,73.8,44.4z"/>
		
			<linearGradient id="SVGID_12_" gradientUnits="userSpaceOnUse" x1="-347.9578" y1="-444.3394" x2="-287.0282" y2="-500.95" gradientTransform="matrix(0.7071 0.7071 -0.7071 0.7071 -66.5159 622.2793)">
			<stop  offset="0" style="stop-color:#EAC41D"/>
			<stop  offset="1" style="stop-color:#F36D27"/>
		</linearGradient>
		<path class="st12" d="M31,62.1v-5c0-1.7-1.4-3.1-3.1-3.1c-1.7,0-3.1,1.4-3.1,3.1v4.4l-5.1,5.1c-1.2,1.2-1.2,3.2,0,4.4
			c1.2,1.2,3.2,1.2,4.4,0l6-6C30.9,64.1,31.1,63,31,62.1z"/>
	</g>
</g>
</svg>
