<?xml version="1.0" encoding="utf-8"?>
<!-- Generator: Adobe Illustrator 22.0.1, SVG Export Plug-In . SVG Version: 6.00 Build 0)  -->
<svg version="1.1" id="Layer_1" xmlns="http://www.w3.org/2000/svg" xmlns:xlink="http://www.w3.org/1999/xlink" x="0px" y="0px"
	 viewBox="0 0 200 200" style="enable-background:new 0 0 200 200;" xml:space="preserve">
<style type="text/css">
	.st0{fill:#AF2071;}
	.st1{fill:#FFFFFF;}
</style>
<g>
	<path class="st0" d="M171.7,200H28.3C12.8,200,0,187.2,0,171.7V28.3C0,12.8,12.8,0,28.3,0h143.3C187.2,0,200,12.8,200,28.3v143.3
		C200,187.2,187.2,200,171.7,200z"/>
	<g>
		<path class="st1" d="M24.4,170.4h2.5v1.4c0.9-1.1,2-1.6,3.2-1.6c0.7,0,1.2,0.1,1.7,0.4c0.5,0.3,0.9,0.7,1.2,1.2
			c0.5-0.5,0.9-1,1.5-1.2c0.5-0.3,1.1-0.4,1.7-0.4c0.8,0,1.4,0.2,1.9,0.5c0.5,0.3,0.9,0.8,1.2,1.3c0.2,0.4,0.3,1.1,0.3,2.1v6.6h-2.7
			v-5.9c0-1-0.1-1.7-0.3-2c-0.3-0.4-0.6-0.6-1.2-0.6c-0.4,0-0.7,0.1-1.1,0.3c-0.3,0.2-0.6,0.6-0.7,1c-0.1,0.4-0.2,1.2-0.2,2.1v4.9
			h-2.7V175c0-1,0-1.6-0.1-1.9c-0.1-0.3-0.2-0.5-0.4-0.6c-0.2-0.1-0.5-0.2-0.8-0.2c-0.4,0-0.8,0.1-1.1,0.3c-0.3,0.2-0.6,0.6-0.7,1
			c-0.1,0.4-0.2,1.1-0.2,2.1v5h-2.7V170.4z"/>
		<path class="st1" d="M43.4,175.4c0-0.9,0.2-1.8,0.7-2.6c0.4-0.8,1.1-1.5,1.9-1.9s1.7-0.7,2.7-0.7c1.6,0,2.8,0.5,3.8,1.5
			c1,1,1.5,2.3,1.5,3.8c0,1.6-0.5,2.8-1.5,3.9c-1,1-2.3,1.5-3.8,1.5c-0.9,0-1.8-0.2-2.7-0.6c-0.9-0.4-1.5-1-1.9-1.9
			C43.6,177.6,43.4,176.6,43.4,175.4z M46.2,175.5c0,1,0.2,1.8,0.7,2.3c0.5,0.5,1.1,0.8,1.8,0.8s1.3-0.3,1.8-0.8
			c0.5-0.5,0.7-1.3,0.7-2.4c0-1-0.2-1.8-0.7-2.3c-0.5-0.5-1.1-0.8-1.8-0.8s-1.3,0.3-1.8,0.8C46.4,173.7,46.2,174.5,46.2,175.5z"/>
		<path class="st1" d="M57.8,180.7v-14.2h2.7v5.1c0.8-1,1.8-1.4,3-1.4c1.3,0,2.3,0.5,3.1,1.4c0.8,0.9,1.2,2.2,1.2,3.9
			c0,1.8-0.4,3.1-1.3,4.1c-0.8,0.9-1.8,1.4-3,1.4c-0.6,0-1.2-0.1-1.7-0.4c-0.6-0.3-1.1-0.7-1.5-1.3v1.5H57.8z M60.5,175.3
			c0,1.1,0.2,1.8,0.5,2.4c0.5,0.7,1.1,1.1,1.9,1.1c0.6,0,1.1-0.3,1.5-0.8c0.4-0.5,0.6-1.3,0.6-2.4c0-1.2-0.2-2-0.6-2.5
			c-0.4-0.5-1-0.8-1.6-0.8c-0.7,0-1.2,0.3-1.6,0.8C60.7,173.5,60.5,174.3,60.5,175.3z"/>
		<path class="st1" d="M71.7,169v-2.5h2.7v2.5H71.7z M71.7,180.7v-10.3h2.7v10.3H71.7z"/>
		<path class="st1" d="M79,180.7v-14.2h2.7v14.2H79z"/>
		<path class="st1" d="M92.3,177.4l2.7,0.5c-0.3,1-0.9,1.7-1.6,2.3c-0.8,0.5-1.7,0.8-2.8,0.8c-1.8,0-3.1-0.6-4-1.7
			c-0.7-0.9-1-2.1-1-3.5c0-1.7,0.4-3,1.3-4c0.9-1,2-1.4,3.4-1.4c1.5,0,2.7,0.5,3.6,1.5c0.9,1,1.3,2.6,1.3,4.6h-6.8
			c0,0.8,0.2,1.4,0.7,1.9c0.4,0.4,0.9,0.7,1.6,0.7c0.4,0,0.8-0.1,1.1-0.3C91.9,178.3,92.1,177.9,92.3,177.4z M92.4,174.7
			c0-0.8-0.2-1.4-0.6-1.8c-0.4-0.4-0.9-0.6-1.4-0.6c-0.6,0-1.1,0.2-1.5,0.6c-0.4,0.4-0.6,1-0.6,1.8H92.4z"/>
		<path class="st1" d="M106.2,170.4h2.5v1.4c0.9-1.1,2-1.6,3.2-1.6c0.7,0,1.2,0.1,1.7,0.4s0.9,0.7,1.2,1.2c0.5-0.5,0.9-1,1.5-1.2
			c0.5-0.3,1.1-0.4,1.7-0.4c0.8,0,1.4,0.2,1.9,0.5c0.5,0.3,0.9,0.8,1.2,1.3c0.2,0.4,0.3,1.1,0.3,2.1v6.6h-2.7v-5.9
			c0-1-0.1-1.7-0.3-2c-0.3-0.4-0.6-0.6-1.2-0.6c-0.4,0-0.7,0.1-1.1,0.3c-0.3,0.2-0.6,0.6-0.7,1c-0.1,0.4-0.2,1.2-0.2,2.1v4.9h-2.7
			V175c0-1,0-1.6-0.1-1.9c-0.1-0.3-0.2-0.5-0.4-0.6c-0.2-0.1-0.5-0.2-0.8-0.2c-0.4,0-0.8,0.1-1.1,0.3c-0.3,0.2-0.6,0.6-0.7,1
			c-0.1,0.4-0.2,1.1-0.2,2.1v5h-2.7V170.4z"/>
		<path class="st1" d="M125.1,175.4c0-0.9,0.2-1.8,0.7-2.6c0.4-0.8,1.1-1.5,1.9-1.9c0.8-0.4,1.7-0.7,2.7-0.7c1.6,0,2.8,0.5,3.8,1.5
			s1.5,2.3,1.5,3.8c0,1.6-0.5,2.8-1.5,3.9c-1,1-2.3,1.5-3.8,1.5c-0.9,0-1.8-0.2-2.7-0.6c-0.9-0.4-1.5-1-1.9-1.9
			C125.4,177.6,125.1,176.6,125.1,175.4z M127.9,175.5c0,1,0.2,1.8,0.7,2.3c0.5,0.5,1.1,0.8,1.8,0.8c0.7,0,1.3-0.3,1.8-0.8
			c0.5-0.5,0.7-1.3,0.7-2.4c0-1-0.2-1.8-0.7-2.3c-0.5-0.5-1.1-0.8-1.8-0.8c-0.7,0-1.3,0.3-1.8,0.8
			C128.2,173.7,127.9,174.5,127.9,175.5z"/>
		<path class="st1" d="M149,180.7h-2.7v-5.2c0-1.1-0.1-1.8-0.2-2.2c-0.1-0.3-0.3-0.6-0.6-0.8s-0.6-0.3-0.9-0.3
			c-0.5,0-0.9,0.1-1.3,0.4c-0.4,0.3-0.6,0.6-0.8,1c-0.1,0.4-0.2,1.2-0.2,2.4v4.6h-2.7v-10.3h2.5v1.5c0.9-1.2,2-1.7,3.4-1.7
			c0.6,0,1.1,0.1,1.6,0.3c0.5,0.2,0.9,0.5,1.1,0.8c0.3,0.3,0.4,0.7,0.5,1.1c0.1,0.4,0.1,1,0.1,1.8V180.7z"/>
		<path class="st1" d="M159.5,177.4l2.7,0.5c-0.3,1-0.9,1.7-1.6,2.3c-0.8,0.5-1.7,0.8-2.8,0.8c-1.8,0-3.1-0.6-4-1.7
			c-0.7-0.9-1-2.1-1-3.5c0-1.7,0.4-3,1.3-4c0.9-1,2-1.4,3.4-1.4c1.5,0,2.7,0.5,3.6,1.5c0.9,1,1.3,2.6,1.3,4.6h-6.8
			c0,0.8,0.2,1.4,0.7,1.9c0.4,0.4,0.9,0.7,1.6,0.7c0.4,0,0.8-0.1,1.1-0.3C159.1,178.3,159.3,177.9,159.5,177.4z M159.6,174.7
			c0-0.8-0.2-1.4-0.6-1.8c-0.4-0.4-0.9-0.6-1.4-0.6c-0.6,0-1.1,0.2-1.5,0.6c-0.4,0.4-0.6,1-0.6,1.8H159.6z"/>
		<path class="st1" d="M165,170.4h2.9l2.5,7.3l2.4-7.3h2.8l-3.6,9.9l-0.6,1.8c-0.2,0.6-0.5,1.1-0.7,1.4c-0.2,0.3-0.5,0.6-0.7,0.8
			c-0.3,0.2-0.6,0.3-1,0.5c-0.4,0.1-0.9,0.2-1.4,0.2c-0.5,0-1-0.1-1.5-0.2l-0.2-2.1c0.4,0.1,0.8,0.1,1.2,0.1c0.6,0,1.1-0.2,1.4-0.6
			c0.3-0.4,0.5-0.8,0.7-1.4L165,170.4z"/>
	</g>
	<g>
		<path class="st1" d="M78.3,19.9c-10,0-14.6,4.4-14.6,4.4s0,0,0,0c0,0,0,0,0,0s-4.6-4.4-14.6-4.4c-12.3,0-24.6,10.1-24.6,22.1
			c0,10,0,42.1,0,42.1h20V42.6c0-2.6,2.1-4.6,4.6-4.6s4.6,2.1,4.6,4.6L54,84.1c0,0,9.9-0.1,9.7,0c0,0,0,0,0-0.1c0,0,0,0.1,0,0.1
			c-0.1-0.1,9.7,0,9.7,0l0.1-41.5c0-2.6,2.1-4.6,4.6-4.6c2.6,0,4.6,2.1,4.6,4.6v41.5h20c0,0,0-32.1,0-42.1
			C102.8,30,90.6,19.9,78.3,19.9z"/>
		<path class="st1" d="M142.7,19.7c-18.1,0-32.7,14.7-32.7,32.7c0,18.1,14.7,32.7,32.7,32.7s32.7-14.7,32.7-32.7
			C175.4,34.4,160.8,19.7,142.7,19.7z M142.7,66.1c-7.5,0-13.7-6.1-13.7-13.7s6.1-13.7,13.7-13.7c7.5,0,13.7,6.1,13.7,13.7
			S150.2,66.1,142.7,66.1z"/>
		<path class="st1" d="M78.3,95.2c-10,0-14.6,4.4-14.6,4.4s0,0,0,0c0,0,0,0,0,0s-4.6-4.4-14.6-4.4c-12.3,0-24.6,10.1-24.6,22.1
			c0,10,0,42.1,0,42.1h20v-41.5c0-2.6,2.1-4.6,4.6-4.6s4.6,2.1,4.6,4.6l0.1,41.5c0,0,9.9-0.1,9.7,0c0,0,0,0,0-0.1c0,0,0,0.1,0,0.1
			c-0.1-0.1,9.7,0,9.7,0l0.1-41.5c0-2.6,2.1-4.6,4.6-4.6c2.6,0,4.6,2.1,4.6,4.6v41.5h20c0,0,0-32.1,0-42.1
			C102.8,105.3,90.6,95.2,78.3,95.2z"/>
		<path class="st1" d="M142.7,95c-18.1,0-32.7,14.7-32.7,32.7c0,18.1,14.7,32.7,32.7,32.7s32.7-14.7,32.7-32.7
			C175.4,109.7,160.8,95,142.7,95z M142.7,141.4c-7.5,0-13.7-6.1-13.7-13.7c0-7.5,6.1-13.7,13.7-13.7c7.5,0,13.7,6.1,13.7,13.7
			C156.4,135.3,150.2,141.4,142.7,141.4z"/>
	</g>
</g>
</svg>
