<?xml version="1.0" encoding="utf-8"?>
<!-- Generator: Adobe Illustrator 22.0.1, SVG Export Plug-In . SVG Version: 6.00 Build 0)  -->
<svg version="1.1" id="Layer_1" xmlns="http://www.w3.org/2000/svg" xmlns:xlink="http://www.w3.org/1999/xlink" x="0px" y="0px"
	 viewBox="0 0 371.6 100" style="enable-background:new 0 0 371.6 100;" xml:space="preserve">
<style type="text/css">
	.st0{fill:#88C140;}
	.st1{fill:#FFFFFF;}
	.st2{fill:#61757E;}
</style>
<g>
	<g>
		<rect x="0" class="st0" width="97.8" height="100"/>
		<path class="st1" d="M84.3,20.8c0,0-8.9-0.5-18.3-3.1S48.9,11,48.9,11s-7.9,4.1-17.2,6.7s-18.3,3.1-18.3,3.1s-2.2,27.9,10.2,46.1
			C36.9,86.3,48.9,89,48.9,89s11.9-2.7,25.3-22.2C86.6,48.7,84.3,20.8,84.3,20.8z"/>
		<path class="st0" d="M63,45.3v-4.8c0-6.8-6.3-12.3-14-12.3s-14,5.5-14,12.3v4.8h-3.7c0,0,0,8.5,0,16.4S37,71.8,41,71.8
			c2.9,0,5.9,0,7.4,0c0.6,0,0.9,0,0.9,0c1.5,0,4.5,0,7.4,0c4,0,9.7-2.3,9.7-10.2s0-16.4,0-16.4H63z M53.2,65.8h-4.3h-4.3l1.7-7.9
			c-1-0.7-1.7-1.7-1.7-2.9c0-2,1.9-3.6,4.3-3.6s4.3,1.6,4.3,3.6c0,1.2-0.7,2.2-1.7,2.9L53.2,65.8z M59,45.3h-10h-0.1h-9.9v-5.1
			c0-4.7,4.5-8.6,10-8.6s10,3.8,10,8.6V45.3z"/>
	</g>
	<g>
		<g>
			<path class="st2" d="M116.4,43.2h2.9l4.4,13.9h0l4.6-13.9h2.6l-5.8,17h-2.9L116.4,43.2z"/>
			<path class="st2" d="M146.5,45.4H137v5.1h6v2.2h-6V58h9.5v2.2h-12v-17h12V45.4z"/>
			<path class="st2" d="M155.7,53.1H153v7.1h-2.6v-17h5.7c3.7,0,5.8,2,5.8,4.9c0,1.6-0.8,3.9-3.7,4.7l4.6,7.4h-2.9L155.7,53.1z
				 M155.9,45.4H153v5.5h2.9c2,0,3.4-1,3.4-2.8C159.3,46.2,157.9,45.4,155.9,45.4z"/>
			<path class="st2" d="M166.3,43.2h2.6v17h-2.6V43.2z"/>
			<path class="st2" d="M176.6,53.1v7.1H174v-17h11.6v2.2h-9v5.5h6.6v2.2H176.6z"/>
			<path class="st2" d="M189,43.2h2.6v17H189V43.2z"/>
			<path class="st2" d="M208.7,45.4h-9.5v5.1h6v2.2h-6V58h9.5v2.2h-12v-17h12V45.4z"/>
			<path class="st2" d="M217.9,60.2h-5.2v-17h5.2c5.6,0,8.8,3.4,8.8,8.5S223.4,60.2,217.9,60.2z M217.5,45.3h-2.3V58h2.3
				c4,0,6.5-2.1,6.5-6.4C224,47.4,221.5,45.3,217.5,45.3z"/>
			<path class="st2" d="M250.6,60.2h-3.3l-1.8-2c-0.9,1.2-2.4,2.3-4.6,2.3c-3,0-5.1-2.2-5.1-4.7c0-2,1.1-3.6,3-5.1
				c-1.1-1.2-1.5-2.4-1.5-3.6c0-2.8,2.3-4.2,4.5-4.2c2.1,0,4.3,1.3,4.3,3.8c0,0.6-0.1,1.4-0.6,2.1l-2.1-0.4c0.2-0.6,0.4-1,0.4-1.4
				c0-1.1-0.9-1.9-1.9-1.9c-1.4,0-2.1,0.9-2.1,2c0,0.9,0.4,1.7,1.5,2.9c1.5,1.7,3.8,4.1,4.1,4.4c0.7-1.2,1.2-2.5,1.5-3.4h2.7
				c-0.7,1.9-1.7,3.7-2.6,5.2L250.6,60.2L250.6,60.2z M240.2,52.4c-1.2,1.1-1.8,2-1.8,3.2c0,1.5,1.3,2.6,2.6,2.6
				c1.1,0,2.2-0.7,2.9-1.8L240.2,52.4z"/>
			<path class="st2" d="M268.4,46.7c-0.9-0.9-2.4-1.7-3.6-1.7c-1.4,0-2.7,0.7-2.7,2.2c0,1.1,0.7,1.8,2.2,2.6l1.4,0.7
				c2.6,1.4,4.1,2.6,4.1,5c0,2.4-1.9,4.8-5.5,4.8c-2.5,0-4.2-0.9-5.6-2.4l1.4-1.8c1.3,1.3,2.7,1.9,4.2,1.9c1.8,0,3-1.1,3-2.5
				c0-1.4-0.9-2-3-3.1L263,52c-2.3-1.2-3.5-2.6-3.5-4.6c0-2.8,2.4-4.5,5.2-4.5c1.9,0,3.8,0.8,5.1,2L268.4,46.7z"/>
			<path class="st2" d="M285.9,45.4h-9.5v5.1h6v2.2h-6V58h9.5v2.2h-12v-17h12V45.4z"/>
			<path class="st2" d="M297.1,58.2c2.6,0,4.4-1.4,5.2-3.7h2.7c-1,3.7-4.1,5.9-7.9,5.9c-5,0-8.8-3.7-8.8-8.8s3.9-8.8,8.8-8.8
				c3.8,0,6.9,2.3,7.9,5.9h-2.7c-0.8-2.3-2.6-3.7-5.2-3.7c-3.7,0-6.2,2.8-6.2,6.6S293.4,58.2,297.1,58.2z"/>
			<path class="st2" d="M308.8,54.6V43.2h2.6v11.3c0,2,0.9,3.8,3.5,3.8s3.5-1.8,3.5-3.8V43.2h2.5v11.4c0,3.3-1.9,5.9-6,5.9
				C310.8,60.5,308.8,57.8,308.8,54.6z"/>
			<path class="st2" d="M331.1,53.1h-2.7v7.1h-2.6v-17h5.7c3.7,0,5.8,2,5.8,4.9c0,1.6-0.8,3.9-3.7,4.7l4.6,7.4h-2.9L331.1,53.1z
				 M331.3,45.4h-2.9v5.5h2.9c2,0,3.4-1,3.4-2.8C334.7,46.2,333.3,45.4,331.3,45.4z"/>
			<path class="st2" d="M353.7,45.4h-9.5v5.1h6v2.2h-6V58h9.5v2.2h-12v-17h12V45.4z"/>
			<path class="st2" d="M362.9,60.2h-5.2v-17h5.2c5.6,0,8.8,3.4,8.8,8.5S368.4,60.2,362.9,60.2z M362.5,45.3h-2.3V58h2.3
				c4,0,6.5-2.1,6.5-6.4C369,47.4,366.5,45.3,362.5,45.3z"/>
		</g>
		<g>
			<path d="M140.4,67.6h1.1h1.1l2.2,7.6h0l2.2-7.6h1.1h1.1l-3.4,10h-1h-1L140.4,67.6z"/>
			<path d="M152.6,77.6v-10h7.3v0.9v0.9h-5.3v2.1h4.9v0.9v0.9h-4.9v2.6h5.5v0.9v0.9H152.6z"/>
			<path d="M163.9,67.6h1h4c1,0,1.7,0.3,2.3,0.8c0.6,0.5,0.9,1.2,0.9,2c0,1-0.3,1.7-1,2.1c-0.2,0.1-0.4,0.2-0.6,0.3
				c0.1,0,0.2,0.1,0.3,0.2c0.6,0.3,0.9,0.9,0.9,1.7l0,1.6c0,0.3,0,0.6,0.1,0.7c0.1,0.1,0.2,0.2,0.3,0.3v0.3H170
				c-0.1-0.1-0.1-0.3-0.1-0.7c0-0.3-0.1-0.7-0.1-1.1l0-0.9c0-0.4-0.1-0.8-0.4-1s-0.7-0.3-1.3-0.3H166v3.9h-1h-1V67.6z M166,71.9h2.4
				c0.5,0,0.9-0.1,1.2-0.3c0.3-0.2,0.4-0.6,0.4-1c0-0.4-0.1-0.8-0.4-1c-0.3-0.2-0.6-0.3-1.2-0.3H166V71.9z"/>
			<path d="M175.9,67.6h1h1v10h-1h-1V67.6z"/>
			<path d="M182,67.6h1h4c1,0,1.7,0.3,2.3,0.8c0.6,0.5,0.9,1.2,0.9,2c0,1-0.3,1.7-1,2.1c-0.2,0.1-0.4,0.2-0.6,0.3
				c0.1,0,0.2,0.1,0.3,0.2c0.6,0.3,0.9,0.9,0.9,1.7l0,1.6c0,0.3,0,0.6,0.1,0.7c0.1,0.1,0.2,0.2,0.3,0.3v0.3h-2.3
				c-0.1-0.1-0.1-0.3-0.1-0.7c0-0.3-0.1-0.7-0.1-1.1l0-0.9c0-0.4-0.1-0.8-0.4-1s-0.7-0.3-1.3-0.3h-2.1v3.9h-1h-1V67.6z M184.1,71.9
				h2.4c0.5,0,0.9-0.1,1.2-0.3c0.3-0.2,0.4-0.6,0.4-1c0-0.4-0.1-0.8-0.4-1c-0.3-0.2-0.6-0.3-1.2-0.3h-2.5V71.9z"/>
			<path d="M196.8,73.8l-3.5-6.2h1.2h1.2l2.1,4.3l0,0l1.9-4.3h1.2h1.2l-3.3,6.2v3.8h-1h-1V73.8z"/>
			<path d="M216.9,70.6c0-0.5-0.2-0.9-0.6-1.1c-0.4-0.3-0.9-0.4-1.5-0.4c-0.5,0-0.9,0.1-1.2,0.3c-0.3,0.2-0.4,0.6-0.4,1
				c0,0.3,0.2,0.5,0.5,0.7c0.3,0.2,1,0.4,2,0.6c1.5,0.3,2.4,0.7,2.9,1.1c0.5,0.4,0.7,1.1,0.7,2c0,0.9-0.4,1.7-1.1,2.2
				c-0.7,0.6-1.7,0.8-3,0.8c-1.3,0-2.2-0.3-3-0.9c-0.7-0.6-1.1-1.4-1.1-2.5h2c0,0.5,0.2,0.9,0.6,1.2c0.4,0.3,0.9,0.4,1.5,0.4
				c0.7,0,1.2-0.1,1.6-0.3c0.4-0.2,0.6-0.5,0.6-0.9c0-0.4-0.1-0.7-0.4-0.8c-0.3-0.2-0.8-0.4-1.7-0.6c-1.6-0.4-2.6-0.7-3.2-1.1
				c-0.5-0.4-0.8-1-0.8-1.9c0-1,0.4-1.7,1.1-2.3c0.7-0.6,1.6-0.9,2.8-0.9c1.1,0,2,0.3,2.7,0.9c0.7,0.6,1.1,1.4,1.2,2.4H216.9z"/>
			<path d="M222.8,77.6v-10h7.3v0.9v0.9h-5.3v2.1h4.9v0.9v0.9h-4.9v2.6h5.5v0.9v0.9H222.8z"/>
			<path d="M242.7,74.1c-0.1,1.2-0.6,2.1-1.4,2.8c-0.8,0.7-1.8,1-3,1c-1.4,0-2.5-0.5-3.3-1.4c-0.8-0.9-1.2-2.2-1.2-3.8
				c0-1.6,0.4-2.9,1.2-3.9c0.8-1,1.9-1.4,3.3-1.4c1.2,0,2.2,0.3,2.9,1c0.8,0.6,1.2,1.5,1.4,2.6h-2.1c-0.1-0.5-0.3-1-0.7-1.3
				c-0.4-0.3-0.9-0.5-1.5-0.5c-0.8,0-1.4,0.3-1.8,0.9c-0.4,0.6-0.7,1.5-0.7,2.6c0,1.1,0.2,1.9,0.7,2.5c0.4,0.6,1,0.9,1.8,0.9
				c0.6,0,1.1-0.2,1.5-0.5c0.4-0.4,0.6-0.8,0.7-1.4H242.7z"/>
			<path d="M254.3,73.8c0,1.4-0.3,2.5-0.9,3.1c-0.6,0.6-1.7,0.9-3.1,0.9c-1.4,0-2.4-0.3-3-1c-0.7-0.7-1-1.7-1-3v-6.2h1h1v6.3
				c0,0.7,0.2,1.3,0.5,1.6c0.3,0.4,0.8,0.5,1.5,0.5c0.7,0,1.2-0.2,1.5-0.5c0.3-0.3,0.4-0.9,0.4-1.7v-6.3h1h1V73.8z"/>
			<path d="M258.5,67.6h1h4c1,0,1.7,0.3,2.3,0.8c0.6,0.5,0.9,1.2,0.9,2c0,1-0.3,1.7-1,2.1c-0.2,0.1-0.4,0.2-0.6,0.3
				c0.1,0,0.2,0.1,0.3,0.2c0.6,0.3,0.9,0.9,0.9,1.7l0,1.6c0,0.3,0,0.6,0.1,0.7c0.1,0.1,0.2,0.2,0.3,0.3v0.3h-2.3
				c-0.1-0.1-0.1-0.3-0.1-0.7c0-0.3-0.1-0.7-0.1-1.1l0-0.9c0-0.4-0.1-0.8-0.4-1c-0.3-0.2-0.7-0.3-1.3-0.3h-2.1v3.9h-1h-1V67.6z
				 M260.5,71.9h2.4c0.5,0,0.9-0.1,1.2-0.3c0.3-0.2,0.4-0.6,0.4-1c0-0.4-0.1-0.8-0.4-1c-0.3-0.2-0.6-0.3-1.2-0.3h-2.5V71.9z"/>
			<path d="M270.4,67.6h1h1v10h-1h-1V67.6z"/>
			<path d="M278.7,69.3h-3v-0.9v-0.9h8.1v0.9v0.9h-3v8.2h-1h-1V69.3z"/>
			<path d="M289.8,73.8l-3.5-6.2h1.2h1.2l2.1,4.3l0,0l1.9-4.3h1.2h1.2l-3.3,6.2v3.8h-1h-1V73.8z"/>
			<path d="M304.4,67.6h1h1v3.7h3.9v-3.7h1h1v10h-1h-1V73h-3.9v4.5h-1h-1V67.6z"/>
			<path d="M316.6,77.6v-10h7.3v0.9v0.9h-5.3v2.1h4.9v0.9v0.9h-4.9v2.6h5.5v0.9v0.9H316.6z"/>
			<path d="M327.9,67.6h1h4c1,0,1.7,0.3,2.3,0.8c0.6,0.5,0.9,1.2,0.9,2c0,1-0.3,1.7-1,2.1c-0.2,0.1-0.4,0.2-0.6,0.3
				c0.1,0,0.2,0.1,0.3,0.2c0.6,0.3,0.9,0.9,0.9,1.7l0,1.6c0,0.3,0,0.6,0.1,0.7c0.1,0.1,0.2,0.2,0.3,0.3v0.3H334
				c-0.1-0.1-0.1-0.3-0.1-0.7c0-0.3-0.1-0.7-0.1-1.1l0-0.9c0-0.4-0.1-0.8-0.4-1c-0.3-0.2-0.7-0.3-1.3-0.3H330v3.9h-1h-1V67.6z
				 M330,71.9h2.4c0.5,0,0.9-0.1,1.2-0.3c0.3-0.2,0.4-0.6,0.4-1c0-0.4-0.1-0.8-0.4-1c-0.3-0.2-0.6-0.3-1.2-0.3H330V71.9z"/>
			<path d="M340.1,77.6v-10h7.3v0.9v0.9h-5.3v2.1h4.9v0.9v0.9h-4.9v2.6h5.5v0.9v0.9H340.1z"/>
		</g>
		<g>
			<g>
				<path class="st0" d="M185.7,37.2c-2.1,0-3.7-0.7-5-2c-1.2-1.3-1.8-3.2-1.8-5.4c0-2.3,0.6-4.2,1.9-5.6c1.3-1.4,3-2.1,5.2-2.1
					c1.7,0,3.2,0.4,4.3,1.3c1.1,0.9,1.8,2,2,3.5h-3c-0.1-0.6-0.4-1.2-1.1-1.6c-0.6-0.5-1.3-0.7-2.1-0.7c-1.3,0-2.3,0.4-3,1.3
					c-0.7,0.9-1.1,2.1-1.1,3.7c0,1.6,0.4,2.9,1.1,3.7c0.7,0.8,1.7,1.3,3.1,1.3h0c1.2,0,2.1-0.4,2.7-1.3c0.4-0.5,0.6-1.1,0.8-1.8v0
					h-3.4v-2.5h6v7.7h-2L190,35l-0.2,0.2C188.8,36.6,187.4,37.2,185.7,37.2L185.7,37.2z"/>
				<path class="st0" d="M198.4,35.2c-1.2-1.3-1.9-3.2-1.9-5.4c0-2.3,0.6-4.2,1.9-5.6c1.2-1.4,2.9-2.1,5-2.1c2.1,0,3.8,0.7,5,2.1
					c1.2,1.4,1.9,3.2,1.9,5.6c0,2.3-0.6,4.1-1.9,5.4c-1.2,1.3-2.9,2-5,2C201.4,37.2,199.7,36.6,198.4,35.2z M206.3,33.4
					c0.7-0.9,1-2.1,1-3.6c0-1.6-0.3-2.8-1-3.7c-0.7-0.9-1.6-1.3-2.9-1.3c-1.2,0-2.2,0.4-2.8,1.3c-0.7,0.9-1,2.1-1,3.7
					c0,1.5,0.3,2.8,1,3.6c0.7,0.9,1.6,1.3,2.9,1.3C204.7,34.7,205.6,34.3,206.3,33.4z"/>
				<path class="st0" d="M214.9,22.6h1.5h4.6c2,0,3.5,0.6,4.5,1.7c1,1.2,1.5,2.8,1.5,5.1c0,2.4-0.5,4.3-1.6,5.6
					c-1.1,1.3-2.6,1.9-4.7,1.9h-4.4h-1.5V22.6z M217.9,34.4h2.5c1.2,0,2.1-0.4,2.7-1.2c0.6-0.8,0.9-2,0.9-3.7c0-1.5-0.3-2.6-0.8-3.3
					c-0.6-0.7-1.4-1.1-2.5-1.1h-2.8V34.4z"/>
				<path class="st0" d="M235.4,22.6h1.7h1.7l5.1,14.3h-1.6h-1.6l-1-2.9h-5.4l-0.9,2.9h-1.5h-1.5L235.4,22.6z M235.2,31.5h3.8
					l-1.9-5.7h0L235.2,31.5z"/>
				<path class="st0" d="M248,22.6h1.5h4.6c2,0,3.5,0.6,4.5,1.7c1,1.2,1.5,2.8,1.5,5.1c0,2.4-0.5,4.3-1.6,5.6
					c-1.1,1.3-2.6,1.9-4.7,1.9h-4.4H248V22.6z M251,34.4h2.5c1.2,0,2.1-0.4,2.7-1.2c0.6-0.8,0.9-2,0.9-3.7c0-1.5-0.3-2.6-0.8-3.3
					c-0.6-0.7-1.4-1.1-2.5-1.1H251V34.4z"/>
				<path class="st0" d="M264.6,22.6h1.5h4.6c2,0,3.5,0.6,4.5,1.7c1,1.2,1.5,2.8,1.5,5.1c0,2.4-0.5,4.3-1.6,5.6
					c-1.1,1.3-2.6,1.9-4.7,1.9h-4.4h-1.5V22.6z M267.6,34.4h2.5c1.2,0,2.1-0.4,2.7-1.2c0.6-0.8,0.9-2,0.9-3.7c0-1.5-0.3-2.6-0.8-3.3
					c-0.6-0.7-1.4-1.1-2.5-1.1h-2.8V34.4z"/>
				<path class="st0" d="M284.9,31.5l-5-8.9h1.8h1.8l3,6.2l0,0l2.8-6.2h1.7h1.7l-4.7,8.9v5.4h-1.5h-1.5V31.5z"/>
			</g>
			<g>
				<g>
					<path class="st0" d="M299,25.9h0.8h3c0.7,0,1.3,0.2,1.7,0.6c0.4,0.4,0.7,0.9,0.7,1.5c0,0.7-0.2,1.3-0.7,1.6
						c-0.1,0.1-0.3,0.2-0.4,0.2c0.1,0,0.2,0.1,0.3,0.1c0.4,0.3,0.7,0.7,0.7,1.3l0,1.2c0,0.2,0,0.4,0.1,0.5c0,0.1,0.1,0.2,0.3,0.2
						v0.2h-1.7c0-0.1-0.1-0.2-0.1-0.5c0-0.3,0-0.5-0.1-0.8l0-0.7c0-0.3-0.1-0.6-0.3-0.7c-0.2-0.1-0.5-0.2-1-0.2h-1.6v3h-0.8H299
						V25.9z M300.6,29.2h1.8c0.4,0,0.7-0.1,0.9-0.2s0.3-0.4,0.3-0.7c0-0.3-0.1-0.6-0.3-0.7c-0.2-0.2-0.5-0.2-0.9-0.2h-1.9V29.2z"/>
				</g>
				<path class="st0" d="M302.2,37.4c-4.3,0-7.7-3.5-7.7-7.7s3.5-7.7,7.7-7.7s7.7,3.5,7.7,7.7S306.4,37.4,302.2,37.4z M302.2,23.5
					c-3.4,0-6.2,2.8-6.2,6.2s2.8,6.2,6.2,6.2s6.2-2.8,6.2-6.2S305.6,23.5,302.2,23.5z"/>
			</g>
		</g>
	</g>
</g>
</svg>
