<?xml version="1.0" encoding="utf-8"?>
<!-- Generator: Adobe Illustrator 22.0.1, SVG Export Plug-In . SVG Version: 6.00 Build 0)  -->
<svg version="1.1" id="Layer_1" xmlns="http://www.w3.org/2000/svg" xmlns:xlink="http://www.w3.org/1999/xlink" x="0px" y="0px"
	 viewBox="0 0 228 100" style="enable-background:new 0 0 228 100;" xml:space="preserve">
<style type="text/css">
	.st0{fill:#C1122F;}
</style>
<path class="st0" d="M45.07,30.898L45.07,30.898c-6.054,0-12.472,2.846-14.834,6.66c-0.242,0.424-0.605,0.605-1.09,0.605
	c-0.969,0-1.514-0.545-1.514-1.271V20h-7.871v58.668h7.871v-4.662c0-0.727,0.545-1.332,1.271-1.332c0.727,0,1.09,0.242,1.332,0.605
	C32.597,77.094,39.015,80,45.07,80c11.746,0,24.218-8.658,24.218-24.642C69.348,39.495,56.876,30.898,45.07,30.898z M60.811,55.419
	L60.811,55.419c0,9.808-7.205,17.255-16.589,17.255c-9.445,0-16.589-7.447-16.589-17.255s7.084-17.195,16.589-17.195
	C53.606,38.224,60.811,45.611,60.811,55.419z M138.309,49.243v29.485h-7.871V49.364c0-6.902-4.722-10.535-9.384-10.535
	c-6.418,0-10.111,4.359-10.111,11.927v27.972h-7.871V50.757c0-7.629-3.693-11.927-10.111-11.927c-4.723,0-9.445,3.633-9.445,10.535
	v29.364h-7.871V49.243c0-12.593,8.597-18.345,16.65-18.345c6.478,0,11.625,3.027,13.441,7.81c0.182,0.545,0.727,0.848,1.271,0.848
	h0.182c0.545,0,1.029-0.303,1.271-0.848c1.756-4.844,6.842-7.81,13.441-7.81l0,0C129.711,30.898,138.309,36.65,138.309,49.243z
	 M208.238,49.243v29.485h-7.871V49.364c0-6.902-4.723-10.535-9.384-10.535c-6.418,0-10.111,4.359-10.111,11.927v27.972h-7.871
	V50.757c0-7.629-3.693-11.927-10.111-11.927c-4.662,0-9.384,3.633-9.384,10.535v29.364h-7.992V49.243
	c0-12.593,8.597-18.345,16.65-18.345c6.478,0,11.625,3.027,13.441,7.81c0.182,0.545,0.727,0.848,1.211,0.848h0.242
	c0.545,0,1.029-0.303,1.271-0.848c1.756-4.844,6.963-7.81,13.441-7.81l0,0C199.641,30.898,208.238,36.65,208.238,49.243z"/>
</svg>
