<?xml version="1.0" encoding="utf-8"?>
<!-- Generator: Adobe Illustrator 22.0.1, SVG Export Plug-In . SVG Version: 6.00 Build 0)  -->
<svg version="1.1" id="Layer_1" xmlns="http://www.w3.org/2000/svg" xmlns:xlink="http://www.w3.org/1999/xlink" x="0px" y="0px"
	 viewBox="0 0 105.3 100" style="enable-background:new 0 0 105.3 100;" xml:space="preserve">
<style type="text/css">
	.st0{fill:#2F368F;}
	.st1{fill:url(#SVGID_1_);}
</style>
<g>
	<g>
		<path d="M30.9,64.1c-0.5,0-1-0.2-1.3-0.5c-0.4-0.3-0.6-0.8-0.6-1.4c0-0.5,0.2-1,0.6-1.3c0.4-0.3,0.8-0.5,1.3-0.5
			c0.5,0,0.9,0.2,1.3,0.5c0.4,0.3,0.6,0.8,0.6,1.4c0,0.6-0.2,1-0.5,1.3C31.9,64,31.4,64.1,30.9,64.1z M32.8,68v10.8
			c0,0.7-0.2,1.3-0.5,1.7S31.4,81,30.9,81s-1-0.2-1.3-0.6c-0.3-0.4-0.5-1-0.5-1.7V68.1c0-0.7,0.2-1.3,0.5-1.7
			c0.3-0.4,0.8-0.6,1.3-0.6s1,0.2,1.4,0.6C32.6,66.8,32.8,67.3,32.8,68z"/>
		<path d="M49.9,64h-4.4v14.6c0,0.8-0.2,1.5-0.6,1.9c-0.4,0.4-0.9,0.6-1.4,0.6c-0.6,0-1.1-0.2-1.5-0.6c-0.4-0.4-0.6-1-0.6-1.9V64H37
			c-0.7,0-1.2-0.2-1.5-0.5c-0.3-0.3-0.5-0.7-0.5-1.2c0-0.5,0.2-0.9,0.5-1.2c0.4-0.3,0.9-0.5,1.5-0.5h12.9c0.7,0,1.2,0.2,1.6,0.5
			c0.3,0.3,0.5,0.7,0.5,1.2c0,0.5-0.2,0.9-0.5,1.2C51.1,63.9,50.6,64,49.9,64z"/>
		<path d="M62.8,74.4h-7.3c0,0.8,0.2,1.6,0.5,2.2c0.3,0.6,0.8,1.1,1.3,1.5c0.6,0.3,1.2,0.5,1.8,0.5c0.4,0,0.9-0.1,1.2-0.2
			c0.4-0.1,0.7-0.3,1.1-0.5c0.3-0.2,0.7-0.5,1-0.7c0.3-0.3,0.7-0.6,1.1-1c0.2-0.2,0.5-0.2,0.8-0.2c0.4,0,0.7,0.1,0.9,0.3
			c0.2,0.2,0.4,0.5,0.4,0.9c0,0.3-0.1,0.7-0.4,1.2c-0.3,0.5-0.7,0.9-1.2,1.3c-0.5,0.4-1.2,0.8-2,1c-0.8,0.3-1.7,0.4-2.8,0.4
			c-2.4,0-4.3-0.7-5.6-2c-1.3-1.4-2-3.2-2-5.6c0-1.1,0.2-2.1,0.5-3.1c0.3-0.9,0.8-1.8,1.4-2.4c0.6-0.7,1.4-1.2,2.3-1.6
			c0.9-0.4,1.9-0.5,3.1-0.5c1.5,0,2.7,0.3,3.8,0.9c1,0.6,1.8,1.4,2.3,2.4c0.5,1,0.8,2,0.8,3c0,0.9-0.3,1.5-0.8,1.8
			C64.5,74.2,63.7,74.4,62.8,74.4z M55.5,72.3h6.8c-0.1-1.3-0.4-2.2-1-2.9c-0.6-0.6-1.4-0.9-2.4-0.9c-0.9,0-1.7,0.3-2.3,1
			C56,70.1,55.6,71,55.5,72.3z"/>
		<path d="M82.4,76.4c0,0.5-0.1,1-0.4,1.5c-0.3,0.5-0.7,1-1.3,1.5c-0.6,0.5-1.3,0.9-2.2,1.2c-0.9,0.3-1.8,0.4-2.9,0.4
			c-2.3,0-4.1-0.7-5.4-2c-1.3-1.3-1.9-3.1-1.9-5.4c0-1.5,0.3-2.9,0.9-4.1c0.6-1.2,1.4-2.1,2.6-2.7c1.1-0.6,2.5-1,4-1
			c1,0,1.9,0.1,2.7,0.4c0.8,0.3,1.5,0.6,2,1.1c0.6,0.4,1,0.9,1.3,1.4c0.3,0.5,0.4,1,0.4,1.4c0,0.4-0.2,0.8-0.5,1.1
			c-0.3,0.3-0.7,0.5-1.2,0.5c-0.3,0-0.6-0.1-0.8-0.2c-0.2-0.2-0.4-0.4-0.7-0.8c-0.5-0.7-0.9-1.2-1.4-1.6c-0.5-0.3-1.1-0.5-1.9-0.5
			c-1.1,0-2,0.4-2.7,1.3c-0.7,0.9-1,2-1,3.5c0,0.7,0.1,1.3,0.3,1.9c0.2,0.6,0.4,1.1,0.8,1.5c0.3,0.4,0.7,0.7,1.2,0.9
			c0.5,0.2,1,0.3,1.5,0.3c0.7,0,1.4-0.2,1.9-0.5c0.5-0.3,1-0.9,1.4-1.6c0.2-0.4,0.5-0.7,0.7-1c0.3-0.2,0.6-0.4,1-0.4
			c0.5,0,0.8,0.2,1.1,0.5C82.2,75.7,82.4,76,82.4,76.4z"/>
		<path d="M88.6,62.6v5.5c0.5-0.5,0.9-1,1.4-1.3c0.5-0.3,0.9-0.6,1.5-0.7c0.5-0.2,1.1-0.2,1.8-0.2c0.9,0,1.8,0.2,2.5,0.6
			c0.7,0.4,1.3,1,1.7,1.7c0.3,0.4,0.4,0.9,0.5,1.5c0.1,0.6,0.1,1.2,0.1,1.9v7.1c0,0.7-0.2,1.3-0.5,1.7c-0.3,0.4-0.8,0.6-1.4,0.6
			c-1.2,0-1.8-0.8-1.8-2.3v-6.3c0-1.2-0.2-2.1-0.5-2.8c-0.4-0.6-1-1-2-1c-0.7,0-1.3,0.2-1.8,0.6c-0.5,0.4-0.9,0.9-1.2,1.6
			c-0.2,0.6-0.3,1.5-0.3,3v4.9c0,0.7-0.2,1.3-0.5,1.7c-0.3,0.4-0.8,0.6-1.4,0.6c-1.2,0-1.8-0.8-1.8-2.3V62.6c0-0.8,0.2-1.3,0.5-1.7
			c0.3-0.4,0.8-0.6,1.4-0.6c0.6,0,1.1,0.2,1.4,0.6S88.6,61.9,88.6,62.6z"/>
	</g>
	<g>
		<path d="M32.1,85.2V97h6.7c0.5,0,0.9,0.1,1.2,0.4c0.3,0.3,0.4,0.6,0.4,1c0,0.4-0.1,0.7-0.4,1c-0.3,0.2-0.7,0.4-1.2,0.4h-8
			c-0.7,0-1.2-0.2-1.5-0.5c-0.3-0.3-0.5-0.8-0.5-1.5V85.2c0-0.7,0.1-1.2,0.4-1.5c0.3-0.3,0.7-0.5,1.2-0.5c0.5,0,0.9,0.2,1.2,0.5
			C32,84,32.1,84.5,32.1,85.2z"/>
		<path d="M50.1,98.3c-0.7,0.6-1.4,1-2.1,1.3c-0.7,0.3-1.5,0.4-2.3,0.4c-0.8,0-1.5-0.2-2-0.5c-0.6-0.3-1-0.7-1.4-1.2
			c-0.3-0.5-0.5-1.1-0.5-1.7c0-0.8,0.3-1.5,0.8-2.1c0.5-0.6,1.2-1,2.2-1.2c0.2,0,0.7-0.1,1.4-0.3c0.8-0.2,1.4-0.3,2-0.4
			c0.5-0.1,1.1-0.3,1.8-0.5c0-0.8-0.2-1.4-0.5-1.8c-0.3-0.4-0.9-0.6-1.8-0.6c-0.8,0-1.3,0.1-1.7,0.3c-0.4,0.2-0.7,0.5-1,1
			c-0.3,0.4-0.5,0.7-0.6,0.8c-0.1,0.1-0.4,0.2-0.7,0.2c-0.3,0-0.6-0.1-0.9-0.3c-0.2-0.2-0.4-0.5-0.4-0.8c0-0.5,0.2-1.1,0.6-1.6
			c0.4-0.5,1-0.9,1.8-1.2c0.8-0.3,1.8-0.5,3-0.5c1.3,0,2.4,0.2,3.1,0.5c0.8,0.3,1.3,0.8,1.6,1.5c0.3,0.7,0.5,1.6,0.5,2.7
			c0,0.7,0,1.3,0,1.8c0,0.5,0,1,0,1.7c0,0.6,0.1,1.2,0.3,1.8c0.2,0.6,0.3,1,0.3,1.2c0,0.3-0.1,0.6-0.4,0.8c-0.3,0.3-0.6,0.4-1,0.4
			c-0.3,0-0.6-0.1-0.9-0.4C50.7,99.3,50.4,98.8,50.1,98.3z M49.9,93.9c-0.4,0.2-1.1,0.3-1.9,0.5c-0.8,0.2-1.4,0.3-1.8,0.4
			c-0.3,0.1-0.6,0.3-0.9,0.5c-0.3,0.2-0.4,0.6-0.4,1c0,0.5,0.2,0.8,0.5,1.2c0.3,0.3,0.8,0.5,1.4,0.5c0.6,0,1.2-0.1,1.7-0.4
			c0.5-0.3,0.9-0.6,1.1-1c0.3-0.5,0.4-1.2,0.4-2.3V93.9z"/>
		<path d="M58.4,84.9v4.6c0.6-0.6,1.2-1,1.7-1.4c0.6-0.3,1.3-0.5,2.2-0.5c1,0,1.9,0.2,2.6,0.7c0.8,0.5,1.3,1.2,1.8,2.1
			c0.4,0.9,0.6,2,0.6,3.2c0,0.9-0.1,1.8-0.3,2.5s-0.6,1.4-1,2c-0.4,0.6-1,1-1.6,1.3c-0.6,0.3-1.3,0.5-2.1,0.5
			c-0.5,0-0.9-0.1-1.3-0.2c-0.4-0.1-0.8-0.3-1-0.4c-0.3-0.2-0.5-0.4-0.7-0.6c-0.2-0.2-0.5-0.5-0.8-0.9v0.3c0,0.6-0.1,1-0.4,1.3
			c-0.3,0.3-0.6,0.4-1,0.4c-0.4,0-0.8-0.1-1-0.4c-0.3-0.3-0.4-0.7-0.4-1.3V85c0-0.6,0.1-1.1,0.4-1.4c0.2-0.3,0.6-0.5,1-0.5
			c0.5,0,0.8,0.1,1.1,0.4C58.3,83.9,58.4,84.3,58.4,84.9z M58.6,93.9c0,1.2,0.3,2.1,0.8,2.8c0.6,0.6,1.3,1,2.2,1c0.8,0,1.4-0.3,2-1
			c0.6-0.7,0.8-1.6,0.8-2.8c0-0.8-0.1-1.5-0.3-2.1c-0.2-0.6-0.6-1-1-1.3c-0.4-0.3-0.9-0.5-1.5-0.5c-0.6,0-1.1,0.2-1.5,0.5
			c-0.5,0.3-0.8,0.8-1.1,1.4C58.7,92.4,58.6,93.1,58.6,93.9z"/>
		<path d="M79.6,96c0,0.8-0.2,1.6-0.6,2.1c-0.4,0.6-1,1-1.8,1.4c-0.8,0.3-1.8,0.5-2.9,0.5c-1.1,0-2-0.2-2.8-0.5
			c-0.8-0.3-1.4-0.7-1.7-1.2c-0.4-0.5-0.6-1-0.6-1.5c0-0.3,0.1-0.6,0.4-0.9c0.2-0.2,0.5-0.4,0.9-0.4c0.3,0,0.6,0.1,0.7,0.2
			c0.2,0.2,0.3,0.4,0.5,0.7c0.3,0.5,0.7,0.9,1.1,1.2c0.4,0.3,1,0.4,1.8,0.4c0.6,0,1.1-0.1,1.5-0.4c0.4-0.3,0.6-0.6,0.6-0.9
			c0-0.5-0.2-0.9-0.6-1.2c-0.4-0.2-1.1-0.5-2-0.7c-1-0.3-1.9-0.5-2.5-0.8c-0.7-0.3-1.2-0.7-1.6-1.1c-0.4-0.5-0.6-1-0.6-1.7
			c0-0.6,0.2-1.2,0.5-1.7c0.4-0.5,0.9-1,1.6-1.3c0.7-0.3,1.6-0.5,2.6-0.5c0.8,0,1.5,0.1,2.1,0.2c0.6,0.2,1.1,0.4,1.6,0.7
			c0.4,0.3,0.7,0.6,1,0.9c0.2,0.3,0.3,0.7,0.3,1c0,0.3-0.1,0.6-0.3,0.9c-0.2,0.2-0.6,0.3-1,0.3c-0.3,0-0.6-0.1-0.8-0.3
			c-0.2-0.2-0.5-0.4-0.7-0.8c-0.2-0.3-0.5-0.5-0.8-0.7c-0.3-0.2-0.7-0.3-1.3-0.3c-0.5,0-1,0.1-1.4,0.3c-0.4,0.2-0.5,0.5-0.5,0.9
			c0,0.3,0.1,0.6,0.4,0.8c0.3,0.2,0.6,0.4,1.1,0.5c0.5,0.1,1.1,0.3,1.9,0.5c0.9,0.2,1.7,0.5,2.3,0.8c0.6,0.3,1,0.7,1.4,1.1
			C79.4,95,79.6,95.5,79.6,96z"/>
	</g>
	<path class="st0" d="M20.4,88.2l0.5-0.8l-1,0l-0.3-0.9l-0.5,0.7C8.2,77.9,1.5,64.4,0.7,50.2l-0.7,0c0.8,14.3,7.4,27.7,18.2,37.1
		l0.2,0.6l-0.8,0.5l0.9,0.4l-0.1,1l0.9-0.5l0.7,0.7l0.2-1l1-0.1L20.4,88.2z"/>
	<path class="st0" d="M9.4,58.4L8.7,58l0.1-0.8l-0.7,0.3L7.7,57l-0.1,0.2c-0.7-2.5-1-5-1-7.6H5.9c0,2.8,0.4,5.5,1.1,8.1l-0.3,0
		l0.5,0.6L6.7,59l0.8,0l0.2,0.7l0.5-0.6l0.7,0.3l-0.1-0.8L9.4,58.4z"/>
	<path class="st0" d="M24.5,72l0.4-0.7l-0.8,0.1l-0.3-0.7l-0.4,0.7L23,71.2c-4.8-7-7.4-15.3-7.4-23.8h-0.7c0,8.9,2.7,17.3,7.7,24.6
		l-0.5,0.4l0.8,0.3l0,0.8l0.7-0.4l0.6,0.5l0.1-0.8l0.8-0.2L24.5,72z"/>
	<radialGradient id="SVGID_1_" cx="52.9464" cy="50.1467" r="37.3791" gradientUnits="userSpaceOnUse">
		<stop  offset="0" style="stop-color:#4EBBE3"/>
		<stop  offset="1" style="stop-color:#2F368F"/>
	</radialGradient>
	<path class="st1" d="M68.1,42.3c-2-2.2-4.2-3.7-5.7-4.6l0.2,1.1L60.9,38l-1.2,1.4l-0.5-1.8l-1.9-0.1l1.1-1.5l-1.1-1.5l1.9-0.1
		l0.5-1.8l1.3,1.4l1.7-0.7l-0.3,1.9l1.7,0.9l-0.7,0.4c1.6,0.9,3.9,2.5,6,4.9c3,3.4,3.5,8.6,3.5,8.8l9.3,0.1c0-0.6-0.7-8.1-4.4-13.3
		c-2.8-3.8-5.4-6.1-7.2-7.3l0.5,1.7l-2.5-0.7L67,32.7l-1-2.4l-2.6,0.2l1.2-2.3l-1.8-1.9l2.5-0.5l0.4-2.6l2,1.7l2.2-1.3l-0.1,2.6
		l2.4,0.9L71,28.2c1.9,1.3,4.8,3.6,7.8,7.8c4.1,5.7,4.7,13.7,4.7,14.1l6.8,0.1c-0.1-0.8-1.3-15.2-10.5-23.6
		c-8.2-7.5-15.9-8.1-19.2-8.4c-0.4,0-0.7-0.1-1-0.1c-1.3-0.2-2.5-0.2-3.5-0.2l1.2,2.9l-3.1-0.6L52.7,23l-1.5-2.8L48,20.8l1.2-2.9
		l-2.4-2.1l3.1-0.9l0.2-3.2l2.6,1.9l2.6-1.9l0.2,3.2l3.1,0.9l-0.8,0.7c0.7,0,1.4,0.1,2.1,0.2c0.3,0,0.6,0.1,0.9,0.1
		c3.4,0.3,11.5,1,20,8.8c9.9,9,10.9,24,10.9,24.6l3.4,0c0-0.7-1-12.7-7.6-21.3C80,19.1,71.1,15.8,68.3,15l0,1l-1.1-0.7l-1.1,0.8
		L66,14.7l-1.3-0.3l1-0.9L65,12.3l1.3,0.2l0.6-1.2l0.7,1.1l1.3-0.3l-0.5,1.3l0.3,0.2c3.1,0.9,12.1,4.3,19.9,14.4
		c7.1,9.2,7.9,21.7,7.9,22.2l8.8,0C104,22.2,80.9,0,52.7,0S1.3,22.2,0,50.2h71.2C71.1,49.6,70.6,45.1,68.1,42.3z"/>
</g>
</svg>
