<?xml version="1.0" encoding="utf-8"?>
<!-- Generator: Adobe Illustrator 22.0.1, SVG Export Plug-In . SVG Version: 6.00 Build 0)  -->
<svg version="1.1" id="Layer_1" xmlns="http://www.w3.org/2000/svg" xmlns:xlink="http://www.w3.org/1999/xlink" x="0px" y="0px"
	 viewBox="0 0 245 100" style="enable-background:new 0 0 245 100;" xml:space="preserve">
<style type="text/css">
	.st0{fill:#EC2027;}
	.st1{fill:#646666;}
</style>
<g>
	<path class="st0" d="M83.3,77.5h7.5c0,0,0.2,13.7,17.7,13.7s38.6-13.7,38.6-13.7h11.6c0,0-28.7,22.5-54.4,22.5
		c-22.7,0-21-18.1-21-19.6S83.3,77.5,83.3,77.5z"/>
	<path class="st1" d="M109,36.8h4.1c0,0,10-10.4,24.3-18.6C151.7,9.9,163.2,6,173.9,6s18.5,6.9,17.4,16.4
		c-1.1,9.4-4.1,14.4-4.1,14.4h8.6c0,0,5.2-9.1,5.2-18.3S195.8,0,181,0c-14.8,0-30.2,6.3-44.9,15.2S109,36.8,109,36.8z"/>
	<rect x="92.5" y="44.2" class="st1" width="10.8" height="30.6"/>
	<polygon class="st1" points="23.8,43.8 23.8,35.2 0,35.2 0,74.8 23.8,74.8 23.8,66.2 10.7,66.2 10.7,58.6 22.6,58.6 22.6,50 
		10.7,50 10.7,43.8 	"/>
	<polygon class="st1" points="74.5,52.4 62.1,68.7 62.1,74.8 87.5,74.8 87.5,66.6 74.8,66.6 86.7,51 86.7,44.2 62.9,44.2 62.9,52.4 
			"/>
	<path class="st1" d="M58.3,56.6c0-3.5-2.1-13-13.7-13s-15.3,7.4-15.9,13.2C28.1,62.5,29.5,69,34,72.3c4.5,3.3,10.6,3,13,3
		c5.1,0,9.1-2.2,9.1-2.2v-7.7c0,0-4,2.3-9.4,2.3c-7.4,0-7.5-5.2-7.5-5.2l19-0.1C58.3,62.3,58.3,60.1,58.3,56.6z M48.9,55.8h-9.4
		c0-0.1,0-0.2,0-0.3c0-2.6,2.1-4.7,4.7-4.7c2.6,0,4.7,2.1,4.7,4.7C48.9,55.6,48.9,55.7,48.9,55.8z"/>
	<path class="st1" d="M139.1,56.6c0-3.5-2.1-13-13.7-13s-15.3,7.4-15.9,13.2c-0.6,5.8,0.8,12.3,5.3,15.6c4.5,3.3,10.6,3,13,3
		c5.1,0,9.1-2.2,9.1-2.2v-7.7c0,0-4,2.3-9.4,2.3c-7.4,0-7.5-5.2-7.5-5.2l19-0.1C139.1,62.3,139.1,60.1,139.1,56.6z M129.7,55.8h-9.4
		c0-0.1,0-0.2,0-0.3c0-2.6,2.1-4.7,4.7-4.7c2.6,0,4.7,2.1,4.7,4.7C129.7,55.6,129.7,55.7,129.7,55.8z"/>
	<path class="st1" d="M103.8,36.5c0,2.8-2.6,4.8-5.9,4.8s-5.9-1.9-5.9-4.8c0-2.8,2.6-4.7,5.9-4.7S103.8,33.7,103.8,36.5z"/>
	<path class="st0" d="M211,44.1h11l6,20.1l6-20.1H245c0,0-10.9,29.5-12.8,34.4c-1.9,4.9-6.8,9.5-11.9,9.5c-5.1,0-6.5,0-6.5,0v-8.8
		c0,0,1,0.4,2.8,0.4c1.8,0,3.7-0.2,4.9-2.1c1.3-1.9,1.7-3.2,1.7-3.2L211,44.1z"/>
	<path class="st0" d="M195.6,43.5c-8.8,0-13.9,2.7-13.9,2.7l2.8,7c0,0,4.9-2.1,8.5-2.1c4.3,0,3.9,4.1,3.9,4.1s-2.7,0-5.2,0
		c-3.8,0-8.3,1.2-10.4,3.4s-3,4.4-2.9,7.9c0.1,3.5,1.7,8.9,10,8.9c6.5,0,9.5-4.6,9.5-4.6l2.1,4.1h7.7c0,0,0-12.7,0-19
		S204.5,43.5,195.6,43.5z M197,63.7c0,1.7-1.9,4-4.4,4.2c-2.1,0.2-3.4-0.9-3.4-2.8c0-1.9,1.9-3.8,4-3.8c2.2,0,3.7,0,3.7,0
		S197,62,197,63.7z"/>
	<path class="st0" d="M159.6,35.1c-7.5,0-13.9,0-13.9,0v39.7c0,0,10.6,0.2,10.6,0c0-0.2,0-13,0-13s1.6,0,4.3,0
		c4.4,0,13.9-2.3,13.9-13.4S167.1,35.1,159.6,35.1z M158.6,53c-1.7,0-2.3,0-2.3,0v-9.1c0,0,2.1,0,3.7,0c1.6,0,3.7,0.9,3.7,4.6
		S160.4,53,158.6,53z"/>
</g>
</svg>
