<?xml version="1.0" encoding="utf-8"?>
<!-- Generator: Adobe Illustrator 22.0.1, SVG Export Plug-In . SVG Version: 6.00 Build 0)  -->
<svg version="1.1" id="Layer_1" xmlns="http://www.w3.org/2000/svg" xmlns:xlink="http://www.w3.org/1999/xlink" x="0px" y="0px"
	 viewBox="0 0 297 100" style="enable-background:new 0 0 297 100;" xml:space="preserve">
<style type="text/css">
	.st0{fill:#00A1E4;}
</style>
<g>
	<g>
		<path class="st0" d="M43,51.4l-8.6,22.8h-5.7l-8.5-22.8h5.7l5.7,15.5l5.7-15.5H43z"/>
		<rect x="45.7" y="42.8" class="st0" width="5.7" height="5.8"/>
		<rect x="45.7" y="51.3" class="st0" width="5.7" height="22.9"/>
		<path class="st0" d="M97.1,74.3h-5.4c-0.2-0.7-0.3-1.3-0.5-2.2c-1.3,1.5-3.5,2.2-6.4,2.2c-2,0-3.7-0.5-5-1.4
			c-1.5-1.1-2.3-2.7-2.3-4.8c0-3,1.2-5,3.5-6.1c1.1-0.5,3.3-1,6.6-1.4c2.3-0.3,3.5-0.9,3.5-1.9c0-0.8-0.4-1.5-1.1-2
			c-0.7-0.5-1.5-0.8-2.5-0.8c-1,0-1.8,0.3-2.5,0.8c-0.8,0.6-1.2,1.4-1.3,2.4h-5.6c0.1-1.8,0.6-3.2,1.3-4.3c0.7-1.1,1.8-1.9,3.4-2.5
			c1.5-0.5,3.1-0.8,5-0.8c6.3,0.1,9.4,3,9.4,8.9V74.3z M90.9,63.2c-0.6,0.5-1.6,0.8-3,1.1c-1.6,0.3-2.7,0.6-3.2,0.9
			c-1,0.5-1.5,1.4-1.5,2.7c0,1.6,0.9,2.5,2.6,2.5c0.8,0,1.6-0.2,2.5-0.6c0.8-0.4,1.5-0.8,1.9-1.3c0.6-0.7,0.9-1.8,0.9-3.2
			c0-0.3,0-0.6,0-1.1C90.9,63.7,90.9,63.4,90.9,63.2z"/>
		<path class="st0" d="M122.9,63.1c0,3.1-0.7,5.6-2.3,7.6c-1.7,2.3-4.2,3.5-7.5,3.5h0c-2.9,0-5.2-1.1-7.3-3.4V80H100V51.5h5.7
			c0,0,0,3.3,0,3.4c0,0,3-3.3,6.9-3.3c2,0,3.8,0.5,5.5,1.6c1.7,1.1,2.9,2.4,3.6,4.1C122.5,58.9,122.9,60.8,122.9,63.1z M116.5,63.1
			c0-4.4-1.8-6.6-5.4-6.6c-3.5,0-5.2,2.3-5.2,6.9c0,1.9,0.6,3.5,1.6,4.6c1,1,2.2,1.6,3.6,1.6c1.4,0,2.7-0.5,3.6-1.6
			C115.9,66.8,116.5,65.1,116.5,63.1z"/>
		<path class="st0" d="M145.7,74.3h-5.9v-14c0-1.5-0.2-2.6-0.7-3.2c-0.6-0.7-1.6-1.1-3.1-1.1c-1.4,0-2.5,0.5-3.3,1.4
			c-0.8,0.9-1.2,2.1-1.2,3.6v13.4h-5.9V42.8h5.9v11.7c0.4-0.9,1.3-1.7,2.5-2.3c1.2-0.6,2.6-0.9,4-0.9c2.1,0,3.8,0.5,5.2,1.6
			c1.6,1.2,2.4,3,2.4,5.3V74.3z"/>
		<path class="st0" d="M194.3,74.3h-5.9v-14c0-1.5-0.2-2.6-0.7-3.2c-0.6-0.7-1.6-1.1-3.1-1.1c-1.4,0-2.5,0.5-3.3,1.4
			c-0.8,0.9-1.2,2.1-1.2,3.6v13.4h-5.9V51.4h5.9v3.2c0.4-0.9,1.3-1.7,2.5-2.3c1.2-0.6,2.5-0.9,4-0.9c2.1,0,3.8,0.5,5.2,1.6
			c1.6,1.2,2.4,3,2.4,5.3V74.3z"/>
		<path class="st0" d="M74.3,74.3h-5.9v-14c0-1.5-0.2-2.6-0.7-3.2c-0.6-0.7-1.6-1.1-3.1-1.1c-1.4,0-2.5,0.5-3.3,1.4
			c-0.8,0.9-1.2,2.1-1.2,3.6v13.4h-5.9V51.4h5.9v3.2c0.4-0.9,1.3-1.7,2.5-2.3c1.2-0.6,2.5-0.9,4-0.9c2.1,0,3.8,0.5,5.2,1.6
			c1.6,1.2,2.4,3,2.4,5.3V74.3z"/>
		<path class="st0" d="M217.3,64.3h-14.6c0.1,1.8,0.7,3.2,1.7,4.1c0.9,0.8,1.9,1.2,3.1,1.2c0.9,0,1.7-0.2,2.4-0.6
			c0.7-0.4,1.2-1,1.4-1.7h5.7c-0.6,2.2-1.8,3.9-3.4,5.1c-1.6,1.2-3.6,1.8-5.9,1.8c-7.1,0-10.6-3.9-10.6-11.8c0-3.3,0.9-6,2.7-8
			c1.8-2,4.3-3,7.6-3C213.9,51.4,217.3,55.7,217.3,64.3z M211.5,60.7c-0.1-1.5-0.6-2.6-1.5-3.5c-0.8-0.8-1.8-1.3-2.9-1.3
			c-1.1,0-2,0.4-2.7,1.2c-0.9,0.8-1.4,2-1.6,3.5H211.5z"/>
		<path class="st0" d="M171.4,62.8c0,3.5-1,6.3-3.1,8.4c-2,2.1-4.8,3.1-8.3,3.1c-3.5,0-6.3-1.1-8.4-3.2c-2.1-2.1-3.1-4.9-3.1-8.3
			c0-3.4,1-6.2,3-8.3c2-2.1,4.8-3.2,8.4-3.2c3.6,0,6.4,1.1,8.4,3.2C170.4,56.6,171.4,59.4,171.4,62.8z M165.4,62.8
			c0-4.5-1.8-6.7-5.4-6.7c-3.6,0-5.4,2.2-5.4,6.7c0,4.5,1.8,6.7,5.4,6.7C163.6,69.5,165.4,67.2,165.4,62.8z"/>
		<path class="st0" d="M276.9,31.7c-0.2-5-4.3-8.9-9.3-8.9c0,0,0,0-0.1,0c-2.7,0-5.4,1.2-7.3,3.6c-0.9,1.2-1.5,2.6-1.8,4
			c-0.3,1.6-0.2,3.2-0.5,4.7c-0.3,1.5-0.7,2.9-1.2,4.2c-2.4,5.9-7.8,9.6-14.3,9.6c-3.1,0-6.2-1-8.8-2.9c-4.8-3.5-8.5-10.1-10.3-15.7
			c-1-3-1.7-5.7-4.1-7.8c-1.5-1.3-3.1-2.1-4.9-2.4c-0.6-0.1-1.3-0.2-2-0.2c-3.4,0-6.4,1.6-8.4,4.1c0,0,0,0,0,0
			c0,0.1-0.1,0.1-0.1,0.2c-0.1,0.1-0.1,0.1-0.2,0.2c-0.1,0.1-0.2,0.3-0.3,0.4c0,0,0,0,0,0c-3.1,4.8-2.3,11.4,2.1,15.2
			c1.4,1.2,3,1.8,4.7,2.1c0.7,0.2,1.4,0.2,2.2,0.2c0,0,0,0,0,0c1.8,0.1,3.7,0.1,5.5,0.3c6.4,0.9,14.2,4.2,16.7,10.7
			c0.6,1.6,1,3.6,1,5.3c0,0.9-0.1,1.8-0.4,2.5c-0.4,1.6-1.1,3.3-2.4,4.2c-2.1,1.5-4.8,0.9-7,2.3c-0.6,0.4-1.1,0.9-1.5,1.4
			c-0.6,0.8-1,1.6-1.2,2.6c-0.1,0.5-0.2,1.1-0.2,1.7c0,3.6,2.8,6.5,6.3,6.5c0.7,0,1.4-0.1,2.1-0.4c1.1-0.4,2-1.1,2.8-2
			c1.3-1.6,1.7-3.6,1.3-5.5c-0.3-1.7-0.2-4.2,1-5.6c1.1-1.3,2.8-1.8,4.4-2.1c1.7-0.3,3.5-0.1,5.2-0.6c1.5-0.4,2.8-1.4,3.8-2.6
			c0.9-1.1,1.5-2.5,1.8-3.9c1.5-8.3,4.4-14.4,14.8-14.9c1.6-0.1,3.2,0,4.7-0.6c1.5-0.6,2.8-1.6,3.8-2.9
			C276.4,36.8,277.1,34.2,276.9,31.7z"/>
	</g>
</g>
</svg>
