<?xml version="1.0" encoding="utf-8"?>
<!-- Generator: Adobe Illustrator 22.0.1, SVG Export Plug-In . SVG Version: 6.00 Build 0)  -->
<svg version="1.1" id="Layer_1" xmlns="http://www.w3.org/2000/svg" xmlns:xlink="http://www.w3.org/1999/xlink" x="0px" y="0px"
	 viewBox="0 0 100 100.2" style="enable-background:new 0 0 100 100.2;" xml:space="preserve">
<style type="text/css">
	.st0{fill:#1B477D;}
	.st1{fill:#FFFFFF;}
	.st2{fill:#AC2441;}
</style>
<g>
	<g>
		<circle class="st0" cx="50.2" cy="49.6" r="32.4"/>
		<path class="st1" d="M24.4,48.1c0,0,0.4-0.3,0.1-0.3s-1.9,0-2.1,0S22.1,48,21.9,48c-0.1,0-0.6,0.2-0.7,0.3
			c-0.1,0.1-0.4,0.1-0.4,0.7c0,0.6,0,2.9,0,3.2c0,0.2,0.3,0.2,0.3,0.5s0,1.3,0,1.4c0,0.1,0.2,0.2,0.2,0.3s0,0.6,0,0.7
			c0.1,0.2,0,0.3,0.3,0.3c0.3,0,0.9,0.1,0.9,0.1s0,0.1,0.2,0.2c0.1,0.1,0.4,0.3,0.5,0.3s0.6,0,0.7-0.3c0.2-0.3,0-0.6,0.2-0.7
			s0.5-0.3,0.5-0.5c0-0.2,0.2-0.3,0.3-0.7s0.1-0.5,0.2-0.6s0.2-0.2,0.2-0.5s0-0.6,0.1-0.8c0.1-0.1,0.4-0.3,0.5-0.5
			c0.1-0.2,0.1-0.3,0.2-0.4c0.1-0.1,0.3-0.2,0.2-0.6c0-0.4-0.2-0.3-0.2-0.5c0-0.2,0-0.5,0-0.7c0-0.3,0-0.4,0.1-0.5
			c0.1-0.2,0.2-0.1,0.2-0.4c0-0.3,0.1-0.6,0-0.6c-0.1,0-0.6,0-0.6,0s-0.1,0.4-0.1,0.5s-0.1,0.4-0.2,0.5c-0.1,0.1-0.2,0-0.2,0.3
			c0,0.2-0.2,0.3-0.2,0.4S25,49.5,25,49.7c0,0.2,0,0.4-0.1,0.5c-0.1,0.1-0.2,0.1-0.3,0.2c-0.1,0.1-0.1,0.1-0.2,0.1
			c-0.1,0.1-0.1,0.1-0.2,0.1c-0.1,0,0.1,0.1-0.1,0c-0.2-0.1-0.1,0.1-0.2-0.1c-0.1-0.2-0.2-0.2-0.2-0.3c0-0.1-0.1,0,0-0.2
			c0.1-0.2,0.1-0.4,0.1-0.5c0-0.1,0.1-0.1,0-0.3c0-0.2-0.1-0.2,0.1-0.4C24,48.6,24.4,48.1,24.4,48.1z"/>
		<path class="st1" d="M23.8,45.9c0.2,0.2,0.2,0.4,0.7,0.4s1.3,0,1.5,0c0.2,0,0.5-0.2,0.5-0.4s-0.1-0.3-0.3-0.4
			c-0.1-0.1-0.5-0.3-0.7-0.3c-0.2,0-1.6,0-1.6,0c0,0-0.3-0.2-0.4-0.2c-0.1,0-0.4-0.1-0.4-0.1c-0.1,0-0.2,0.1-0.2,0.3
			s0.1,0.4,0.2,0.5C23.3,45.8,23.8,45.9,23.8,45.9z"/>
		<path class="st1" d="M43.5,48c0.3,0,0.5-0.2,0.4-0.4c-0.1-0.3-0.4-0.4-0.4-0.7c-0.1-0.3,0.2-0.8,0.2-0.8H46c0,0,0.2,1,0.4,1.2
			c0.2,0.2,1,0.4,1.1,0.5c0.1,0.1,0.4,0,0.2-0.2c-0.2-0.2-0.5-0.7-0.5-1c0-0.3,0-1,0-1.1s0.3-0.5,0.5-0.6c0.2-0.1,0.3-0.1,0.5-0.2
			c0.2-0.1,0.3,0,0.3-0.3c0-0.2,0.3-0.6,0.3-1.1c0-0.4,0-0.9,0.2-1.1c0.1-0.2,0.3-0.2,0.6-0.2c0.3,0,0.7,0,0.7-0.1
			c0.1-0.1,0.3-0.2,0.5-0.2s0.8,0.1,0.9,0s0.2-0.3,0.5-0.3s0.6,0.2,0.6,0c0-0.2,0-0.4-0.1-0.6c-0.1-0.2-0.2-0.5-0.3-0.5
			s-0.1-0.3-0.3-0.3c-0.2,0-0.6-0.2-0.5-0.4c0.1-0.2,0.3-0.3,0.3-0.3s0.3,0.1,0.2-0.2c-0.1-0.2,0-0.6,0-0.7s-0.2-0.1-0.4-0.3
			c-0.2-0.2-0.3-0.5-0.4-0.6c-0.1-0.1-0.6-1.1-0.7-1.3c-0.1-0.2-0.6-0.5-0.8-0.1c-0.2,0.3-1.9,2.2-2.1,2.3c-0.2,0.2-0.4,0.2-0.4,0.4
			c0,0.2-0.2,0.5-0.5,0.6c-0.2,0.2-0.8,0.7-0.7,0.3c0-0.4,0.1-0.6,0-1c-0.1-0.4,0-0.4-0.3-0.7c-0.3-0.3-0.3-0.3-0.3-0.5
			c-0.1-0.2,0.1-0.7,0.2-0.8c0.1-0.1,0.6-0.2,0.7-0.5c0-0.3,0-0.5-0.1-0.6c-0.1-0.2,0-0.4,0.2-0.6c0.2-0.2,0.9-0.2,1.3-0.8
			c0.4-0.5,0.3-1,0.4-1.2c0.1-0.2,0-0.5,0.2-0.7c0.2-0.2,0.2-0.4,0.3-0.5c0-0.1,0.2-0.1,0.1-0.3c-0.1-0.2-0.2-0.2-0.2-0.4
			c0-0.2,0-0.7,0.1-0.7s0.4-0.3,0.4-0.4c0-0.2-0.3-0.4-0.1-0.6c0.2-0.2,0.4-0.4,0.5-0.2c0.2,0.2,0.9,0.8,0.9,0.8
			c0,0.1-0.1,1.2,0.1,1.4c0.2,0.2,0.7,0.3,0.7,0.8s-0.4,0.8-0.5,1c-0.2,0.2-0.3,0.9,0,1c0.2,0.1,0.5,0.2,0.7,0.4s0.4,0.5,0.6,0.6
			c0.2,0.1,0.5,0,0.6-0.3c0.1-0.4,0.1-0.6,0.2-0.8c0.1-0.2,0-0.4,0.2-0.5c0.2-0.1,0.6-0.2,0.6-0.6s-0.2-1.3-0.4-1.7
			s-0.3-0.4-0.4-0.6c-0.1-0.2-0.1-0.3-0.2-0.3s-0.2-0.1-0.3-0.2c-0.1-0.1-0.5-0.1-0.5-0.2c-0.1-0.1-0.1-0.1-0.3-0.2
			c-0.1-0.2-0.2-0.3-0.3-0.4c-0.1-0.1-0.2-0.1-0.1-0.2c0-0.1,0.2-0.4,0.5-0.6c0.3-0.2,0.7-0.3,0.9-0.2c0.2,0,0.5,0.2,0.6,0.1
			c0.1-0.1,0.6-0.4,0.7-0.4c0.1,0,0.2-0.2,0.4-0.1c0.1,0,0.8,0,0.8,0s0.1,0.4-0.1,0.5c-0.2,0.2-0.7,0.5-0.8,0.8
			c-0.1,0.3-0.2,0.8-0.1,1s0.6,0.5,0.9,0.5c0.3,0,0.6-0.3,0.6-0.1c0.1,0.2,0.3,0.6,0.2,0.8c-0.2,0.2-0.2,1,0.2,1.5
			c0.3,0.5,0.9,1.4,1.1,1.8c0.2,0.4,1.6,1.4,1.6,1.6s0.7,0.6,0.9,0.6c0.2,0,0.2-0.1,0.2-0.2c0-0.1-0.1-0.5-0.3-0.7
			c-0.2-0.2-0.1-0.5-0.1-0.7c0-0.2,0.1-0.4,0.1-0.6c0-0.2,0-0.3,0.3-0.6s0.3-0.6,0.5-0.7c0.2-0.2,0.1-0.4,0.1-0.6s-0.1-0.2-0.2-0.3
			c-0.1-0.1-0.1-0.1-0.2-0.2c0-0.1-0.3-0.5-0.2-0.8c0.1-0.2,0-0.4,0-0.4s0.5-0.2,0.6-0.2c0.1-0.1,0.1-0.7,0-0.9
			c-0.1-0.2-0.3-0.4-0.4-0.6c-0.1-0.2,0.2-0.4,0-0.5c-0.2,0-0.3,0-0.2-0.2c0.1-0.1,0.5-0.3,0.8-0.6c0.2-0.3,0.3-0.5,0.3-0.6
			s-0.6-0.8-0.8-0.9c-0.2-0.1-0.5-0.4-0.6-0.6c-0.1-0.2-0.1-0.4-0.5-0.6c-0.3-0.2-0.5-0.3-0.7-0.2c-0.2,0.1-0.4,0.4-0.6,0.4
			c-0.2,0-0.5,0.1-0.5,0c0-0.1-0.2-0.2-0.4-0.1s-0.3,0.2-0.4,0.4c-0.1,0.2-0.6,1-0.8,1.1s-0.9,0.1-1,0.1c-0.1,0-0.7,0-0.8,0
			c0,0-0.7-0.5-0.9-0.6c-0.2-0.1-0.6-0.3-1.2,0.1c-0.5,0.4-0.9,0.7-1.3,0.7c-0.4,0-0.6,0-0.6,0.2c-0.1,0.2-0.2,0.3-0.3,0.4
			c0,0-0.4,0.2-0.5,0.2c-0.1,0-0.4-0.1-0.4-0.1s-0.2-0.1-0.2-0.1c-0.1,0-0.1,0.2-0.1,0.2c0,0.1-0.5,0.6-0.6,1.1
			c-0.1,0.5,0.1,1.1,0.2,1.2c0.1,0.2,0.1,0.4,0.1,0.5c0,0-0.1,0-0.2,0.1c-0.1,0.1,0,0.2-0.1,0.3c-0.1,0.1-0.1,0.1-0.2,0.1
			s0,0-0.2,0.1c-0.2,0.1,0,0-0.4,0.2c-0.5,0.2-0.4,0.3-0.8,0.3c-0.4,0-0.7-0.3-0.9-0.4c-0.2-0.1-0.4-0.2-0.5-0.2
			c0,0-0.5,0.1-0.7,0.1s-0.6,0-0.7-0.1c-0.1-0.1-0.2-0.2-0.3-0.4c0-0.2-0.2-0.9-0.6-0.9c-0.4-0.1-0.7-0.1-0.8-0.3
			c0-0.2-0.1-0.5-0.2-0.7s-0.4-0.4-0.4-0.6c0-0.2-0.4-1.1-0.8-1.2c-0.4-0.2-1.5-0.2-1.8-0.2c-0.3,0-1.8,0.7-2.3,1.3
			c-0.5,0.6-0.6,0.7-0.8,0.7c-0.2,0.1-0.6,0-0.5,0.3s-0.3,0.4,0.1,0.8c0.4,0.3,1.1,0.3,1.1,0.5c0,0.2,0.4-0.1,0.4,0.5
			c0,0.6-0.3,0.6,0.1,0.9c0.4,0.3,0.7,0.4,0.9,0.8s0.5,0.6,0.5,0.9c0,0.3,0.3,0.6,0.3,0.8c0.1,0.2,0.2,0.5,0.1,0.8s-0.4,0.6-0.4,1
			c0,0.4-0.1,0.8,0,0.8c0.1,0.1,0.3,0.2,0.6,0.5c0.3,0.2,0.3,0.5,0.1,0.7c-0.2,0.2-0.3,0.6-0.4,0.8c-0.1,0.3,0,1,0,1.4
			c0,0.3,0.2,2,0.5,2.3s0.7,1.2,0.8,1.4c0.1,0.2,0.3-0.3,0.3-0.6c0-0.3,0.4-0.7,0.5-0.6c0.2,0.1,0.2,0.6,0.2,1c0,0.4,0.3,1.8,1,2.3
			c0.8,0.5,1.4,0.8,1.7,0.9C43,47.9,43.4,48,43.5,48z"/>
		<path class="st1" d="M45.2,30.9c0,0-0.2-0.5,0-0.7c0.2-0.2,0.3-0.5,0.5-0.8c0.1-0.3,0.3-0.6,0.3-0.7c0-0.2,0-0.2-0.2-0.1
			c-0.3,0.1-0.4,0-0.6,0.1c-0.2,0-0.4,0.1-0.5,0c-0.2-0.1-0.3,0-0.3-0.3s-0.1-0.5-0.1-0.7c0-0.1-0.2-0.1-0.1-0.4
			c0.1-0.3-0.1-0.5,0.2-0.6c0.3-0.1,1.1-0.3,0.9-0.5c-0.2-0.2,0.1-0.1-0.6-0.4c-0.7-0.3-0.5-0.3-0.7-0.4c-0.2-0.1-0.5,0-0.5,0.1
			s-0.2,0.2-0.4,0.3c-0.2,0.1-0.2,0.2-0.4,0.2s-0.3-0.1-0.4,0.2c-0.2,0.2-0.4,0.6-0.6,0.9c-0.2,0.3-0.2,0.6-0.2,0.6c0,0,1.6,0,1.6,0
			s-0.2,0.6-0.3,0.8c-0.2,0.2-0.7,0.6-0.7,0.8c0.1,0.2,0,0.3,0,0.3h1.1c0,0,0,0.1,0.1,0.3s0,0.3,0.2,0.6s0.6,0.2,0.7,0.2
			c0.1,0,0.5,0,0.5,0s0.3,0.2,0.5,0.3C45.1,31,45.2,30.9,45.2,30.9z"/>
		<path class="st1" d="M46.8,28c0-0.1,0.2-0.5,0.1-0.8c-0.1-0.3-0.4-0.4-0.6-0.4s-0.5-0.2-0.6-0.2c-0.2,0-0.2,0-0.2,0.2
			c0.1,0.2,0.3,0.5,0.4,0.7c0.1,0.2,0.2,0.3,0.4,0.4C46.6,28,46.8,28,46.8,28z"/>
		<path class="st1" d="M35.7,26.1c0,0,0.3-0.5,0.5-0.8c0.3-0.3,0.4-0.6,0.6-0.7c0.2-0.2,0.5-0.5,0.6-0.6c0-0.1,0.2-0.4,0-0.4
			c-0.2,0-0.4,0-0.7,0.1s-0.8,0.4-1,0.5s-1,0.5-1.1,0.6c-0.1,0.1-0.3,0.2-0.1,0.3c0.2,0.1,0.4,0.3,0.6,0.5
			C35.2,25.9,35.7,26.1,35.7,26.1z"/>
		<path class="st1" d="M30.8,28.9c0.1-0.2,0.1-0.3,0.1-0.5c0-0.1-0.1-0.3-0.3-0.2c-0.2,0.1-0.4,0.3-0.4,0.4c0,0-0.2,0.2-0.2,0.3
			c-0.1,0-0.2,0.1-0.2,0.2c0,0.1,0,0.2-0.1,0.2c-0.1,0,0,0-0.2,0.1c-0.2,0.1-0.1,0.1-0.3,0.2c-0.2,0.1-0.1,0.1-0.3,0.2s0,0-0.3,0.3
			s-0.5,0.4-0.6,0.5c0,0.1,0,0-0.2,0.3s-0.1,0.4-0.3,0.6c-0.2,0.3-0.5,0.6-0.2,0.5c0.2-0.1,0.3-0.3,0.6-0.5c0.3-0.2,0.4-0.3,0.6-0.4
			s0,0.2,0.3-0.2c0.3-0.3,0.1-0.1,0.3-0.3c0.2-0.2,0-0.1,0.4-0.4s0.2-0.1,0.4-0.3c0.3-0.2,0.2-0.2,0.3-0.3c0.1-0.1,0.1,0,0.2-0.1
			c0.1-0.1-0.1,0.1,0.1-0.1s-0.1-0.4,0.1-0.4S30.8,28.9,30.8,28.9z"/>
		<path class="st1" d="M61,37.4c0.1-0.1,0.3-0.3,0.3-0.4c0.1-0.1,0.2,0,0.1-0.2c-0.1-0.2,0.1-0.5,0.2-0.4c0.1,0.1,0.4,0.1,0.6,0.2
			c0.1,0.1,0.3,0.2,0.1,0.4s-0.6,0.5-0.7,0.6c-0.2,0.1-0.4,0.1-0.5,0.1c-0.1,0-0.4,0-0.4-0.1C60.8,37.5,61,37.4,61,37.4z"/>
		<path class="st1" d="M62.4,42.5c0.1-0.2,0.2-0.3,0.1-0.5c0-0.2,0-0.4,0-0.5s-0.1-0.2-0.2-0.1c-0.1,0-0.2,0.3-0.3,0.6
			s-0.1,0.8-0.1,0.9s-0.2,0.2-0.2,0.4c0,0.2-0.2,0.3-0.1,0.4c0.1,0.1,0.3,0.2,0.4,0.1c0.1,0,0.2,0.1,0.3-0.2
			C62.5,43.2,62.4,42.5,62.4,42.5z"/>
		<path class="st1" d="M63.4,41.1c0,0-0.1-0.2-0.1-0.3c0-0.1,0.1-0.3,0.3-0.5s0.3-0.6,0.5-0.6c0.2,0,0.2,0,0.2,0.3
			c0,0.3-0.1,1.4,0,1.4c0.1,0,0.1,0.1,0.2,0.2c0.1,0.1,0.1,0.3,0.3,0.5c0.2,0.1,0.3,0.4,0.3,0.4c0,0.2,0,0.5-0.1,0.6
			c-0.1,0.2-0.1,0.3-0.2,0.2c-0.1-0.1,0-0.2-0.1-0.2c-0.1,0-0.2-0.1-0.3,0c-0.1,0.1-0.3,0.1-0.4,0.2c-0.1,0-0.3,0.2-0.4,0.2
			c-0.1,0-0.2-0.1-0.1-0.2c0.1-0.2,0.2-0.5,0.3-0.7c0-0.2,0.1-0.5,0-0.6c-0.1-0.1-0.3-0.1-0.2-0.2C63.5,41.4,63.5,41.1,63.4,41.1
			L63.4,41.1z"/>
		<path class="st1" d="M65.9,42.4c0-0.9,0.3-1.3,0.5-1.5c0.1-0.2,0.2-0.4,0.5-0.5c0.3-0.1,0.4-0.1,0.6-0.3c0.2-0.1,0.5-0.5,0.6-0.6
			c0.1-0.1,0.2-0.4,0.3-0.5c0,0,0.4-0.2,0.4-0.6s0-0.7,0.2-1c0.2-0.3,0.2-0.7,0.5-1c0.2-0.3,0.3-0.8,0.6-1.1s0.3-0.4,0.4-0.5
			c0-0.1-0.1-0.8,0-1.1c0.1-0.3,0.2-0.3,0.2-0.6c0.1-0.3-0.3-1-0.4-1.1c-0.1-0.1,0-0.1-0.3,0.3c-0.3,0.3-0.4,0.4-0.5,0.7
			c-0.2,0.3-0.3,0.4-0.3,0.6c0,0.2-0.3,0.9-0.3,1.1c0,0.2-0.1,0.2-0.2,0.4c-0.2,0.2,0,0.2-0.2,0.5s-0.2,0.3-0.3,0.4
			c-0.1,0.1,0,0.1-0.1,0.2s-0.3,0.3-0.3,0.3l-0.2,0.2c0,0-0.1,0.3-0.1,0.4s0.1,0.2,0,0.3s-0.1,0-0.2,0.3c-0.2,0.3,0,0.7-0.1,0.9
			C67.1,39,67,39.3,67,39c0-0.3,0-0.3-0.1-0.5c-0.1-0.1-0.2-0.1-0.3-0.2s-0.1-0.1-0.2-0.1S66,38.4,66,38.4s-0.4,0.5-0.4,0.5
			c-0.1,0,0-0.2,0-0.6s0.3-0.9,0.3-1S65.8,37,66,36.8c0.2-0.2,0.3-0.3,0.4-0.6c0.1-0.3,0.2-0.4,0.3-0.6c0.1-0.2,0.3-0.2,0.2-0.4
			c-0.1-0.2-0.1-1.2,0-1.3s0.1-0.3,0.3-0.5c0.2-0.2,0-0.2,0.3-0.2c0.3,0,0.6-0.2,0.6-0.4c-0.1-0.3-0.3-0.4-0.2-0.6
			c0.1-0.2,0.3-0.4,0.4-0.6s0-0.8,0.2-1.1c0.2-0.3,0.2-0.8,0.3-1c0.1-0.2-0.1-0.7,0-1s-0.1-1,0.2-0.9c0.3,0.1,1.1,1,1.4,1.3
			c0.3,0.3,0.9,1,1.2,1.2c0.3,0.3,0.9,0.6,0.8,0.9c-0.2,0.3-0.4,0.4-0.6,0.6s-0.2,0.2-0.2,0.4c0,0.2,0.1,0.6,0.1,0.8
			c-0.1,0.2,0,0.4-0.1,0.4c-0.1,0-0.1,0.4-0.1,0.4c0.1,0,0.3,0.2,0.5-0.1s0.2,0,0.3-0.3s0.1-0.2,0.2-0.6c0.1-0.3,0.3-0.9,0.4-0.9
			c0.1,0,0.5,0.3,0.5,0.5c0,0.2-0.1,0.2,0.3,0.5c0.4,0.3,0.7,1,0.8,1.2c0.2,0.2,0.9,1.3,1.2,1.8c0.4,0.5,0.8,1.1,0.8,1.4
			c0,0.3-0.1,0.8,0,0.9c0.1,0.1,0.6,0.8,0.7,1.1c0.1,0.3,0.5,1.1,0.6,1.3c0.1,0.2,0.3,1.2,0.5,1.5c0.2,0.3,0.3,0.6,0.3,0.8
			c0,0.2-0.1,0.1,0,0.3c0.1,0.2,0,0.8,0.2,0.9c0.1,0.2,0,0.3,0.1,0.5c0,0.2,0.1,0.5,0.2,0.6c0.1,0.2,0.2,0.2,0.2,0.5
			c0,0.3-0.1,0.8,0.1,0.9s0.2,0.4,0.2,0.6s-0.1,0.8-0.2,0.6s-0.2-0.4-0.5-0.6s-0.3-0.2-0.5-0.3c-0.2-0.1-0.8,0.1-0.8,0.1
			s0.1,0.7,0,0.8c0,0.2-0.1,0.3,0.1,0.4c0.2,0.1,0.2,0.2,0.3,0.4c0,0.2,0,0.2,0.1,0.3c0.1,0.1,0.4,0.3,0.8,0.3s0.8,0.3,0.6,1
			c-0.2,0.7,0.2,2.3-0.5,5.6s-2,6.8-3,8.5c-1,1.7-1.3,2.3-1.6,2.3c-0.3,0-0.6-0.2-0.5-0.7c0-0.5,0-0.8,0.1-1.1
			c0.1-0.3,0.1-0.5,0.2-0.9c0.1-0.4,0-0.9,0.1-1.1c0.1-0.2,0.3-0.9,0.3-1.4c0-0.5,0-1.4,0-1.7s-0.1-0.5,0.1-0.6
			c0.2-0.2,0.6-0.6,0.7-1c0.1-0.4-0.2-0.5-0.3-0.7s-0.6,0-0.8,0.2c-0.2,0.2-0.6,0.6-0.9,0.8c-0.3,0.2-0.6,0.8-1.8,0.5
			s-1.4-0.1-1.9-0.4c-0.5-0.2-0.7-0.3-0.9-0.5c-0.2-0.2,0-0.2-0.5-0.3c-0.5-0.2-0.6-0.1-1.2-0.5c-0.6-0.4-1.7-1-1.8-1.1
			c-0.2-0.1-0.6-0.6-0.7-0.7s0-0.1-0.3-0.3c-0.2-0.2-0.2-0.1-0.3-0.4c-0.1-0.2,0.3-0.5-0.1-1c-0.4-0.6-0.4-0.9-0.3-1
			c0.1-0.1,0.2-0.2,0.1-0.5c-0.2-0.2-0.3,0-0.1-0.4c0.2-0.4,0.1-0.7,0.2-0.9c0.1-0.2-0.1,0,0.2-0.4s0.2-0.3,0.2-0.5
			c0.1-0.2,0-0.2,0.2-0.5c0.2-0.3,0.3-0.4,0.4-0.6c0.1-0.2,1.2-0.8,1.8-0.9c0.6-0.1,1-0.3,1.1-0.4c0.1-0.1,0.4-0.1,0.5-0.1
			c0.2,0,0.7-0.1,1.3,0c0.6,0,1,0.2,1.3-0.1c0.3-0.2,0.7-0.1,1.2-0.6c0.5-0.6,0.2-1,0.5-1s0.5,0.1,1,0.3c0.4,0.2,0.3,0.4,1,0.3
			c0.8,0,1.2,0.1,1.2-0.2c0-0.3,0.1-0.3,0-0.4s-0.3,0-0.3-0.2s0-0.8,0.1-0.9c0.1-0.1,0.2,0,0.2-0.3c0-0.3-0.1-0.5,0-0.5s0.1,0,0.1,0
			s-0.1-0.1-0.2-0.3c-0.1-0.2,0-0.6-0.2-0.6s-0.3,0.1-0.5,0.2c-0.1,0.1,0,0-0.3,0.2c-0.2,0.2-0.3,0.2-0.5,0.4
			c-0.2,0.2,0,0.5-0.5,0.6s-0.7,0.3-0.6,0c0.1-0.3,0-0.5,0.2-0.6c0.1-0.1,0.3-0.3,0.5-0.5c0.2-0.2,0.3-0.2,0.3-0.4
			c0-0.2-0.1-0.3-0.2-0.2s-0.3-0.1-0.2-0.1c0.1,0,0.5,0,0.5-0.2c0.1-0.2-0.1-0.1,0.1-0.2c0.2-0.2,0.3-0.4,0.5-0.6
			c0.2-0.2,0-0.1,0.2-0.3c0.2-0.2,0-0.2,0.3-0.4s0.6-0.1,0.5-0.4c0-0.3,0.1-0.9,0.1-1c0-0.1-0.2,0-0.3-0.2c0-0.2-0.3-0.3-0.4-0.2
			c-0.1,0,0,0.2-0.2,0.1s-0.3,0-0.6,0c-0.3,0-0.8,0-0.9,0.1c0,0.1-0.2,0-0.2,0.3c0,0.2-0.2,0.3,0,0.6c0.2,0.3,0.2,0.4,0.3,0.8
			c0,0.5,0.1,0.8,0,1c0,0.3,0.3,0.4-0.2,0.5c-0.5,0.2-0.5,0.2-0.6,0.2c-0.2,0.1-0.1,0.2-0.2,0.3c-0.1,0.1,0,0.2-0.3,0.3
			c-0.2,0.2-0.3,0-0.4,0.2s-0.4,0.3-0.6,0.2s-0.2-0.2-0.3-0.3c-0.1-0.1,0,0-0.2-0.3c-0.1-0.3-0.1-0.3-0.2-0.3s-0.2-0.2-0.3,0.1
			c0,0.2-0.2,0.7,0,0.9c0.2,0.2,0.3,0,0.3,0.3c0,0.3,0.1,0.5-0.2,0.5c-0.3,0-0.2,0.1-0.5,0c-0.2-0.1,0,0.2-0.2-0.1
			c-0.3-0.3-0.1-0.4-0.4-0.4c-0.2,0-0.3,0.2-0.5,0.3s-0.2,0.1-0.2,0.3s-0.2,0.6-0.3,0.6c-0.1,0-0.3-0.4-0.4-0.3
			c-0.1,0.1-0.6,0.6-0.6,0.8s-0.3,0.6-0.4,0.7c-0.1,0.1,0.1,0.1-0.1,0.3s-0.2,0.3-0.5,0.4c-0.3,0.1-0.5,0-0.6,0
			c-0.1,0-0.2-0.2-0.3-0.4c-0.1-0.1-0.2-0.3-0.1-0.4c0-0.1,0.1-0.2,0.1-0.4c0-0.2,0.1-0.5,0.1-0.6c0-0.2,0-0.2,0.2-0.4
			c0.1-0.2,0.6-0.7,0.6-0.9c0-0.2,0.1-0.3,0-0.3C65.9,43.5,65.9,42.4,65.9,42.4z"/>
		<path class="st1" d="M54.8,61.4c0.4,0,0.7-0.2,0.7-0.5c0-0.3-0.1-0.3,0-0.6c0.2-0.3,0.3-0.4,0.4-0.5c0.1-0.1,0.2-0.1,0.3-0.3
			c0.1-0.3-0.1-0.1,0.2-0.4c0.2-0.2,0.3-0.5,0.5-0.6c0.2-0.1,0.5-0.4,0.6-0.6c0-0.1,0.2-0.6,0-0.7c-0.2-0.2-0.6-0.3-0.7-0.4
			c-0.1,0-0.3,0-0.7-0.3s-0.4-0.3-0.7-0.5c-0.3-0.2,0-0.3-0.4-0.4c-0.4-0.1-0.5-0.1-0.6-0.2c-0.1-0.1-0.2-0.4-0.3-0.6
			s-0.3-0.3-0.5-0.3c-0.2,0-0.6-0.2-0.7-0.3s-0.3-0.3-0.3-0.6c0-0.3-0.1-0.3-0.3-0.4C52,53,51.9,53,51.7,52.8
			c-0.2-0.2-0.3-0.2-0.6-0.2c-0.2-0.1-0.4-0.1-0.6-0.2c-0.2-0.1-1.2-0.8-1.3-0.9c-0.2-0.2-0.3-0.6-0.6-0.5c-0.4,0.1-0.4,0.4-0.8,0.4
			c-0.3,0-1-0.2-0.9-0.1c0.1,0.1,0.4,0.3,0.4,0.6c0,0.3-0.5,0.8-0.6,0.9s-0.2,0.5-0.5,0.7c-0.2,0.2,0,0.1-0.4,0.4
			c-0.4,0.3-0.2,0-0.5,0.5c-0.3,0.4-0.5,0.5-0.5,0.6s-0.1,0.2-0.2,0.5c-0.1,0.2-0.1,0.3-0.2,0.5c-0.1,0.2-0.1,0.5-0.1,0.8
			c0,0.2,0.3,1,0.4,1.2c0.2,0.2,0.2,0.5,0.4,0.6s0.3,0.2,0.3,0.2c0,0,0.5,0.1,0.6,0.4c0.1,0.3,0.3,0.6,0.3,0.8
			c0,0.2,0.1,0.2,0.2,0.3s0.2,0.2,0.3,0.3c0.2,0.1,0.2,0,0.3,0.2c0.2,0.2,0.3,0.3,0.3,0.6c0,0.3-0.1,0.3-0.2,0.5
			c-0.1,0.2-0.2,1.7-0.2,2.1c0,0.4-0.2,0.6-0.3,0.9c-0.2,0.3-0.4,0.3-0.5,0.4c-0.1,0.2-0.1,0.2-0.1,0.4c0,0.2,0.2,1.1,0.1,1.4
			c-0.2,0.3-0.1,0.2-0.2,0.5c-0.1,0.3-0.1,0.4-0.1,0.7c0,0.2-0.1,0.4-0.1,0.6c0,0.2,0.1,0.2,0.1,0.9c0,0.7-0.2,1-0.2,1.2
			c-0.1,0.2-0.1,0.5-0.1,0.6s-0.2,0.5,0.1,0.4c0.3-0.1,0.5-0.4,0.8-0.5c0.3-0.1,0.5,0,0.8-0.2c0.3-0.3,0.1-0.2,0.4-0.4
			s0.2,0,0.3-0.4s0.3-0.4,0.2-0.6c0-0.3-0.1-0.2-0.1-0.4c0.1-0.3,0-0.5,0.1-0.8c0.2-0.3,0.2-0.5,0.3-0.6c0.1-0.1,0-0.2,0.4-0.6
			c0.4-0.3,0.5-0.3,0.6-0.6c0.1-0.3-0.2-1.5,0.1-1.7c0.3-0.2,0.2-0.4,0.5-0.6s0.3-0.4,0.5-0.4s0.5-0.1,0.8-0.2
			c0.3-0.1,0.4-0.2,0.6-0.4c0.2-0.2,0.2-0.3,0.3-0.4s0,0,0.2-0.3s0.1-0.2,0.2-0.4s0.1-0.2,0.4-0.4c0.3-0.2,0.6-0.5,0.9-0.4
			C54.5,61.5,54.8,61.4,54.8,61.4z"/>
	</g>
	<g>
		<path class="st2" d="M3,41.3c-1-0.1-1.9,0.1-2,1.2c-0.2,1.6,1.4,2,3.6,2.4c2.1,0.3,3.9,0.4,4.1-1.2c0.2-1.6-1.6-2-2.8-2.2
			l-0.3,1.8l-0.9-0.1l0.4-2.8l4.8,0.8l-0.1,0.8l-1.2-0.2l0,0c0.7,0.4,1.3,1.2,1.1,2.2c-0.4,2.4-2.7,2.4-5.2,2.1
			C2,45.8-0.4,45,0,42.4c0.4-2.6,2.7-2.3,3.1-2.3L3,41.3z"/>
		<path class="st2" d="M2,34.9l0.5-1.5l9.6,0.6l-0.4,1.1L9.1,35l-1,2.8l2.2,1.5L10,40.4L2,34.9z M7.4,37.3l0.8-2.4l-4.6-0.3l0,0
			L7.4,37.3z"/>
		<path class="st2" d="M4.4,28.6l1-1.7l7.3,2.1l0,0l-5.4-5.3l1-1.7l8,4.6l-0.6,1l-7-4.1l0,0l6,5.8l-0.6,1l-8-2.3l0,0l7,4.1l-0.6,1
			L4.4,28.6z"/>
		<path class="st2" d="M10.3,19.4l0.7-0.9l7.2,5.8l-0.7,0.9L10.3,19.4z"/>
		<path class="st2" d="M12.9,16.2l1.1-1l7.6,3.4l0,0L16.2,13l0.8-0.8l6.4,6.7L22.4,20L15,16.6l0,0l5.2,5.4l-0.8,0.8L12.9,16.2z"/>
		<path class="st2" d="M24.8,9.7c-0.6-0.8-1.4-1.3-2.3-0.6c-1.3,0.9-0.5,2.4,0.7,4.2c1.2,1.8,2.3,3.1,3.7,2.2
			c1.3-0.9,0.4-2.5-0.3-3.5L25,13l-0.5-0.8l2.4-1.6l2.7,4l-0.7,0.5l-0.7-1l0,0c0.2,0.8,0,1.7-0.9,2.3c-2,1.3-3.7-0.3-5-2.4
			C20.9,12,19.9,9.7,22,8.3c2.2-1.5,3.5,0.4,3.8,0.8L24.8,9.7z"/>
		<path class="st2" d="M31.2,3.6l1.1-0.4L35,11l3.6-1.3l0.3,1l-4.6,1.6L31.2,3.6z"/>
		<path class="st2" d="M40.1,1l1.5-0.3l4.1,8.7l-1.2,0.2l-1.1-2.4l-2.9,0.5l-0.2,2.6l-1.2,0.2L40.1,1z M40.7,6.8l2.5-0.5l-2-4.2l0,0
			L40.7,6.8z"/>
		<path class="st2" d="M46.6,0l2.8,0c1.2,0,2.4,0.5,2.4,2.3c0,0.8-0.5,1.7-1.3,2l0,0c1.1,0.3,1.7,1.1,1.7,2.3c0,1.9-1,2.7-3,2.7
			l-2.5,0L46.6,0z M47.8,4l1.3,0c0.5,0,1.6-0.1,1.5-1.6c0-1-0.5-1.5-1.6-1.5l-1.3,0L47.8,4z M47.9,8.4l1.6,0c1.2,0,1.6-0.8,1.6-1.7
			c0-1.3-0.8-1.8-1.8-1.7l-1.4,0L47.9,8.4z"/>
		<path class="st2" d="M60.3,5.7c-0.4,2.3-1.2,4.7-3.7,4.3C54,9.6,54,7,54.4,4.7s1.2-4.7,3.7-4.3C60.6,0.8,60.6,3.4,60.3,5.7z
			 M55.6,4.9C55.2,7,55.2,8.8,56.7,9c1.6,0.2,2-1.4,2.4-3.6c0.3-2.1,0.4-3.9-1.2-4.1C56.4,1.1,55.9,2.8,55.6,4.9z"/>
		<path class="st2" d="M64.2,1.9l2.8,1c1.4,0.5,2,1.6,1.5,3c-0.3,1-1,1.8-2.1,1.7l0,0c0.7,0.4,0.9,1.1,0.7,1.9l-0.4,1.5
			c-0.3,1-0.2,1.3,0,1.5l-1.3-0.5c-0.1-0.2,0-0.9,0.1-1.4l0.4-1.4c0.3-1.2-0.3-1.5-0.9-1.7l-1.5-0.5l-1.4,3.9l-1.1-0.4L64.2,1.9z
			 M63.9,6.3L65,6.6c0.6,0.2,1.8,0.6,2.4-1.1c0.3-0.9-0.1-1.6-1.1-1.9L65,3.2L63.9,6.3z"/>
		<path class="st2" d="M73.8,5.9l1.3,0.7L72.9,16l-1-0.6l0.6-2.6l-2.6-1.4L68,13.3l-1-0.6L73.8,5.9z M70.5,10.7l2.2,1.2l1.1-4.5l0,0
			L70.5,10.7z"/>
		<path class="st2" d="M75.3,17.9l-0.9-0.7l5-6.6l-1.9-1.4l0.6-0.8l4.6,3.5l-0.6,0.8l-1.9-1.4L75.3,17.9z"/>
		<path class="st2" d="M85.4,21.1c-1.7,1.6-3.8,3-5.6,1.2c-1.8-1.9-0.3-3.9,1.4-5.5c1.7-1.6,3.8-3,5.6-1.2
			C88.6,17.5,87.1,19.5,85.4,21.1z M82.1,17.6c-1.6,1.5-2.7,2.8-1.6,4c1.1,1.1,2.5,0.1,4.1-1.4c1.6-1.5,2.7-2.8,1.6-4
			C85.1,15.1,83.7,16.2,82.1,17.6z"/>
		<path class="st2" d="M90.8,20.5l1.7,2.5c0.8,1.2,0.6,2.5-0.6,3.3c-0.8,0.6-1.9,0.9-2.7,0.1l0,0c0.4,0.7,0.1,1.5-0.6,1.9l-1.3,0.9
			c-0.8,0.6-1,0.9-0.9,1.2l-0.8-1.1c0.1-0.3,0.6-0.7,0.9-1l1.2-0.9c1-0.8,0.7-1.4,0.4-1.9l-0.9-1.3l-3.4,2.3l-0.6-1L90.8,20.5z
			 M87.9,23.8l0.6,0.9c0.4,0.6,1.1,1.6,2.5,0.6c0.8-0.5,0.9-1.3,0.3-2.2L90.7,22L87.9,23.8z"/>
		<path class="st2" d="M95.1,27.6l0.5,1l-8.3,4.1l-0.5-1L95.1,27.6z"/>
		<path class="st2" d="M96.9,31.3l1.6,4.5l-1,0.3l-1.2-3.4l-2.7,1l1.2,3.2l-1,0.3L92.6,34l-3.1,1.1l1.3,3.6l-1,0.3l-1.7-4.7
			L96.9,31.3z"/>
		<path class="st2" d="M97.7,43c1-0.2,1.6-0.6,1.4-1.7c-0.2-0.9-0.8-1.4-1.8-1.2c-2.6,0.5-0.2,4.5-3.6,5.1c-2.1,0.4-3-1-3.2-2.3
			c-0.4-2.1,0.6-3,2.5-3.3l0.2,1.1c-1,0.2-2.1,0.5-1.8,2.1c0.2,0.9,0.9,1.5,1.9,1.3c2.6-0.5,0.3-4.5,3.6-5.1c0.8-0.2,2.6-0.1,3,2.2
			c0.3,1.7-0.4,2.7-2.1,3L97.7,43z"/>
	</g>
	<g>
		<path class="st2" d="M12.9,63.9l0.4,1.1l-8.8,3l-0.4-1.1L12.9,63.9z"/>
		<path class="st2" d="M14.5,68.2l0.7,1.3L9.9,76l0,0l6.8-3.8l0.6,1l-8.1,4.5l-0.8-1.4l5.1-6.3l0,0l-6.6,3.7l-0.6-1L14.5,68.2z"/>
		<path class="st2" d="M14.1,84.1l-0.8-0.9l6.2-5.5L18,76.1l0.8-0.7l3.8,4.4l-0.8,0.7l-1.5-1.8L14.1,84.1z"/>
		<path class="st2" d="M24.7,81.6l3.8,2.9l-0.6,0.8L25,83.1l-1.8,2.3l2.7,2.1l-0.6,0.8l-2.7-2.1l-2,2.7l3,2.3L23,92l-3.9-3
			L24.7,81.6z"/>
		<path class="st2" d="M31.1,86l2.7,1.3c1.3,0.6,1.8,1.8,1.2,3.1c-0.4,0.9-1.2,1.7-2.3,1.5l0,0c0.7,0.4,0.8,1.2,0.5,2l-0.6,1.5
			c-0.4,1-0.3,1.3-0.2,1.5l-1.2-0.6c-0.1-0.3,0.1-0.9,0.3-1.3l0.5-1.3c0.5-1.2-0.1-1.6-0.7-1.8l-1.4-0.7l-1.8,3.7l-1-0.5L31.1,86z
			 M30.3,90.3l1,0.5c0.6,0.3,1.7,0.8,2.5-0.8c0.4-0.8,0.1-1.6-0.9-2.1l-1.2-0.6L30.3,90.3z"/>
		<path class="st2" d="M38.9,89.3l1.4,0.3l1.4,8.2l0,0l1.6-7.6l1.1,0.2l-2,9.1L41,99.3l-1.3-8l0,0l-1.6,7.3L37,98.4L38.9,89.3z"/>
		<path class="st2" d="M49.6,90.9l1.5,0l2.6,9.2l-1.2,0l-0.7-2.5l-3,0l-0.6,2.6l-1.2,0L49.6,90.9z M49.1,96.7l2.5,0l-1.3-4.5l0,0
			L49.1,96.7z"/>
		<path class="st2" d="M60.1,99.1l-1.1,0.2l-1.6-8.1l-2.3,0.4l-0.2-1l5.7-1.1l0.2,1L58.5,91L60.1,99.1z"/>
		<path class="st2" d="M63.3,88.6l1.1-0.4l3.2,8.7l-1.1,0.4L63.3,88.6z"/>
		<path class="st2" d="M74.9,87.9c1.2,2,2.1,4.4-0.1,5.7c-2.2,1.3-3.8-0.6-5-2.6c-1.2-2-2.1-4.4,0.1-5.7
			C72.1,84,73.7,85.9,74.9,87.9z M70.8,90.3c1.1,1.8,2.2,3.2,3.5,2.4c1.4-0.8,0.7-2.4-0.4-4.3c-1.1-1.8-2.2-3.2-3.5-2.4
			C69,86.9,69.7,88.5,70.8,90.3z"/>
		<path class="st2" d="M75.1,82l1.1-1l7.6,3.5l0,0l-5.4-5.6l0.8-0.8l6.4,6.7l-1.1,1.1l-7.3-3.4l0,0l5.2,5.4l-0.8,0.8L75.1,82z"/>
		<path class="st2" d="M82.3,74l0.9-1.3l9.1,3.1l-0.7,1l-2.5-0.9l-1.6,2.5l1.7,2l-0.7,1L82.3,74z M86.8,77.7l1.4-2.1l-4.4-1.5l0,0
			L86.8,77.7z"/>
		<path class="st2" d="M85.6,68.4l0.4-1.1l7.7,3.1l1.4-3.5l0.9,0.4l-1.8,4.6L85.6,68.4z"/>
	</g>
</g>
</svg>
