<?xml version="1.0" encoding="utf-8"?>
<!-- Generator: Adobe Illustrator 22.0.1, SVG Export Plug-In . SVG Version: 6.00 Build 0)  -->
<svg version="1.1" id="Layer_1" xmlns="http://www.w3.org/2000/svg" xmlns:xlink="http://www.w3.org/1999/xlink" x="0px" y="0px"
	 viewBox="0 0 142.2 100" style="enable-background:new 0 0 142.2 100;" xml:space="preserve">
<style type="text/css">
	.st0{fill:#545554;}
	.st1{fill:#AAC238;}
</style>
<g>
	<path class="st0" d="M7.8,0v34.9c2.4-2.8,5.2-4.2,8.6-4.2c1.7,0,3.2,0.3,4.6,0.9c1.4,0.6,2.4,1.4,3.1,2.4c0.7,1,1.2,2.1,1.4,3.3
		c0.3,1.2,0.4,3,0.4,5.6v16.4h-7.4V44.5c0-2.9-0.1-4.8-0.4-5.6c-0.3-0.8-0.8-1.4-1.5-1.9c-0.7-0.5-1.6-0.7-2.7-0.7
		c-1.2,0-2.3,0.3-3.3,0.9c-1,0.6-1.7,1.5-2.1,2.7c-0.4,1.2-0.7,3-0.7,5.3v14H0.4V0H7.8z"/>
	<path class="st0" d="M51.9,51.7H59c-1,2.7-2.6,4.8-4.7,6.2c-2.2,1.4-4.9,2.1-8.1,2.1c-5.1,0-9-1.6-11.4-4.8
		c-1.9-2.5-2.9-5.8-2.9-9.6c0-4.6,1.3-8.3,3.8-10.9c2.6-2.6,5.8-3.9,9.7-3.9c4.4,0,7.9,1.4,10.4,4.1c2.5,2.7,3.8,7,3.6,12.6H39.8
		c0.1,2.2,0.7,3.9,1.9,5.1c1.2,1.2,3,1.8,4.8,1.8C49,54.4,51.5,53.1,51.9,51.7z M51.6,42.9c-0.1-2.1-0.6-3.8-1.8-4.9
		c-1.1-1.1-2.5-1.7-4.1-1.7c-1.7,0-3.1,0.6-4.2,1.8c-1.1,1.2-1.7,2.8-1.6,4.8H51.6z"/>
	<path class="st0" d="M65.2,59.3V0h7.4v59.3H65.2z"/>
	<path class="st0" d="M79.1,31.3H86v4.1c0.9-1.4,2.1-2.5,3.6-3.4c1.5-0.9,3.2-1.3,5.1-1.3c3.2,0,6,1.3,8.3,3.8
		c2.3,2.5,3.4,6.1,3.4,10.6c0,4.7-1.1,8.3-3.4,10.9c-2.3,2.6-5.1,3.9-8.3,3.9c-1.5,0-2.9-0.3-4.2-0.9c-1.3-0.6-2.6-1.7-4-3.2v34
		h-7.4V31.3z M86.4,44.9c0,3.1,0.6,5.5,1.9,7c1.2,1.5,2.8,2.3,4.6,2.3c1.7,0,3.2-0.7,4.3-2.1c1.1-1.4,1.7-3.6,1.7-6.8
		c0-2.9-0.6-5.1-1.8-6.5c-1.2-1.4-2.6-2.1-4.4-2.1c-1.8,0-3.3,0.7-4.5,2.1C87,40,86.4,42.1,86.4,44.9z"/>
	<path class="st0" d="M99.8,72.9h-5.9c0.7-2.3,1.8-4,3.4-5.1c1.6-1.1,4-1.7,7.2-1.7c2.9,0,5.1,0.3,6.5,1c1.4,0.7,2.4,1.5,3,2.5
		c0.6,1,0.9,2.9,0.9,5.6c0,0,0,13.8,0,15.1H109c0,0,0-1.4,0-1.7c-1.2,0.9-3.6,2.2-7.1,2.2c-2.5,0-5-0.7-6.5-2c-1.5-1.3-2.2-3-2.2-5
		c0-1.3,0.4-2.7,1.2-3.8c2-2.8,5-3.7,7.7-3.9c3.1-0.3,5.1-0.2,6.3-0.2v-1.6c0-1.2-0.3-2.1-0.9-2.6c-0.6-0.5-1.8-0.8-3.5-0.8
		C102,70.9,100.2,71.8,99.8,72.9z M108.5,79.6c-4.1,0-6.1,0.4-7.4,1.2c-0.8,0.6-1.4,1.6-1.4,2.4c0,0.9,0.3,1.6,1,2.3
		c0.7,0.6,1.5,1,2.6,1c1.2,0,2.3-0.4,3.3-1.1c0.8-0.6,1.3-1.3,1.5-2.1c0.2-0.5,0.3-1.6,0.3-3.1V79.6z"/>
	<path class="st0" d="M117.8,66.7h6.7l5.7,16.8l5.5-16.8h6.5l-8.4,22.8l-1.5,4.1c-0.6,1.4-1.1,2.4-1.6,3.2c-0.5,0.7-1.1,1.3-1.7,1.8
		c-0.6,0.5-1.4,0.8-2.4,1.1c-0.9,0.3-2,0.4-3.2,0.4c-1.2,0-3.5,0-3.5,0v-5c1.3,0,1.3,0,2.1,0c1.5,0,2.5-0.4,3.2-1.3
		c0.7-0.9,1.2-1.9,1.6-3.3L117.8,66.7z"/>
	<path class="st1" d="M69.4,75.6c-0.1,0-0.1,0-0.2,0H3.1c-0.1,0-0.1,0-0.2,0C1.3,75.6,0,77,0,78.6c0,1.6,1.3,2.9,2.9,2.9h66.5
		c1.6,0,2.9-1.3,2.9-2.9C72.4,77,71.1,75.6,69.4,75.6z"/>
	<path class="st1" d="M108.5,11.6l4.4,4.5c0,0,4.9-7,12.4-7c7.5,0,8.9,5,9,7.8c0.1,3.2-1.5,6.3-5.1,9c-3.6,2.7-9.1,7.1-12.1,9.9
		c-3,2.8-7.3,8-7.3,18.2c0,1.1,0,5.9,0,5.9h31.1v-7.5h-23.3c0,0-0.1-6.3,2.9-9.6c3.6-3.9,7.8-7.3,11.7-10.2s9.2-8.1,9.2-15.1
		S135.9,2.5,126,2.5C114.1,2.5,108.5,11.6,108.5,11.6z"/>
</g>
</svg>
