<?xml version="1.0" encoding="utf-8"?>
<!-- Generator: Adobe Illustrator 22.0.1, SVG Export Plug-In . SVG Version: 6.00 Build 0)  -->
<svg version="1.1" id="Layer_1" xmlns="http://www.w3.org/2000/svg" xmlns:xlink="http://www.w3.org/1999/xlink" x="0px" y="0px"
	 viewBox="0 0 310 100" style="enable-background:new 0 0 310 100;" xml:space="preserve">
<style type="text/css">
	.st0{fill:#BB1F63;}
	.st1{clip-path:url(#SVGID_2_);fill:#FDB51D;}
	.st2{clip-path:url(#SVGID_2_);fill:#3690CE;}
	.st3{clip-path:url(#SVGID_2_);fill:#EB2027;}
	.st4{clip-path:url(#SVGID_2_);fill:#691F5B;}
	.st5{fill:#8B8B8B;}
	.st6{fill:#FFFFFF;}
	.st7{fill:#FFFFFF;stroke:#FFFFFF;stroke-miterlimit:10;}
</style>
<g>
	<path class="st0" d="M10.3,65.4C5.8,64.5,0,62.7,0,58.6s0.9-5.9,5.1-10.8s15-14.6,42.8-30S94.9,0,104,0s16.9,2.9,22.7,9
		c5.8,6.1,8.1,11.6,8.1,26.7s-3.5,25.7-7.6,37.5C123,85,116,100,96.6,100c-15.9,0-27.8-8.2-33.5-12.3s-11.4-9.4-23.2-14.4
		S10.3,65.4,10.3,65.4z"/>
	<g>
		<defs>
			<path id="SVGID_1_" d="M10.3,65.4C5.8,64.5,0,62.7,0,58.6s0.9-5.9,5.1-10.8s15-14.6,42.8-30S94.9,0,104,0s16.9,2.9,22.7,9
				c5.8,6.1,8.1,11.6,8.1,26.7s-3.5,25.7-7.6,37.5C123,85,116,100,96.6,100c-15.9,0-27.8-8.2-33.5-12.3s-11.4-9.4-23.2-14.4
				S10.3,65.4,10.3,65.4z"/>
		</defs>
		<clipPath id="SVGID_2_">
			<use xlink:href="#SVGID_1_"  style="overflow:visible;"/>
		</clipPath>
		<path class="st1" d="M133.8,56.3c0,0-0.3-19.2-13.2-35.6C106.1,2.1,84.2,0,84.2,0s25.1-6.9,40.3,3.3s12.2,28.4,12.1,34.4
			C136.4,43.7,133.8,56.3,133.8,56.3z"/>
		<path class="st2" d="M59.8,8.5c0,0,8.4,0.8,22.5,6.9c14.3,6.2,24.4,16.6,31.5,29.3c9.5,17.1,11.6,40.6,11.6,40.6l11.5-34.2
			c0,0-2.9-24.2-16.8-35.6S85-2,85.3-2.3C85.6-2.5,59.8,8.5,59.8,8.5z"/>
		<path class="st3" d="M37.8,20c0,0,21.2,8.1,41.7,25.3C101,63.4,108,75.4,111.6,81.8c5.9,10.3,5.6,20.7,5.6,20.7l12.3-24
			c0,0-5.5-34.6-26.8-52.3S63.1,5.4,63.1,5.4L37.8,20z"/>
		<path class="st4" d="M80.1,101c0,0,1-1.8,1.1-9.7c0.1-6.7-3.9-17.1-12.7-25.1c-6.9-6.2-15.4-12.4-28.8-19.6
			C26.9,39.7,11,33.4,11,33.4l34.2-15.9c0,0,27.8,16.3,41,28.2c14.1,12.7,21.5,25,25.8,32.6c4.5,7.9,9.5,19.2,9.5,18.9
			s-14.5,10.3-14.6,9.8C106.7,106.6,80.1,101,80.1,101z"/>
	</g>
	<g>
		<path class="st5" d="M161.3,71.7l-4.4,0.2H155l-3.8-0.2c-3-0.3-4.6-1.9-4.6-4.9l-0.1-3.3c0-1.3,0-2.3,0-2.9c0-0.6,0.1-1.5,0.4-2.6
			c0.2-1.1,0.8-2,1.6-2.6c0.9-0.6,2-0.9,3.6-0.9c0.7-0.1,1.3-0.1,1.9-0.1c0.6,0,1.3,0,2.1,0h0.6h2.5c1,0,1.8,0,2.4,0.1
			c0.6,0,1.4,0.2,2.4,0.4s1.7,0.8,2.1,1.7c0.4,0.9,0.6,2.1,0.6,3.6h-2.1v-0.2c0-0.8,0-1.4-0.1-1.9c-0.1-0.5-0.3-0.9-0.7-1.1
			c-0.4-0.2-1-0.4-1.9-0.5c-0.9-0.1-2.2-0.2-3.9-0.2c-0.6,0-1.5,0-2.8,0.1c-1.2,0.1-2.2,0.1-2.8,0.1c-1.5,0.1-2.4,0.4-2.8,0.8
			c-0.4,0.4-0.7,1.1-0.8,2.1c-0.1,1-0.2,1.9-0.2,2.7c0,0.8,0,1.6,0,2.3c0,2.2,0.2,3.7,0.7,4.5c0.4,0.8,1.6,1.2,3.5,1.2h4h3.8
			c1.6,0,2.7-0.2,3.3-0.6c0.6-0.4,0.9-1.3,0.9-2.7v-0.7h2.2c0,2.2-0.3,3.6-1,4.4C165.3,71.3,163.8,71.7,161.3,71.7z"/>
		<path class="st5" d="M191.2,66.3c0,2.4-0.5,3.9-1.4,4.5c-1,0.6-2.8,0.9-5.5,0.9l-3.4,0.1l-4.9-0.1c-1.7,0-2.9-0.4-3.7-1.1
			c-0.8-0.7-1.2-2-1.2-3.7V54.5h2.1v12.1c0,1.4,0.3,2.2,0.9,2.6s1.7,0.6,3.2,0.6l3.7,0.1l4-0.1c1.6,0,2.7-0.2,3.3-0.6
			s0.9-1.3,0.9-2.8v-0.4V54.5h2.1V66.3z"/>
		<path class="st5" d="M215.7,59.6c0,1.5-0.2,2.6-0.7,3.2c-0.5,0.6-1.4,1-3,1.2c1.1,0.2,2,0.4,2.5,0.8c0.5,0.4,0.8,1.1,0.8,2.2v4.6
			h-2.1v-3.8c0-1.3-0.3-2.1-0.8-2.5c-0.5-0.4-1.5-0.6-2.8-0.6h-11.7v6.9H196V54.5h13.9c2.1,0,3.6,0.3,4.5,1
			C215.3,56.2,215.7,57.6,215.7,59.6z M213.6,59.4c0-1.3-0.3-2.2-0.9-2.6c-0.6-0.4-1.7-0.6-3.1-0.6h-11.4V63h11.5
			c1.5,0,2.6-0.2,3.1-0.7C213.3,61.8,213.6,60.8,213.6,59.4z"/>
		<path class="st5" d="M219.5,71.6h-2.4l10.1-17.1h2.7l10.2,17.1h-2.4l-2.3-3.8h-13.7L219.5,71.6z M222.7,66h11.7l-5.9-10L222.7,66z
			"/>
		<path class="st5" d="M256.4,71.7l-4.4,0.2h-1.9l-3.8-0.2c-3-0.3-4.6-1.9-4.6-4.9l-0.1-3.3c0-1.3,0-2.3,0-2.9
			c0-0.6,0.1-1.5,0.4-2.6c0.2-1.1,0.8-2,1.6-2.6c0.9-0.6,2-0.9,3.6-0.9c0.7-0.1,1.3-0.1,1.9-0.1c0.6,0,1.3,0,2.1,0h0.6h2.5
			c1,0,1.8,0,2.4,0.1c0.6,0,1.4,0.2,2.4,0.4s1.7,0.8,2.1,1.7c0.4,0.9,0.6,2.1,0.6,3.6h-2.1v-0.2c0-0.8,0-1.4-0.1-1.9
			c-0.1-0.5-0.3-0.9-0.7-1.1c-0.4-0.2-1-0.4-1.9-0.5c-0.9-0.1-2.2-0.2-3.9-0.2c-0.6,0-1.5,0-2.8,0.1c-1.2,0.1-2.2,0.1-2.8,0.1
			c-1.5,0.1-2.4,0.4-2.8,0.8c-0.4,0.4-0.7,1.1-0.8,2.1c-0.1,1-0.2,1.9-0.2,2.7c0,0.8,0,1.6,0,2.3c0,2.2,0.2,3.7,0.7,4.5
			s1.6,1.2,3.5,1.2h4h3.8c1.6,0,2.7-0.2,3.3-0.6c0.6-0.4,0.9-1.3,0.9-2.7v-0.7h2.2c0,2.2-0.3,3.6-1,4.4
			C260.4,71.3,258.8,71.7,256.4,71.7z"/>
		<path class="st5" d="M265.9,71.6h-2.4l10.1-17.1h2.7l10.2,17.1h-2.4l-2.3-3.8h-13.7L265.9,71.6z M269.1,66h11.7l-5.9-10L269.1,66z
			"/>
		<path class="st5" d="M294,54.3h7.6c3.6,0,5.8,0.5,6.8,1.4s1.5,3.2,1.5,6.6V63v0.5c0,1.2-0.1,2.5-0.2,3.9c-0.1,1.4-0.6,2.4-1.5,3.1
			c-0.8,0.7-2.1,1.1-3.7,1.1c-0.5,0.1-1.2,0.1-2,0.1c-0.8,0-1.6,0-2.3,0h-3.8H296c-1,0-2-0.1-3-0.2c-1-0.1-1.8-0.3-2.4-0.6
			c-0.7-0.3-1.2-0.8-1.6-1.4c-0.4-0.7-0.7-1.6-0.8-2.6c-0.1-1.1-0.2-2.4-0.2-3.8c0-1.4,0-2.4,0.1-3c0-0.6,0.2-1.5,0.4-2.6
			c0.2-1.1,0.9-2,1.8-2.5S292.5,54.3,294,54.3z M294.5,69.9l4.4,0.1h1.6h0.5c1.2,0,2.4-0.1,3.7-0.2c1.2-0.1,2.1-0.5,2.5-1.2
			c0.4-0.7,0.6-1.7,0.6-3.1v-3.5c0-1.1,0-2-0.1-2.8c-0.1-0.8-0.3-1.4-0.6-1.8c-0.3-0.4-0.7-0.7-1.1-0.8c-0.5-0.1-0.9-0.2-1.4-0.3
			c-0.5,0-1-0.1-1.6-0.1l-4-0.1l-4,0.1c-1.9,0-3.2,0.3-3.8,0.8c-0.6,0.5-0.9,1.7-0.9,3.6l-0.1,2.6v1.3c0,2.2,0.2,3.6,0.7,4.4
			C291.3,69.5,292.5,69.9,294.5,69.9z"/>
	</g>
	<g>
		<path d="M157,40.5h11.1l0,1.5c0,2.6-0.4,4.5-1.2,5.5c-0.8,1-2.5,1.6-5.2,1.6h-4.2h-3c-3.3,0-5.4-0.5-6.4-1.4c-1-1-1.6-3.1-1.6-6.3
			v-0.9c0-3.3,0.4-5.6,1.2-6.9c0.8-1.2,2.7-1.9,5.7-1.9l4.3-0.1l2.1,0l3.4,0.1c1.6,0,2.8,0.4,3.5,1.2c0.7,0.8,1,2.1,1,3.8h-2.1
			c0-1.5-0.3-2.4-0.9-2.8c-0.6-0.4-1.8-0.5-3.5-0.5l-3.5,0l-2,0l-3.4,0.1c-1.3,0.1-2.2,0.4-2.8,0.7c-0.5,0.4-0.8,1.3-0.8,2.8
			l-0.1,4.4c0,1.8,0.1,3.3,0.4,4.2c0.3,1,1.6,1.4,4.1,1.4l4.4,0.1l1.8,0h0.4c0.8,0,1.8-0.1,3.1-0.2c1.3-0.1,2.1-0.5,2.4-1.2
			c0.3-0.7,0.5-1.9,0.5-3.7h-9V40.5z"/>
		<path d="M172.3,49h-2.4L180,31.9h2.7L192.9,49h-2.4l-2.3-3.8h-13.7L172.3,49z M175.5,43.4h11.7l-5.9-10L175.5,43.4z"/>
		<path d="M208.1,49l-10.7-15.4V49h-2.1V31.9h3.4l10.2,14.7l10.3-14.7h3.3V49h-2.1V33.6L209.8,49H208.1z"/>
		<path d="M229.9,49h-2.1V31.9h2.1V49z"/>
		<path d="M235.2,49V31.9h3.5l15.8,15.5V31.9h2.1V49h-3.4l-15.8-15.5V49H235.2z"/>
		<path d="M271.8,40.5h11.1l0,1.5c0,2.6-0.4,4.5-1.2,5.5c-0.8,1-2.5,1.6-5.2,1.6h-4.2h-3c-3.3,0-5.4-0.5-6.4-1.4
			c-1-1-1.6-3.1-1.6-6.3v-0.9c0-3.3,0.4-5.6,1.2-6.9c0.8-1.2,2.7-1.9,5.7-1.9l4.3-0.1l2.1,0l3.4,0.1c1.6,0,2.8,0.4,3.5,1.2
			c0.7,0.8,1,2.1,1,3.8h-2.1c0-1.5-0.3-2.4-0.9-2.8c-0.6-0.4-1.8-0.5-3.5-0.5l-3.5,0l-2,0l-3.4,0.1c-1.3,0.1-2.2,0.4-2.8,0.7
			c-0.5,0.4-0.8,1.3-0.8,2.8l-0.1,4.4c0,1.8,0.1,3.3,0.4,4.2c0.3,1,1.6,1.4,4.1,1.4l4.4,0.1l1.8,0h0.4c0.8,0,1.8-0.1,3.1-0.2
			c1.3-0.1,2.1-0.5,2.4-1.2c0.3-0.7,0.5-1.9,0.5-3.7h-9V40.5z"/>
	</g>
	<g>
		<path class="st6" d="M119.2,39.2v-2.3h-1.3v-0.3h2.9v0.3h-1.3v2.3H119.2z"/>
		<path class="st6" d="M123.1,39.2l-1.6-2.3v2.3h-0.3v-2.6h0.5l1.5,2.2l1.6-2.2h0.5v2.6H125v-2.3l-1.6,2.3H123.1z"/>
	</g>
	<g>
		<path class="st7" d="M60.9,52.7h16.9l0,2.8c0,4.9-0.6,8.4-1.8,10.4c-1.2,2-3.8,2.9-7.8,2.9h-6.4h-4.5c-4.9,0-8.2-0.9-9.8-2.7
			c-1.6-1.8-2.4-5.7-2.4-11.7v-1.8c0-6.2,0.6-10.5,1.8-12.8c1.2-2.3,4.1-3.5,8.7-3.5l6.5-0.1l3.1,0l5.2,0.2c2.5,0,4.3,0.8,5.3,2.3
			c1,1.5,1.6,3.9,1.6,7.1h-3.1c0-2.8-0.5-4.5-1.4-5.2c-1-0.7-2.7-1-5.4-1l-5.3,0l-3.1,0l-5.1,0.2c-2,0.2-3.4,0.7-4.2,1.4
			c-0.8,0.7-1.2,2.5-1.2,5.3l-0.2,8.2c0,3.4,0.2,6.1,0.6,7.9c0.4,1.8,2.5,2.7,6.3,2.7l6.6,0.1l2.8,0h0.6c1.2,0,2.8-0.1,4.7-0.3
			c1.9-0.2,3.2-1,3.7-2.3c0.5-1.3,0.8-3.6,0.8-6.9H60.9V52.7z"/>
		<path class="st7" d="M106.4,68.6l-6.7,0.3h-2.9l-5.7-0.3c-4.6-0.6-6.9-3.6-6.9-9.2L84,53.3c0-2.4,0-4.2,0.1-5.4
			c0-1.2,0.2-2.8,0.6-4.9c0.3-2.1,1.2-3.7,2.4-4.8c1.3-1.1,3.1-1.6,5.4-1.6c1-0.1,2-0.2,2.9-0.3c0.9,0,2-0.1,3.2-0.1h0.9h3.7
			c1.5,0,2.7,0,3.7,0.1c0.9,0.1,2.2,0.3,3.7,0.7c1.5,0.4,2.6,1.4,3.2,3.1s0.9,3.9,0.9,6.7h-3.1v-0.3c0-1.5-0.1-2.7-0.2-3.6
			c-0.1-1-0.5-1.6-1-2.1c-0.5-0.4-1.5-0.8-2.9-1c-1.4-0.2-3.4-0.3-5.9-0.3c-0.9,0-2.3,0.1-4.2,0.2c-1.9,0.1-3.3,0.2-4.3,0.2
			c-2.2,0.2-3.7,0.7-4.3,1.5c-0.6,0.8-1,2.1-1.2,3.9c-0.2,1.9-0.2,3.6-0.3,5.1c0,1.5,0,3,0,4.4c0,4.1,0.3,6.9,1,8.4
			c0.7,1.5,2.4,2.3,5.3,2.3h6.1h5.8c2.4,0,4-0.3,5-1c0.9-0.7,1.4-2.4,1.4-5v-1.3h3.3c0,4.1-0.5,6.8-1.6,8.3
			C112.4,67.8,110,68.6,106.4,68.6z"/>
	</g>
</g>
</svg>
