<?xml version="1.0" encoding="utf-8"?>
<!-- Generator: Adobe Illustrator 22.0.1, SVG Export Plug-In . SVG Version: 6.00 Build 0)  -->
<svg version="1.1" id="Layer_1" xmlns="http://www.w3.org/2000/svg" xmlns:xlink="http://www.w3.org/1999/xlink" x="0px" y="0px"
	 viewBox="0 0 335 100" style="enable-background:new 0 0 335 100;" xml:space="preserve">
<style type="text/css">
	.st0{fill:#4D907B;}
</style>
<g>
	<path id="XMLID_18_" class="st0" d="M49.963,20c-1.657,0-3.281,0.14-4.865,0.398c0,0.07,0.008,0.132,0.008,0.207v26.728
		c0,2.144-0.818,3.203-2.52,3.203c-1.665,0-2.517-1.06-2.517-3.203v-5.562c-2.617,3.157-3.599,7.396-2.496,11.503
		c1.834,6.85,8.897,10.93,15.744,9.101c6.848-1.837,10.93-8.897,9.101-15.744c-1.382-5.169-5.71-8.886-11.022-9.467
		c-1.312-0.145-2.262-1.326-2.114-2.641c0.143-1.312,1.323-2.256,2.638-2.114c7.283,0.802,13.219,5.898,15.115,12.982
		c2.512,9.4-3.09,19.09-12.482,21.602c-9.397,2.512-19.085-3.088-21.599-12.485c-1.896-7.063,0.688-14.432,6.576-18.767
		c0.169-0.124,0.352-0.215,0.538-0.288V22.033c0-0.126,0.011-0.239,0.019-0.358c-11.713,4.083-20.123,15.22-20.123,28.326
		C19.964,66.569,33.396,80,49.963,80c16.573,0,29.999-13.431,29.999-29.999C79.962,33.431,66.536,20,49.963,20"/>
	<path d="M188.495,56.391c-2.797,0.807-4.161,1.859-4.161,4.411c0,2.474,1.678,3.964,4.591,3.964c-0.019,0,7.45-0.051,7.45-0.051
		V54.161C193.024,55.708,190.232,55.896,188.495,56.391 M204.81,64.271c0,0-0.03-1.167-0.03,1.641c0,2.81-1.536,5.618-5.497,5.618
		h-13.402c-6.264,0-9.989-3.725-9.989-10.236c0-6.326,2.98-9.064,9.747-10.486c4.096-0.869,7.324-0.869,9.244-1.487
		c0.874-0.317,1.369-1.121,1.369-2.485c0-2.733-1.619-3.722-5.403-3.722c-2.109,0-3.787,0.619-5.024,1.673
		c-1.428,1.302-2.477,3.287-4.903,3.287c-1.985,0-3.537-1.544-3.537-3.596c0-3.975,5.156-8.257,13.154-8.257
		c9.308,0,14.271,3.354,14.271,9.311V64.271z"/>
	<path id="XMLID_15_" d="M107.207,32.808c0,2.493-2.179,4.672-4.664,4.672c-2.558,0-4.669-2.058-4.669-4.672
		c0-2.611,2.049-4.669,4.669-4.669C105.091,28.14,107.207,30.254,107.207,32.808"/>
	<path d="M113.345,54.295c0-5.301,4.311-9.615,9.618-9.615c5.301,0,9.607,4.314,9.607,9.615c0,5.306-4.306,9.62-9.607,9.62
		C117.656,63.915,113.345,59.601,113.345,54.295 M105.395,54.295c0,9.688,7.88,17.565,17.568,17.565
		c9.682,0,17.554-7.877,17.554-17.565c0-9.685-7.872-17.565-17.554-17.565C113.275,36.73,105.395,44.61,105.395,54.295"/>
	<path d="M253.278,54.295c0-5.301,4.317-9.615,9.62-9.615c5.296,0,9.607,4.314,9.607,9.615c0,5.306-4.311,9.62-9.607,9.62
		C257.595,63.915,253.278,59.601,253.278,54.295 M245.328,54.295c0,9.688,7.883,17.565,17.57,17.565
		c9.674,0,17.554-7.877,17.554-17.565c0-9.685-7.88-17.565-17.554-17.565C253.211,36.73,245.328,44.61,245.328,54.295"/>
	<path id="XMLID_10_" d="M165.42,37.538l-8.068,23.99l-7.703-23.99l-9.757,0.019l10.548,29.687c1.186,3.364,3.951,4.602,7.151,4.602
		c3.311-0.097,5.368-0.742,6.767-4.602l10.841-29.687L165.42,37.538z"/>
	<path id="XMLID_9_" d="M304.133,37.052c-4.174-0.349-8.674,0.487-10.107,2.552v-2.025h-8.585v29.353c0,3.3,1.512,4.927,4.438,4.927
		c2.926,0,4.419-1.627,4.419-4.927v-15.25c0-4.357,2.676-6.971,6.786-6.971c3.8,0,5.11,2.114,5.11,6.597v15.623
		c0,3.3,1.49,4.927,4.413,4.927c2.929,0,4.43-1.627,4.43-4.927V48.751C315.036,41.159,309.912,37.533,304.133,37.052"/>
	<path id="XMLID_8_" d="M94.969,35.277h-2.431v31.655c0,3.303,1.503,4.924,4.427,4.924c2.926,0,4.422-1.622,4.422-4.924V40.707
		C98.328,40.368,95.795,38.201,94.969,35.277"/>
	<path id="XMLID_7_" d="M246.253,32.808c0,2.493-2.179,4.672-4.664,4.672c-2.555,0-4.672-2.058-4.672-4.672
		c0-2.611,2.052-4.669,4.672-4.669C244.139,28.14,246.253,30.254,246.253,32.808"/>
	<path id="XMLID_6_" d="M234.013,35.277h-2.437l0.011,31.655c0,3.303,1.501,4.924,4.421,4.924c2.929,0,4.424-1.622,4.424-4.924
		V40.707C237.378,40.368,234.844,38.201,234.013,35.277"/>
	<path id="XMLID_5_" d="M223.546,64.753c-0.621,0-1.119,0.067-1.493,0.067c-1.557,0-1.931-0.559-1.931-2.055V44.463h2.24
		c2.367,0,3.55-1.062,3.55-3.114c0-2.122-1.183-3.112-3.55-3.112h-2.248v-6.245h-8.824l-0.011,30.338
		c0,6.853,1.681,9.526,9.281,9.526c4.169,0,6.1-1.181,6.1-4.045C226.66,65.939,225.539,64.753,223.546,64.753"/>
</g>
</svg>
