<?xml version="1.0" encoding="utf-8"?>
<!-- Generator: Adobe Illustrator 22.0.1, SVG Export Plug-In . SVG Version: 6.00 Build 0)  -->
<svg version="1.1" id="Layer_1" xmlns="http://www.w3.org/2000/svg" xmlns:xlink="http://www.w3.org/1999/xlink" x="0px" y="0px"
	 viewBox="0 0 209.4 200" style="enable-background:new 0 0 209.4 200;" xml:space="preserve">
<style type="text/css">
	.st0{fill:#4692CF;}
	.st1{fill:#FFFFFF;}
</style>
<path class="st0" d="M207.8,95.1l-17.3-22.9l0.6-28.7c0.1-3.7-2.3-6.9-5.8-8l-27.5-8.3L141.3,3.5c-2.1-3-5.9-4.3-9.4-3.1l-27.1,9.4
	L77.6,0.5c-3.5-1.2-7.3,0-9.4,3.1L51.7,27.1l-27.5,8.3c-3.5,1.1-5.9,4.3-5.8,8L19,72.1L1.7,95.1c-2.2,2.9-2.2,7,0,9.9L19,127.9
	l-0.6,28.7c-0.1,3.7,2.3,6.9,5.8,8l27.5,8.3l16.4,23.6c2.1,3,5.9,4.3,9.4,3.1l27.1-9.4l27.1,9.4c3.5,1.2,7.3,0,9.4-3.1l16.4-23.6
	l27.5-8.3c3.5-1.1,5.9-4.3,5.8-8l-0.6-28.7l17.3-22.9C210,102,210,98,207.8,95.1z"/>
<path class="st1" d="M157.5,57.1c4,4.6,4,12,0,16.5l-61.3,69.2c-4,4.6-10.6,4.6-14.7,0l-30.7-34.6c-4-4.6-4-12,0-16.5
	c4-4.6,10.6-4.6,14.7,0l23.3,26.3l54-61C146.9,52.6,153.5,52.6,157.5,57.1z"/>
</svg>
