<?xml version="1.0" encoding="utf-8"?>
<!-- Generator: Adobe Illustrator 22.0.1, SVG Export Plug-In . SVG Version: 6.00 Build 0)  -->
<svg version="1.1" id="Layer_1" xmlns="http://www.w3.org/2000/svg" xmlns:xlink="http://www.w3.org/1999/xlink" x="0px" y="0px"
	 viewBox="0 0 100 100" style="enable-background:new 0 0 100 100;" xml:space="preserve">
<style type="text/css">
	.st0{fill:#53AE94;}
	.st1{fill:#FFFFFF;}
</style>
<g>
	<circle class="st0" cx="50" cy="50" r="30"/>
	<g>
		<path class="st1" d="M54.096,52.905v-0.005c-0.23,0.016-1.417,0.086-4.059,0.086c-2.112,0-3.593-0.059-4.117-0.086v0.005
			c-8.122-0.358-14.181-1.77-14.181-3.465c0-1.69,6.064-3.107,14.181-3.465v5.524c0.529,0.037,2.053,0.128,4.155,0.128
			c2.524,0,3.786-0.107,4.021-0.128V45.98c8.106,0.364,14.149,1.775,14.149,3.465s-6.048,3.101-14.149,3.465 M54.096,45.408v-4.941
			h11.309v-7.534H34.616v7.534h11.309v4.941c-9.192,0.422-16.1,2.24-16.1,4.422c0,2.182,6.914,4,16.1,4.427v15.838h8.176V54.258
			c9.176-0.422,16.074-2.24,16.074-4.422c0-2.176-6.898-4-16.074-4.422"/>
	</g>
</g>
</svg>
