<?xml version="1.0" encoding="utf-8"?>
<!-- Generator: Adobe Illustrator 22.0.1, SVG Export Plug-In . SVG Version: 6.00 Build 0)  -->
<svg version="1.1" id="Layer_1" xmlns="http://www.w3.org/2000/svg" xmlns:xlink="http://www.w3.org/1999/xlink" x="0px" y="0px"
	 viewBox="0 0 100 100" style="enable-background:new 0 0 100 100;" xml:space="preserve">
<style type="text/css">
	.st0{clip-path:url(#SVGID_2_);}
	.st1{fill:url(#SVGID_3_);}
	.st2{fill:url(#SVGID_4_);}
	.st3{fill:url(#SVGID_5_);}
	.st4{fill:url(#SVGID_6_);}
	.st5{fill:url(#SVGID_7_);}
	.st6{opacity:0.36;}
	.st7{opacity:0.36;fill:#6E0018;enable-background:new    ;}
	.st8{fill:#FFFFFF;}
</style>
<g>
	<defs>
		<rect id="SVGID_1_" x="20" y="20" width="60" height="60"/>
	</defs>
	<clipPath id="SVGID_2_">
		<use xlink:href="#SVGID_1_"  style="overflow:visible;"/>
	</clipPath>
	<g class="st0">
		
			<linearGradient id="SVGID_3_" gradientUnits="userSpaceOnUse" x1="27.2978" y1="36.9471" x2="113.6954" y2="68.7022" gradientTransform="matrix(1 0 0 -1 0 99.7165)">
			<stop  offset="0" style="stop-color:#FF9196"/>
			<stop  offset="1" style="stop-color:#FFA3A7"/>
		</linearGradient>
		<path class="st1" d="M52,76.8L21.4,46.2c-2.9-2.9-1.2-7.8,2.8-8.4l50.1-7c4-0.6,6.9,3.6,5.1,7.2L59.9,75.6
			c-0.4,0.7-0.9,1.3-1.5,1.7c-0.6,0.5-1.4,0.8-2.1,0.9c-0.8,0.1-1.6,0.1-2.3-0.2C53.3,77.8,52.6,77.4,52,76.8L52,76.8z"/>
		
			<linearGradient id="SVGID_4_" gradientUnits="userSpaceOnUse" x1="45.3795" y1="34.4391" x2="36.5" y2="13.5679" gradientTransform="matrix(1 0 0 -1 0 99.7165)">
			<stop  offset="0.28" style="stop-color:#FF5A61"/>
			<stop  offset="1" style="stop-color:#F01947"/>
		</linearGradient>
		<path class="st2" d="M38.1,70.7c0.6,6.1,8,8.9,12.5,4.7h0L37.2,62L38.1,70.7z"/>
		
			<linearGradient id="SVGID_5_" gradientUnits="userSpaceOnUse" x1="49.5623" y1="61.569" x2="30.591" y2="95.591" gradientTransform="matrix(1 0 0 -1 0 99.7165)">
			<stop  offset="0.28" style="stop-color:#FF6268"/>
			<stop  offset="1" style="stop-color:#F1335C"/>
		</linearGradient>
		<path class="st3" d="M43,22.8c-4.4-2.5-9.8,1-9.2,6l0.8,7.5l25.9-3.6L43,22.8z"/>
		
			<linearGradient id="SVGID_6_" gradientUnits="userSpaceOnUse" x1="67.6117" y1="52.8291" x2="79.9844" y2="43.1368" gradientTransform="matrix(1 0 0 -1 0 99.7165)">
			<stop  offset="0.28" style="stop-color:#FF6D73"/>
			<stop  offset="1" style="stop-color:#FF7F84"/>
		</linearGradient>
		<path class="st4" d="M75.6,52.4c1.3-1.2,2.1-2.8,2.3-4.5c0.2-1.7-0.2-3.5-1.1-5l-8.2,15.9L75.6,52.4z"/>
		
			<linearGradient id="SVGID_7_" gradientUnits="userSpaceOnUse" x1="65.3872" y1="74.8885" x2="31.3652" y2="18.8036" gradientTransform="matrix(1 0 0 -1 0 99.7165)">
			<stop  offset="0.28" style="stop-color:#FF454B"/>
			<stop  offset="1" style="stop-color:#EE0033"/>
		</linearGradient>
		<path class="st5" d="M71,54.2L76.8,43c-0.7-1.1-1.6-1.9-2.7-2.6l-13.7-7.7l-25.9,3.6L37.2,62l13.4,13.5l18-16.6L71,54.2"/>
		<g class="st6">
			<path class="st7" d="M45.5,44.2H45c-0.1,0-0.2,0-0.2,0.1c-0.1,0.1-0.1,0.2-0.1,0.2v3.6c0,0.1,0,0.2,0.1,0.2
				c0.1,0.1,0.2,0.1,0.2,0.1h0.5c0.1,0,0.2,0,0.2-0.1c0.1-0.1,0.1-0.2,0.1-0.2v-3.6c0-0.1,0-0.2-0.1-0.2
				C45.7,44.2,45.6,44.2,45.5,44.2"/>
			<path class="st7" d="M43.7,44.2c-0.1,0-0.3,0-0.4,0.1c-0.1,0.1-0.2,0.2-0.3,0.3l-1.3,2.8c0,0.1-0.1,0.2-0.1,0.2s-0.1-0.1-0.2-0.2
				l-1.3-2.8c-0.1-0.1-0.2-0.2-0.3-0.3c-0.1-0.1-0.3-0.1-0.4-0.1h-0.7l2.1,4c0.2,0.4,0.6,0.4,0.8,0.4c0.2,0,0.6,0,0.8-0.4l2.1-4
				H43.7z"/>
			<path class="st7" d="M66.5,43.5c0-0.1,0-0.2-0.1-0.2c-0.1-0.1-0.2-0.1-0.2-0.1h-0.5c-0.1,0-0.2,0-0.2,0.1
				c-0.1,0.1-0.1,0.2-0.1,0.2v3.6c0,0.6,0.2,0.9,0.5,1.1c0.3,0.2,0.7,0.3,1.5,0.3h0.4c0.1,0,0.2,0,0.2-0.1c0.1-0.1,0.1-0.2,0.1-0.2
				v-0.4h-0.3c-0.2,0-0.7,0-0.9-0.2c-0.3-0.2-0.3-0.6-0.3-0.9V43.5z"/>
			<path class="st7" d="M58.9,47.7c-0.3,0-0.6,0-0.9-0.2c-0.3-0.2-0.3-0.6-0.3-0.9v-1.7h1.1c0,0,0.1,0,0.1,0c0,0,0.1,0,0.1-0.1
				c0,0,0.1-0.1,0.1-0.1c0,0,0-0.1,0-0.1v-0.4h-1.5v-0.7c0-0.1,0-0.2-0.1-0.2c-0.1-0.1-0.2-0.1-0.3-0.1h-0.5c-0.1,0-0.2,0-0.2,0.1
				c-0.1,0.1-0.1,0.2-0.1,0.2v0.7h-2.5v-0.7c0-0.1,0-0.2-0.1-0.2c-0.1-0.1-0.2-0.1-0.2-0.1h-0.5c-0.1,0-0.2,0-0.2,0.1
				c-0.1,0.1-0.1,0.2-0.1,0.2v0.7H52v0.4c0,0,0,0.1,0,0.1c0,0,0,0.1,0.1,0.1c0,0,0.1,0.1,0.1,0.1c0,0,0.1,0,0.1,0h0.4v2.2
				c0,0.6,0.2,0.9,0.5,1.1c0.3,0.2,0.7,0.3,1.4,0.3h0.4c0.1,0,0.2,0,0.2-0.1c0.1-0.1,0.1-0.2,0.1-0.2v-0.4h-0.3
				c-0.2,0-0.7,0-0.9-0.2c-0.3-0.2-0.3-0.6-0.3-0.9v-1.7h2.5v2.2c0,0.2,0,0.4,0.1,0.6c0.1,0.2,0.2,0.4,0.4,0.5
				c0.3,0.2,0.7,0.3,1.5,0.3h0.4c0.1,0,0.2,0,0.2-0.1c0.1-0.1,0.1-0.2,0.1-0.2v-0.4H58.9z"/>
			<path class="st7" d="M51.6,48.1v-0.4h-2.6c-0.4,0-1,0-1.1-0.5c-0.1-0.2-0.1-0.4-0.1-0.6h3.1c0.2,0,0.4,0,0.6-0.2
				c0.1-0.1,0.2-0.2,0.2-0.3c0-0.1,0.1-0.2,0-0.4c0-0.5-0.1-1.1-0.8-1.4c-0.6-0.3-1.2-0.3-1.8-0.3c-0.6,0-1.4,0-2,0.4
				c-0.6,0.4-0.7,1-0.7,1.8c0,0.8,0,1.2,0.4,1.6c0.3,0.4,1.1,0.5,1.6,0.5h2.6c0.1,0,0.2,0,0.3-0.1C51.5,48.3,51.6,48.2,51.6,48.1
				L51.6,48.1z M50.5,45.7c0,0.1,0,0.3-0.3,0.3h-1.7c-0.4,0-0.8,0.2-0.8,0.4v-0.4c0-0.3,0-0.5,0.2-0.7s0.8-0.3,1.1-0.3
				c0.4,0,0.7,0,1,0.2c0.1,0.1,0.2,0.1,0.2,0.2C50.5,45.4,50.5,45.5,50.5,45.7"/>
			<path class="st7" d="M64.5,48.1v-0.4h-2.6c-0.4,0-1,0-1.1-0.5c-0.1-0.2-0.1-0.4-0.1-0.6h3.1c0.2,0,0.4,0,0.6-0.2
				c0.1-0.1,0.2-0.2,0.2-0.3c0-0.1,0.1-0.2,0-0.4c0-0.5-0.1-1.1-0.8-1.4c-0.6-0.3-1.2-0.3-1.8-0.3c-0.6,0-1.4,0-2,0.4
				c-0.6,0.4-0.7,1-0.7,1.8c0,0.8,0,1.2,0.4,1.6c0.3,0.4,1.1,0.5,1.6,0.5h2.6c0.1,0,0.2,0,0.2-0.1C64.4,48.3,64.5,48.2,64.5,48.1
				L64.5,48.1z M63.4,45.7c0,0.1,0,0.3-0.3,0.3h-1.7c-0.4,0-0.8,0.2-0.8,0.4v-0.4c0-0.3,0-0.5,0.2-0.7s0.8-0.3,1.1-0.3
				c0.4,0,0.7,0,1,0.2c0.1,0.1,0.2,0.1,0.2,0.2S63.4,45.5,63.4,45.7"/>
			<path class="st7" d="M45.5,43H45c-0.1,0-0.2,0-0.2,0.1c-0.1,0.1-0.1,0.2-0.1,0.2v0.9c0-0.1,0.1-0.3,0.2-0.4
				c0.1-0.1,0.3-0.1,0.4-0.1h0.2c0.1,0,0.2,0,0.2-0.1c0.1-0.1,0.1-0.2,0.1-0.2v-0.1c0,0,0-0.1,0-0.1c0,0,0-0.1-0.1-0.1
				c0,0-0.1-0.1-0.1-0.1C45.6,43,45.5,43,45.5,43"/>
		</g>
		<g class="st6">
			<path class="st7" d="M48.9,52.3c-0.6-1.4-2.4-1.3-2.4-1.3h-3c-0.1,0-0.3,0-0.4,0.1c-0.1,0-0.2,0.1-0.3,0.2s-0.2,0.2-0.2,0.3
				c-0.1,0.1-0.1,0.3-0.1,0.4v7.1h0.8c0.5,0,0.9-0.3,0.9-0.7v-1.3h2.7c1.9,0,2.3-1.5,2.3-1.5S49.5,53.7,48.9,52.3z M47.4,55.4
				c-0.3,0.7-1.3,0.7-1.3,0.7H44v-3.8c0-0.3,0.5-0.3,0.5-0.3h1.4c0.3,0,0.5,0,0.7,0.1c0.8,0.2,0.9,1.2,0.9,1.2S47.7,54.7,47.4,55.4
				L47.4,55.4z"/>
			<path class="st7" d="M55,51h-4.4v0.3c0,0.4,0.4,0.7,0.8,0.7h2.9c0,0,0.9,0,0.9,0.7v0.6h-3.3c0,0-0.9-0.1-1.3,0.5
				c-0.3,0.5-0.5,1-0.5,1.6c0,0.5,0.2,1.2,0.7,1.5c0.3,0.2,0.8,0.3,1.2,0.3h3.3c0,0,1.6,0.2,1.6-0.9v-3.6C56.9,52.7,57,51,55,51z
				 M54.9,56.1h-2.3c-0.1,0-0.2,0-0.3-0.1c-0.1,0-0.2-0.1-0.3-0.2c-0.1-0.1-0.1-0.2-0.2-0.3c0-0.1-0.1-0.2,0-0.3
				c0-0.8,0.5-0.9,0.6-0.9h2.9v1.4c0,0.1,0,0.1,0,0.2c0,0,0,0.1-0.1,0.1c0,0-0.1,0.1-0.1,0.1C55,56.1,54.9,56.1,54.9,56.1L54.9,56.1
				z"/>
			<path class="st7" d="M58.2,51h0.5c0.1,0,0.2,0,0.3,0.1c0.1,0,0.2,0.1,0.2,0.2l2.2,4.4l2.4-4.4c0.1-0.1,0.1-0.1,0.2-0.2
				c0.1,0,0.2-0.1,0.3-0.1h0.5c0.4,0,0.7,0.3,0.5,0.6l-3.9,7.2c-0.1,0.1-0.1,0.2-0.2,0.2c-0.1,0-0.2,0.1-0.3,0.1h-0.4
				c-0.4,0-0.7-0.3-0.5-0.7l0.7-1.3l-2.9-5.5C57.6,51.3,57.8,51,58.2,51z"/>
		</g>
		<path class="st8" d="M45.2,43.8h-0.5c-0.1,0-0.2,0-0.2,0.1c-0.1,0.1-0.1,0.2-0.1,0.3v3.6c0,0.1,0,0.2,0.1,0.2
			c0.1,0.1,0.2,0.1,0.2,0.1h0.5c0.1,0,0.2,0,0.3-0.1c0.1-0.1,0.1-0.2,0.1-0.2v-3.6c0-0.1,0-0.2-0.1-0.3
			C45.4,43.9,45.3,43.8,45.2,43.8"/>
		<path class="st8" d="M43.5,43.8c-0.1,0-0.3,0-0.4,0.1c-0.1,0.1-0.2,0.2-0.3,0.3l-1.3,2.8c0,0-0.1,0.2-0.1,0.2s-0.1-0.1-0.1-0.2
			l-1.3-2.8c-0.1-0.1-0.2-0.3-0.3-0.3c-0.1-0.1-0.3-0.1-0.4-0.1h-0.7l2.1,4c0.1,0.1,0.2,0.2,0.4,0.3c0.1,0.1,0.3,0.1,0.5,0.1
			c0.3,0,0.6,0,0.8-0.4l2.1-4H43.5z"/>
		<path class="st8" d="M66.2,43.2c0,0,0-0.1,0-0.1c0,0,0-0.1-0.1-0.1c0,0-0.1-0.1-0.1-0.1c0,0-0.1,0-0.1,0h-0.5
			c-0.1,0-0.2,0-0.2,0.1C65.1,43,65,43.1,65,43.2v3.6c0,0.2,0,0.4,0.1,0.6c0.1,0.2,0.2,0.4,0.4,0.5c0.3,0.2,0.7,0.3,1.5,0.3h0.4
			c0.1,0,0.2,0,0.2-0.1c0.1-0.1,0.1-0.2,0.1-0.2v-0.4h-0.3c-0.3,0-0.6,0-0.9-0.2c-0.3-0.2-0.3-0.6-0.3-0.9V43.2z"/>
		<path class="st8" d="M58.6,47.4c-0.3,0-0.6,0-0.9-0.2c-0.3-0.2-0.3-0.6-0.3-0.9v-1.7h1.2c0.1,0,0.2,0,0.2-0.1
			c0.1-0.1,0.1-0.2,0.1-0.2v-0.4h-1.5v-0.7c0-0.1,0-0.2-0.1-0.2c-0.1-0.1-0.2-0.1-0.2-0.1h-0.5c-0.1,0-0.2,0-0.2,0.1
			c-0.1,0.1-0.1,0.2-0.1,0.2v0.7h-2.5v-0.7c0-0.1,0-0.2-0.1-0.2c-0.1-0.1-0.2-0.1-0.2-0.1h-0.5c0,0-0.1,0-0.1,0c0,0-0.1,0-0.1,0.1
			c0,0-0.1,0.1-0.1,0.1c0,0,0,0.1,0,0.1v0.7h-0.7v0.4c0,0.1,0,0.2,0.1,0.2c0.1,0.1,0.2,0.1,0.2,0.1h0.4v2.2c0,0.2,0,0.4,0.1,0.6
			c0.1,0.2,0.2,0.4,0.4,0.5c0.3,0.2,0.7,0.3,1.4,0.3h0.4c0.1,0,0.2,0,0.2-0.1c0.1-0.1,0.1-0.2,0.1-0.2v-0.4h-0.3
			c-0.2,0-0.7,0-0.9-0.2c-0.3-0.2-0.3-0.6-0.3-0.9v-1.7h2.5v2.2c0,0.2,0,0.4,0.1,0.6c0.1,0.2,0.2,0.4,0.4,0.5
			c0.3,0.2,0.7,0.3,1.4,0.3h0.4c0.1,0,0.2,0,0.2-0.1c0.1-0.1,0.1-0.2,0.1-0.2v-0.4H58.6z"/>
		<path class="st8" d="M51.3,47.8v-0.4h-2.6c-0.4,0-1,0-1.1-0.5c0-0.2-0.1-0.4-0.1-0.6h3.1c0.2,0,0.4,0,0.6-0.2
			c0.1-0.1,0.2-0.2,0.2-0.3c0-0.1,0.1-0.2,0-0.4c0-0.5-0.1-1.1-0.8-1.4c-0.6-0.3-1.1-0.3-1.8-0.3c-0.7,0-1.4,0-2,0.4
			c-0.6,0.4-0.6,1-0.6,1.8c0,0.8,0,1.2,0.4,1.6c0.3,0.4,1.1,0.6,1.6,0.6h2.7c0.1,0,0.2,0,0.2-0.1C51.3,48,51.3,47.9,51.3,47.8
			L51.3,47.8z M50.2,45.3c0,0.1,0,0.3-0.3,0.3h-1.7c-0.4,0-0.8,0.2-0.8,0.4v-0.4c0-0.3,0-0.5,0.2-0.7s0.8-0.3,1.1-0.3
			c0.4,0,0.7,0,1,0.2c0.1,0.1,0.2,0.1,0.2,0.2C50.2,45.1,50.2,45.2,50.2,45.3"/>
		<path class="st8" d="M64.2,47.8v-0.4h-2.6c-0.4,0-1,0-1.1-0.5c0-0.2-0.1-0.4-0.1-0.6h3.1c0.2,0,0.4,0,0.6-0.2
			c0.1-0.1,0.2-0.2,0.2-0.3c0-0.1,0.1-0.2,0-0.4c0-0.5-0.1-1.1-0.8-1.4c-0.6-0.3-1.2-0.3-1.8-0.3c-0.6,0-1.4,0-2,0.4
			c-0.6,0.4-0.6,1-0.6,1.8c0,0.8,0,1.2,0.4,1.6c0.3,0.4,1.1,0.6,1.6,0.6h2.6c0.1,0,0.2,0,0.3-0.1S64.2,47.9,64.2,47.8L64.2,47.8z
			 M63.1,45.3c0,0.1,0,0.3-0.3,0.3h-1.7c-0.4,0-0.8,0.2-0.8,0.4v-0.4c0-0.3,0-0.5,0.2-0.7s0.8-0.3,1.1-0.3c0.4,0,0.7,0,1,0.2
			c0.1,0.1,0.2,0.1,0.2,0.2C63.1,45.1,63.1,45.2,63.1,45.3"/>
		<path class="st8" d="M45.2,42.6h-0.5c-0.1,0-0.2,0-0.2,0.1c-0.1,0.1-0.1,0.2-0.1,0.2v0.9c0-0.2,0.2-0.5,0.6-0.5h0.2
			c0.1,0,0.2,0,0.3-0.1c0.1-0.1,0.1-0.2,0.1-0.2V43c0-0.1,0-0.2-0.1-0.2C45.4,42.7,45.3,42.6,45.2,42.6"/>
		<path class="st8" d="M48.6,52c-0.6-1.4-2.4-1.3-2.4-1.3h-3c-0.1,0-0.3,0-0.4,0.1c-0.1,0-0.2,0.1-0.3,0.2c-0.1,0.1-0.2,0.2-0.2,0.3
			c-0.1,0.1-0.1,0.3-0.1,0.4v7.1h0.8c0.5,0,0.9-0.3,0.9-0.7v-1.2h2.6c1.9,0,2.3-1.6,2.3-1.6S49.3,53.3,48.6,52z M47.1,55.1
			c-0.3,0.7-1.3,0.7-1.3,0.7h-2.1V52c0-0.3,0.5-0.3,0.5-0.3h1.4c0.2,0,0.5,0,0.7,0.1c0.8,0.2,0.9,1.2,0.9,1.2S47.4,54.4,47.1,55.1z"
			/>
		<path class="st8" d="M54.7,50.7h-4.4V51c0,0.4,0.4,0.7,0.8,0.7h2.9c0,0,0.9,0,0.9,0.7V53h-3.3c0,0-0.9,0-1.3,0.5
			c-0.3,0.5-0.5,1-0.5,1.6c0,0.5,0.2,1.2,0.7,1.5c0.4,0.2,0.8,0.3,1.2,0.3H55c0,0,1.6,0.2,1.6-0.9v-3.5
			C56.6,52.4,56.7,50.7,54.7,50.7z M54.6,55.8h-2.3c-0.1,0-0.2,0-0.3,0c-0.1,0-0.2-0.1-0.3-0.2c-0.1-0.1-0.1-0.2-0.2-0.3
			c0-0.1,0-0.2,0-0.3c0-0.8,0.5-0.9,0.6-0.9H55v1.4C55,55.4,55.1,55.8,54.6,55.8z"/>
		<path class="st8" d="M57.9,50.7h0.5c0.1,0,0.2,0,0.3,0.1s0.2,0.1,0.2,0.2l2.2,4.4l2.4-4.4c0-0.1,0.1-0.2,0.2-0.2s0.2-0.1,0.3-0.1
			h0.5c0.4,0,0.7,0.3,0.5,0.7l-3.9,7.2c-0.1,0.1-0.1,0.1-0.2,0.2c-0.1,0-0.2,0.1-0.3,0.1h-0.5c-0.4,0-0.7-0.3-0.5-0.7l0.7-1.3
			l-2.9-5.5C57.3,51,57.5,50.7,57.9,50.7z"/>
	</g>
</g>
</svg>
