<?xml version="1.0" encoding="utf-8"?>
<!-- Generator: Adobe Illustrator 22.0.1, SVG Export Plug-In . SVG Version: 6.00 Build 0)  -->
<svg version="1.1" id="Layer_1" xmlns="http://www.w3.org/2000/svg" xmlns:xlink="http://www.w3.org/1999/xlink" x="0px" y="0px"
	 viewBox="0 0 143 100" style="enable-background:new 0 0 143 100;" xml:space="preserve">
<style type="text/css">
	.st0{fill:#00908C;}
	.st1{fill:#D58330;}
</style>
<g>
	<path class="st0" d="M122.7,40.9C112.4,28.4,93.5,20,71.8,20c-21.7,0-40.7,8.4-50.9,20.9H61C67.3,33.8,78.7,29,91.9,29
		C105,29,116.5,33.8,122.7,40.9z"/>
	<path class="st1" d="M20.7,59.1C31,71.6,50,80,71.7,80c21.7,0,40.7-8.4,50.9-20.9H82.4C76.2,66.2,64.7,71,51.6,71
		C38.5,71,27,66.2,20.7,59.1z"/>
	<path class="st0" d="M40.1,46.6h-4.2c-1.1,0-2.1,0.4-2.6,1.1c-0.5,0.7-3.2,4.7-3.2,4.7s-2.9-4.2-3.3-4.7c-0.4-0.5-1.7-1.1-3.2-1.1
		c-1.5,0-3.3,0-3.3,0s5.6,6.6,5.9,7c0.3,0.3,1.7,1,3.8,1c2,0,3.4-0.4,3.9-1c0.6-0.7,3.6-4.4,3.6-4.4s0,3.9,0,4.4c0,0.5,0.9,1,2.6,1
		c1.7,0,2.9-0.5,2.9-1v-5.9C43,47.1,41.9,46.6,40.1,46.6z M115.3,52.6c-1.1,0-1.7-0.4-1.7-1.4c0-1,0-3.6,0-3.6c0-0.6-1-1.1-2.8-1.1
		c-1.7,0-2.7,0.1-2.7,1.1c0,1,0,5.1,0,5.1s-8.1,0-9.1,0c-0.9,0-1.3-0.1-1.3-0.9c0-0.7,0-0.7,0-0.7s5.8,0,6.8,0c1,0,1.8,0,1.8-0.8
		c0-0.8,0-0.8,0-0.8s-6.3,0-7.3,0c-0.9,0-1.3-0.1-1.3-0.7c0-0.6,0-0.6,0-0.6s6.4,0,7.3,0c0.9,0,2-0.3,2-0.7c0-0.4,0-1.1,0-1.1
		s-9.4,0-20.8,0c-0.8,0-0.8-0.8-0.8-0.8v-0.2c0-0.5-1-1-2.6-1c-1.6,0-2.9,0.4-2.9,1v0.2l0,0c0,0,0,0.8-0.8,0.8h-6.6
		c-0.8,0-0.8-0.8-0.8-0.8l0,0v-0.2c0-0.5-1-1-2.6-1c-1.6,0-2.9,0.4-2.9,1v0.2c0,0,0,0.8-0.8,0.8H45.9c-1,0-1.5,0.3-1.5,1.1
		c0,0.5,0,5.9,0,5.9c0,0.5,0.7,1,2.2,1h10.9c0.8,0,1.9-0.5,1.9-1.1c0-0.5,0-0.8,0-0.8s-7.5,0-8.2,0c-0.8,0-1.3-0.2-1.3-0.9
		c0-0.7,0-0.7,0-0.7s5.9,0,6.7,0c0.8,0,1.9,0,1.9-0.8c0-0.8,0-0.8,0-0.8s-6.5,0-7.3,0c-0.8,0-1.3-0.1-1.3-0.5c0-0.5,0-0.5,0-0.5
		s12.3,0,13.7,0c1.4,0,2.5,0.4,2.5,1.8v3.2c0,0.5,1.3,1,2.8,1c1.5,0,2.7-0.5,2.7-1v-3.2c0-0.8,0.7-1.8,2.2-1.8h3.8
		c1.3,0,2.2,0.6,2.2,1.8v3.2c0,0.5,1,1,2.6,1c1.6,0,2.9-0.4,2.9-1v-3.2c0-0.8,1-1.8,2-1.8h2.9c1,0,2.1,0.6,2.1,1.8v3.2
		c0,0.5,0.5,1,1.7,1H120c1.2,0,2.2-0.5,2.2-1c0-0.6,0-0.9,0-0.9S116.4,52.6,115.3,52.6z"/>
</g>
</svg>
