<?xml version="1.0" encoding="utf-8"?>
<!-- Generator: Adobe Illustrator 22.0.1, SVG Export Plug-In . SVG Version: 6.00 Build 0)  -->
<svg version="1.1" id="Layer_1" xmlns="http://www.w3.org/2000/svg" xmlns:xlink="http://www.w3.org/1999/xlink" x="0px" y="0px"
	 viewBox="0 0 100 100" style="enable-background:new 0 0 100 100;" xml:space="preserve">
<style type="text/css">
	.st0{fill:#FF0000;}
	.st1{fill:#FFFFFF;}
</style>
<g>
	<path class="st0" d="M50,80L50,80c-16.566,0-30-13.434-30-30s13.434-30,30-30s30,13.434,30,30S66.566,80,50,80z"/>
	<path class="st1" d="M45.926,55.922V44.078L56.336,50L45.926,55.922z M69.092,40.346c-0.456-1.728-1.806-3.084-3.522-3.546
		c-3.108-0.84-15.564-0.84-15.564-0.84s-12.462,0-15.564,0.84c-1.716,0.462-3.066,1.818-3.522,3.546C30.08,43.472,30.08,50,30.08,50
		s0,6.528,0.834,9.654c0.456,1.728,1.806,3.084,3.522,3.546C37.544,64.04,50,64.04,50,64.04s12.462,0,15.564-0.84
		c1.716-0.462,3.066-1.818,3.522-3.546C69.92,56.528,69.92,50,69.92,50S69.92,43.472,69.092,40.346z"/>
</g>
</svg>
