<?xml version="1.0" encoding="utf-8"?>
<!-- Generator: Adobe Illustrator 22.0.1, SVG Export Plug-In . SVG Version: 6.00 Build 0)  -->
<svg version="1.1" id="Layer_1" xmlns="http://www.w3.org/2000/svg" xmlns:xlink="http://www.w3.org/1999/xlink" x="0px" y="0px"
	 viewBox="0 0 103 100" style="enable-background:new 0 0 103 100;" xml:space="preserve">
<style type="text/css">
	.st0{fill:#FFFFFF;}
	.st1{fill:#FDFEFE;}
	.st2{fill:#0180C7;}
	.st3{fill:#0172B1;}
	.st4{fill:none;stroke:#0180C7;stroke-width:2;stroke-miterlimit:10;}
</style>
<g>
	<path class="st0" d="M75,76.2h-45c-4.4,0-8-3.6-8-8V28.5c0-4.4,3.6-8,8-8h45c4.4,0,8,3.6,8,8v39.7C83,72.6,79.4,76.2,75,76.2z"/>
	<g>
		<path class="st1" d="M31.3,72.3c-0.2-0.1-0.4-0.2-0.1-0.5c0.2-0.1,0.4-0.3,0.6-0.4c1.8-1.2,3.5-2.4,4.6-4.3
			c0.9-1.6,0.8-2.5-0.4-3.6C29.4,57,26.5,49.2,28,40c0.8-5.2,3.2-9.7,6.7-13.6c2.1-2.4,4.6-4.3,7.3-5.9c0.2-0.1,0.4-0.1,0.4-0.4
			C42.3,20,42.2,20,42.1,20c-4.6,0-9.3-0.1-13.9,0c-4.4,0.1-8.3,3.6-8.2,8.5c0,14.3,0,28.7,0,43c0,4.5,3.4,8.2,7.8,8.3
			c3.8,0.2,7.5,0,11.3,0c0.3,0,0.6,0,0.8,0h19.9c5,0,9.9,0,14.9,0c4.6,0,8.3-3.7,8.3-8.3v-0.1v-8c0-0.2,0.1-0.4-0.1-0.6
			c-0.2,0-0.3,0.2-0.5,0.4c-2.7,2.7-5.8,4.8-9.3,6.4c-8.5,3.7-17.1,4-25.8,1c-0.8-0.3-1.6-0.3-2.4-0.1c-1.2,0.3-2.3,0.6-3.4,1
			C38.2,72.6,34.8,73,31.3,72.3L31.3,72.3z M41.2,49.2c0.2-0.3,0.4-0.5,0.5-0.7c1.8-2.3,3.6-4.6,5.4-6.9c0.5-0.7,1-1.3,1.4-2.1
			c0.4-0.9,0-1.8-1-2.1c-0.4-0.1-0.9-0.2-1.3-0.2c-2.4,0-4.9,0-7.4,0c-0.3,0-0.7,0-1,0.1c-0.8,0.2-1.2,1-1,1.8
			c0.1,0.5,0.6,0.9,1.1,1.1c0.3,0.1,0.7,0.1,1,0.1c1.5,0,3,0,4.5,0c0.2,0,0.4-0.1,0.5,0.1c-0.1,0.2-0.2,0.3-0.4,0.5
			c-2.1,2.7-4.2,5.4-6.4,8.1c-0.5,0.7-0.8,1.4-0.4,2.2c0.4,0.8,1.2,1,2,1c0.6,0,1.3,0,1.9,0c2.2,0,4.4,0,6.7,0
			c1.2,0,1.8-0.7,1.7-1.8c-0.1-0.9-0.7-1.3-1.8-1.3C45.2,49.2,43.3,49.2,41.2,49.2L41.2,49.2z M57.2,41.9c-1.7-1.5-3.6-1.6-5.5-0.5
			c-2.3,1.3-3.1,3.5-2.8,6c0.3,2.3,1.3,4.2,3.7,5c1.5,0.5,2.9,0.3,4.2-0.7c0.3-0.3,0.4-0.2,0.7,0.1c0.5,0.6,1.2,0.8,1.9,0.5
			c0.7-0.2,1.1-0.8,1.1-1.6c0-2.8,0-5.5,0-8.3c0-1.1-1-1.8-2.1-1.6C57.8,41.1,57.5,41.5,57.2,41.9L57.2,41.9z M66.7,47
			c-0.1,3.4,2.8,6,6.4,5.7c3.3-0.3,5.4-2.8,5.3-6.3c-0.1-3.4-2.7-5.8-6.2-5.7C68.9,40.9,66.6,43.5,66.7,47z M65.5,44.3
			c0-2.2,0-4.3,0-6.5c0-1.1-0.7-1.8-1.7-1.8c-1,0-1.7,0.7-1.7,1.8c0,0.6,0,1.3,0,1.9v10.9c0,0.9,0.5,1.6,1.2,1.8
			c0.9,0.3,1.9-0.3,2.2-1.3c0-0.2,0.1-0.3,0.1-0.5C65.5,48.6,65.5,46.4,65.5,44.3L65.5,44.3z"/>
		<path class="st2" d="M39.1,79.9c-3.8,0-7.5,0.1-11.3,0C23.4,79.8,20,76,20,71.6c0-14.3,0-28.7,0-43c0-4.9,3.8-8.3,8.3-8.5
			c4.6-0.1,9.3,0,13.9,0c0.1,0,0.2,0,0.2,0.1c0,0.2-0.3,0.3-0.4,0.4c-2.7,1.6-5.2,3.5-7.3,5.9c-3.5,3.9-5.8,8.4-6.7,13.6
			c-1.4,9.2,1.4,17,7.9,23.5c1.2,1.2,1.3,2.1,0.4,3.6c-1.1,1.9-2.8,3.2-4.6,4.3c-0.2,0.1-0.4,0.2-0.6,0.4c-0.3,0.2-0.1,0.4,0.1,0.5
			c0.1,0.1,0.1,0.2,0.2,0.3c1.6,1.4,3.1,2.9,4.6,4.3c0.7,0.7,1.5,1.4,2.2,2.1C38.5,79.4,39,79.5,39.1,79.9z"/>
		<path class="st3" d="M39.1,79.9c-0.1-0.5-0.6-0.6-0.8-0.9c-0.7-0.7-1.4-1.4-2.2-2.1c-1.6-1.4-3.1-2.9-4.6-4.3
			c-0.1-0.1-0.2-0.2-0.2-0.3c3.5,0.7,6.9,0.2,10.3-0.8c1.1-0.3,2.3-0.7,3.4-1c0.8-0.2,1.6-0.2,2.4,0.1c8.7,3,17.3,2.7,25.8-1
			c3.5-1.5,6.6-3.7,9.3-6.4c0.1-0.1,0.2-0.3,0.5-0.4c0.1,0.2,0.1,0.4,0.1,0.6v8c0,4.6-3.7,8.3-8.3,8.4h-0.1c-5,0-9.9,0-14.9,0H39.9
			C39.6,80,39.4,79.9,39.1,79.9L39.1,79.9z"/>
		<path class="st2" d="M41.2,49.2c2.1,0,4,0,6,0c1.1,0,1.7,0.5,1.8,1.3c0.1,1.1-0.5,1.8-1.7,1.8c-2.2,0-4.4,0-6.7,0
			c-0.6,0-1.3,0-1.9,0c-0.8,0-1.6-0.2-2-1c-0.4-0.8-0.1-1.6,0.4-2.2c2.1-2.7,4.2-5.4,6.4-8.1c0.1-0.2,0.2-0.3,0.4-0.5
			c-0.1-0.2-0.3-0.1-0.5-0.1c-1.5,0-3,0-4.5,0c-0.3,0-0.7,0-1-0.1c-0.8-0.2-1.3-1-1.1-1.7c0.1-0.5,0.5-0.9,1.1-1.1
			c0.3-0.1,0.7-0.1,1-0.1c2.4,0,4.9,0,7.4,0c0.4,0,0.9,0,1.3,0.2c0.9,0.3,1.3,1.2,1,2.1c-0.3,0.8-0.9,1.5-1.4,2.1
			c-1.8,2.3-3.6,4.6-5.4,6.8C41.6,48.7,41.4,48.9,41.2,49.2L41.2,49.2z"/>
		<path class="st2" d="M57.2,41.9c0.3-0.4,0.7-0.8,1.2-0.9c1.1-0.2,2.1,0.5,2.1,1.6c0,2.8,0,5.5,0,8.3c0,0.7-0.5,1.3-1.1,1.6
			c-0.7,0.3-1.5,0.1-1.9-0.5c-0.2-0.3-0.3-0.3-0.7-0.1c-1.3,1-2.7,1.2-4.2,0.7c-2.4-0.8-3.5-2.7-3.7-5c-0.3-2.5,0.6-4.7,2.8-6
			C53.6,40.3,55.5,40.4,57.2,41.9L57.2,41.9z M52.3,47c0,0.6,0.2,1.2,0.6,1.7c0.7,1,2.2,1.2,3.2,0.5c0.2-0.1,0.3-0.3,0.5-0.5
			c0.8-1,0.8-2.8,0-3.8c-0.4-0.5-1-0.9-1.6-0.9C53.4,43.9,52.3,45,52.3,47z M66.7,47c-0.1-3.5,2.2-6.2,5.5-6.3
			c3.5-0.1,6.1,2.2,6.2,5.7c0.1,3.5-2,5.9-5.3,6.3C69.5,53.1,66.7,50.5,66.7,47L66.7,47z M70.2,46.7c0,0.7,0.2,1.4,0.6,1.9
			c0.8,1,2.2,1.2,3.2,0.4c0.2-0.1,0.3-0.2,0.4-0.4c0.8-1,0.8-2.8,0-3.9c-0.4-0.5-1-0.9-1.6-0.9C71.2,43.9,70.2,45,70.2,46.7z
			 M65.5,44.3c0,2.1,0,4.3,0,6.4c0,1-0.8,1.8-1.7,1.8c-0.2,0-0.3,0-0.5-0.1c-0.7-0.2-1.2-0.9-1.2-1.8V39.8c0-0.6,0-1.3,0-1.9
			c0-1.1,0.7-1.7,1.7-1.7c1,0,1.7,0.7,1.7,1.8C65.5,40,65.5,42.2,65.5,44.3z"/>
		<path class="st1" d="M52.3,47c0-1.9,1-3.1,2.5-3c0.6,0,1.3,0.3,1.6,0.9c0.8,1,0.8,2.8,0,3.8c-0.7,1-2.2,1.2-3.2,0.5
			c-0.2-0.1-0.3-0.3-0.5-0.5C52.5,48.1,52.3,47.6,52.3,47L52.3,47z M70.2,46.7c0-1.7,1-2.8,2.5-2.8c0.6,0,1.3,0.3,1.6,0.9
			c0.8,1,0.8,2.8,0,3.9c-0.8,1-2.2,1.1-3.2,0.4c-0.2-0.1-0.3-0.2-0.4-0.4C70.3,48.1,70.1,47.4,70.2,46.7z"/>
		<path class="st4" d="M29,20.1h45.1c4.9,0,8.9,4,8.9,8.9v41.7c0,4.9-4,8.9-8.9,8.9H29c-4.9,0-8.9-4-8.9-8.9V29
			C20,24.1,24,20.1,29,20.1z"/>
	</g>
</g>
</svg>
